<svg width="502" height="419" viewBox="0 0 502 419" fill="none" xmlns="http://www.w3.org/2000/svg">
<path d="M291.5 106.5C342.895 106.5 394.617 127.99 433.493 160.712C472.404 193.464 498 237.066 498 281C498 324.885 475.587 358.36 440.113 381.016C404.532 403.739 355.863 415.5 304 415.5C251.959 415.5 197.524 407.177 156.24 387.797C115.017 368.444 87.5 338.426 87.5 295C87.5 250.969 112.568 203.829 150.908 167.578C189.216 131.359 240.269 106.5 291.5 106.5Z" fill="white" stroke="black" stroke-width="7"/>
<mask id="mask0_36_1192" style="mask-type:alpha" maskUnits="userSpaceOnUse" x="84" y="103" width="418" height="316">
<path d="M291.5 106.5C342.895 106.5 394.617 127.99 433.493 160.712C472.404 193.464 498 237.066 498 281C498 324.885 475.587 358.36 440.113 381.016C404.532 403.739 355.863 415.5 304 415.5C251.959 415.5 197.524 407.177 156.24 387.797C115.017 368.444 87.5 338.426 87.5 295C87.5 250.969 112.568 203.829 150.908 167.578C189.216 131.359 240.269 106.5 291.5 106.5Z" fill="white" stroke="black" stroke-width="7"/>
</mask>
<g mask="url(#mask0_36_1192)">
<ellipse cx="429" cy="333.5" rx="86.5" ry="91.5" fill="#FFAAD3"/>
<ellipse cx="135" cy="320.5" rx="86.5" ry="91.5" fill="#FFAAD3"/>
</g>
<path d="M291.5 106.5C342.895 106.5 394.617 127.99 433.493 160.712C472.404 193.464 498 237.066 498 281C498 324.885 475.587 358.36 440.113 381.016C404.532 403.739 355.863 415.5 304 415.5C251.959 415.5 197.524 407.177 156.24 387.797C115.017 368.444 87.5 338.426 87.5 295C87.5 250.969 112.568 203.829 150.908 167.578C189.216 131.359 240.269 106.5 291.5 106.5Z" stroke="black" stroke-width="7"/>
<path d="M373.474 230.354C372.501 233.256 363.435 232.834 353.223 229.412C343.012 225.99 336.168 223.843 337.14 220.94C338.113 218.038 347.179 218.46 357.391 221.882C367.602 225.304 374.447 227.451 373.474 230.354Z" fill="black"/>
<path d="M375.262 225.669C374.29 228.571 365.223 228.15 355.012 224.727C344.8 221.305 337.956 219.158 338.929 216.256C339.901 213.354 348.968 213.775 359.179 217.198C369.39 220.62 376.235 222.767 375.262 225.669Z" fill="black"/>
<path d="M376.262 221.669C375.29 224.571 366.223 224.15 356.012 220.727C345.8 217.305 338.956 215.158 339.929 212.256C340.901 209.354 349.968 209.775 360.179 213.198C370.39 216.62 377.235 218.767 376.262 221.669Z" fill="black"/>
<path d="M252.491 218.882C252.903 221.899 244.585 225.525 233.914 226.979C223.243 228.432 216.156 229.538 215.745 226.52C215.333 223.502 223.651 219.877 234.322 218.423C244.993 216.969 252.08 215.864 252.491 218.882Z" fill="black"/>
<path d="M251.491 214.882C251.903 217.899 243.585 221.525 232.914 222.979C222.243 224.432 215.156 225.538 214.745 222.52C214.333 219.502 222.651 215.877 233.322 214.423C243.993 212.969 251.08 211.864 251.491 214.882Z" fill="black"/>
<path d="M250.491 210.882C250.903 213.899 242.585 217.525 231.914 218.979C221.243 220.432 214.156 221.538 213.745 218.52C213.333 215.502 221.651 211.877 232.322 210.423C242.993 208.969 250.08 207.864 250.491 210.882Z" fill="black"/>
<path d="M287.5 264.5C282.5 261 257.55 279.501 247.5 278.001C281 350.001 331.863 278.001 327.5 278.001C318.076 278.001 307.5 278.5 287.5 264.5Z" fill="#E59090"/>
<path d="M241 271.997C268.5 279.476 271.983 269.959 284.5 263.273C290.5 260.067 296.5 286.421 331 275.202" stroke="black" stroke-width="7" stroke-linecap="round"/>
<path d="M247 273C250.976 304.636 299.176 334.641 328 275" stroke="black" stroke-width="7"/>
<path d="M19.9503 121.076C17.1458 119.824 16.1219 116.364 17.7939 113.788L34.3654 88.2557C36.0643 85.638 39.7196 85.1992 41.9899 87.3402L94.4916 136.853C96.2488 138.51 96.5702 141.187 95.2552 143.213L91.8107 148.52C90.4705 150.585 87.8269 151.367 85.579 150.364L19.9503 121.076Z" fill="#F5B399"/>
<path d="M116.108 42.6639C115.457 39.647 117.668 36.7668 120.75 36.6157L144.231 35.464C147.365 35.3103 149.864 38.0483 149.427 41.1557L141.649 96.3495C141.314 98.7252 139.339 100.528 136.943 100.646L132.939 100.842C130.495 100.962 128.323 99.2948 127.807 96.9024L116.108 42.6639Z" fill="#F5B399"/>
<path d="M39.3315 37.1207C37.475 34.7495 38.1204 31.2873 40.7065 29.7444L67.1691 13.9562C69.7897 12.3927 73.1875 13.521 74.3523 16.3416L109.176 100.667C110.123 102.959 109.246 105.599 107.117 106.869L101.921 109.969C99.7585 111.259 96.9744 110.74 95.4222 108.758L39.3315 37.1207Z" fill="#F5B399"/>
<circle cx="228" cy="218" r="3" fill="white"/>
<circle cx="228" cy="218" r="3" fill="white"/>
<circle cx="228" cy="218" r="3" fill="white"/>
<circle cx="238" cy="221" r="2" fill="white"/>
<circle cx="238" cy="221" r="2" fill="white"/>
<circle cx="238" cy="221" r="2" fill="white"/>
<circle cx="352.598" cy="218.598" r="3" transform="rotate(13.0052 352.598 218.598)" fill="white"/>
<circle cx="352.598" cy="218.598" r="3" transform="rotate(13.0052 352.598 218.598)" fill="white"/>
<circle cx="352.598" cy="218.598" r="3" transform="rotate(13.0052 352.598 218.598)" fill="white"/>
<circle cx="361.667" cy="223.772" r="2" transform="rotate(13.0052 361.667 223.772)" fill="white"/>
<circle cx="361.667" cy="223.772" r="2" transform="rotate(13.0052 361.667 223.772)" fill="white"/>
<circle cx="361.667" cy="223.772" r="2" transform="rotate(13.0052 361.667 223.772)" fill="white"/>
</svg>
