<svg width="773" height="951" viewBox="0 0 773 951" fill="none" xmlns="http://www.w3.org/2000/svg">
<mask id="path-1-inside-1_47_15" fill="white">
<path d="M203.5 41.4506C249.262 41.4506 286.91 76.968 291.523 122.516C304.39 118.599 318.376 116.451 333 116.451C388.835 116.451 435.374 147.765 445.811 189.294C454.877 187.434 464.312 186.451 474 186.451C519.157 186.451 558.807 207.793 581.325 239.945C632.342 243.481 676.473 265.726 702.409 297.837C708.486 293.818 715.942 291.451 724 291.451C744.435 291.451 761 306.673 761 325.451C761 343.342 745.962 358.004 726.867 359.349C726.954 361.041 727 362.742 727 364.451C727 433.486 655.366 489.451 567 489.451C541.282 489.451 516.981 484.708 495.451 476.285C474.182 490.826 447.704 499.451 419 499.451C393.467 499.451 369.695 492.626 349.784 480.884C337.902 486.391 324.936 490.252 311.253 492.136C310.247 493.849 309.183 495.531 308.062 497.18C326.589 503.735 340.135 518.295 342.597 535.72C361.804 540.207 376 556.07 376 574.951C376 578.964 375.355 582.839 374.16 586.499C389.128 587.359 401 599.768 401 614.951C401 630.691 388.24 643.451 372.5 643.451C356.76 643.451 344 630.691 344 614.951C344 614.572 344.01 614.196 344.024 613.822C340.051 614.88 335.849 615.451 331.5 615.451C312.492 615.451 296.27 604.603 289.894 589.339C288.607 589.412 287.309 589.451 286 589.451C254.699 589.451 229.291 568.204 229.003 541.902C225.225 542.263 221.387 542.451 217.5 542.451C159.234 542.451 112 500.813 112 449.451C112 414.767 133.538 384.519 165.467 368.531C169.799 322.615 203.926 284.399 250.265 269.805C234.198 256.711 223.104 239.814 219.378 220.997C214.227 221.951 208.92 222.451 203.5 222.451C185.569 222.451 168.884 216.997 154.943 207.624C147.671 224.084 131.317 236.262 111.595 238.911C108.699 258.419 90.5101 273.451 68.5 273.451C44.4756 273.451 25 255.542 25 233.451C25 217.837 34.7289 204.314 48.916 197.725C48.3147 194.718 48 191.618 48 188.451C48 160.284 72.8482 137.451 103.5 137.451C107.526 137.451 111.452 137.845 115.235 138.593C115.08 136.4 115 134.185 115 131.951C115 81.9688 154.623 41.4506 203.5 41.4506Z"/>
</mask>
<path d="M203.5 41.4506C249.262 41.4506 286.91 76.968 291.523 122.516C304.39 118.599 318.376 116.451 333 116.451C388.835 116.451 435.374 147.765 445.811 189.294C454.877 187.434 464.312 186.451 474 186.451C519.157 186.451 558.807 207.793 581.325 239.945C632.342 243.481 676.473 265.726 702.409 297.837C708.486 293.818 715.942 291.451 724 291.451C744.435 291.451 761 306.673 761 325.451C761 343.342 745.962 358.004 726.867 359.349C726.954 361.041 727 362.742 727 364.451C727 433.486 655.366 489.451 567 489.451C541.282 489.451 516.981 484.708 495.451 476.285C474.182 490.826 447.704 499.451 419 499.451C393.467 499.451 369.695 492.626 349.784 480.884C337.902 486.391 324.936 490.252 311.253 492.136C310.247 493.849 309.183 495.531 308.062 497.18C326.589 503.735 340.135 518.295 342.597 535.72C361.804 540.207 376 556.07 376 574.951C376 578.964 375.355 582.839 374.16 586.499C389.128 587.359 401 599.768 401 614.951C401 630.691 388.24 643.451 372.5 643.451C356.76 643.451 344 630.691 344 614.951C344 614.572 344.01 614.196 344.024 613.822C340.051 614.88 335.849 615.451 331.5 615.451C312.492 615.451 296.27 604.603 289.894 589.339C288.607 589.412 287.309 589.451 286 589.451C254.699 589.451 229.291 568.204 229.003 541.902C225.225 542.263 221.387 542.451 217.5 542.451C159.234 542.451 112 500.813 112 449.451C112 414.767 133.538 384.519 165.467 368.531C169.799 322.615 203.926 284.399 250.265 269.805C234.198 256.711 223.104 239.814 219.378 220.997C214.227 221.951 208.92 222.451 203.5 222.451C185.569 222.451 168.884 216.997 154.943 207.624C147.671 224.084 131.317 236.262 111.595 238.911C108.699 258.419 90.5101 273.451 68.5 273.451C44.4756 273.451 25 255.542 25 233.451C25 217.837 34.7289 204.314 48.916 197.725C48.3147 194.718 48 191.618 48 188.451C48 160.284 72.8482 137.451 103.5 137.451C107.526 137.451 111.452 137.845 115.235 138.593C115.08 136.4 115 134.185 115 131.951C115 81.9688 154.623 41.4506 203.5 41.4506Z" fill="#FFC9C9"/>
<path d="M291.523 122.516L286.549 123.02L287.162 129.07L292.98 127.299L291.523 122.516ZM445.811 189.294L440.961 190.513L442.128 195.154L446.816 194.192L445.811 189.294ZM581.325 239.945L577.23 242.813L578.599 244.768L580.979 244.933L581.325 239.945ZM702.409 297.837L698.519 300.979L701.376 304.515L705.167 302.008L702.409 297.837ZM726.867 359.349L726.516 354.361L721.622 354.706L721.874 359.606L726.867 359.349ZM495.451 476.285L497.273 471.628L494.811 470.665L492.629 472.157L495.451 476.285ZM349.784 480.884L352.324 476.577L350.063 475.244L347.682 476.348L349.784 480.884ZM311.253 492.136L310.571 487.183L308.169 487.514L306.941 489.605L311.253 492.136ZM308.062 497.18L303.927 494.369L300.283 499.731L306.395 501.894L308.062 497.18ZM342.597 535.72L337.646 536.42L338.125 539.81L341.459 540.589L342.597 535.72ZM374.16 586.499L369.407 584.948L367.393 591.119L373.873 591.491L374.16 586.499ZM344.024 613.822L349.021 614.016L349.284 607.246L342.737 608.99L344.024 613.822ZM289.894 589.339L294.507 587.412L293.143 584.147L289.61 584.347L289.894 589.339ZM229.003 541.902L234.003 541.847L233.943 536.407L228.527 536.924L229.003 541.902ZM165.467 368.531L167.706 373.001L170.184 371.76L170.445 369L165.467 368.531ZM250.265 269.805L251.767 274.574L260.612 271.788L253.423 265.929L250.265 269.805ZM219.378 220.997L224.283 220.025L223.323 215.181L218.467 216.08L219.378 220.997ZM154.943 207.624L157.733 203.475L152.781 200.146L150.37 205.604L154.943 207.624ZM111.595 238.911L110.929 233.955L107.201 234.456L106.649 238.176L111.595 238.911ZM48.916 197.725L51.0221 202.26L54.5903 200.603L53.819 196.745L48.916 197.725ZM115.235 138.593L114.265 143.498L120.686 144.768L120.223 138.239L115.235 138.593ZM203.5 41.4506V46.4506C246.579 46.4506 282.182 79.9083 286.549 123.02L291.523 122.516L296.498 122.012C291.637 74.0277 251.944 36.4506 203.5 36.4506V41.4506ZM291.523 122.516L292.98 127.299C305.37 123.527 318.865 121.451 333 121.451V116.451V111.451C317.888 111.451 303.411 113.671 290.067 117.733L291.523 122.516ZM333 116.451V121.451C387.284 121.451 431.246 151.853 440.961 190.513L445.811 189.294L450.66 188.076C439.502 143.677 390.385 111.451 333 111.451V116.451ZM445.811 189.294L446.816 194.192C455.553 192.399 464.651 191.451 474 191.451V186.451V181.451C463.973 181.451 454.202 182.468 444.805 184.396L445.811 189.294ZM474 186.451V191.451C517.594 191.451 555.685 212.052 577.23 242.813L581.325 239.945L585.421 237.076C561.928 203.534 520.72 181.451 474 181.451V186.451ZM581.325 239.945L580.979 244.933C630.824 248.388 673.583 270.106 698.519 300.979L702.409 297.837L706.299 294.696C679.363 261.346 633.859 238.574 581.671 234.957L581.325 239.945ZM702.409 297.837L705.167 302.008C710.429 298.528 716.927 296.451 724 296.451V291.451V286.451C714.957 286.451 706.542 289.109 699.651 293.667L702.409 297.837ZM724 291.451V296.451C742.08 296.451 756 309.824 756 325.451H761H766C766 303.522 746.79 286.451 724 286.451V291.451ZM761 325.451H756C756 340.348 743.377 353.174 726.516 354.361L726.867 359.349L727.218 364.337C748.547 362.835 766 346.336 766 325.451H761ZM726.867 359.349L721.874 359.606C721.957 361.216 722 362.831 722 364.451H727H732C732 362.652 731.952 360.866 731.861 359.092L726.867 359.349ZM727 364.451H722C722 429.646 653.824 484.451 567 484.451V489.451V494.451C656.907 494.451 732 437.327 732 364.451H727ZM567 489.451V484.451C541.893 484.451 518.212 479.82 497.273 471.628L495.451 476.285L493.629 480.941C515.751 489.596 540.67 494.451 567 494.451V489.451ZM495.451 476.285L492.629 472.157C472.193 486.129 446.699 494.451 419 494.451V499.451V504.451C448.709 504.451 476.171 495.523 498.273 480.412L495.451 476.285ZM419 499.451V494.451C394.361 494.451 371.466 487.866 352.324 476.577L349.784 480.884L347.244 485.191C367.924 497.386 392.573 504.451 419 504.451V499.451ZM349.784 480.884L347.682 476.348C336.25 481.646 323.763 485.366 310.571 487.183L311.253 492.136L311.935 497.089C326.11 495.137 339.555 491.136 351.887 485.421L349.784 480.884ZM311.253 492.136L306.941 489.605C305.991 491.222 304.986 492.811 303.927 494.369L308.062 497.18L312.198 499.991C313.38 498.251 314.503 496.476 315.565 494.668L311.253 492.136ZM308.062 497.18L306.395 501.894C323.549 507.963 335.497 521.212 337.646 536.42L342.597 535.72L347.548 535.021C344.772 515.378 329.629 499.507 309.73 492.466L308.062 497.18ZM342.597 535.72L341.459 540.589C358.761 544.631 371 558.74 371 574.951H376H381C381 553.4 364.848 535.783 343.734 530.851L342.597 535.72ZM376 574.951H371C371 578.423 370.442 581.776 369.407 584.948L374.16 586.499L378.913 588.051C380.267 583.903 381 579.504 381 574.951H376ZM374.16 586.499L373.873 591.491C386.211 592.2 396 602.433 396 614.951H401H406C406 597.102 392.044 582.518 374.447 581.508L374.16 586.499ZM401 614.951H396C396 627.929 385.479 638.451 372.5 638.451V643.451V648.451C391.002 648.451 406 633.452 406 614.951H401ZM372.5 643.451V638.451C359.521 638.451 349 627.929 349 614.951H344H339C339 633.452 353.998 648.451 372.5 648.451V643.451ZM344 614.951H349C349 614.657 349.008 614.35 349.021 614.016L344.024 613.822L339.028 613.627C339.012 614.043 339 614.488 339 614.951H344ZM344.024 613.822L342.737 608.99C339.181 609.938 335.411 610.451 331.5 610.451V615.451V620.451C336.287 620.451 340.922 619.823 345.312 618.653L344.024 613.822ZM331.5 615.451V610.451C314.355 610.451 300.049 600.677 294.507 587.412L289.894 589.339L285.28 591.267C292.491 608.528 310.628 620.451 331.5 620.451V615.451ZM289.894 589.339L289.61 584.347C288.415 584.415 287.211 584.451 286 584.451V589.451V594.451C287.406 594.451 288.799 594.41 290.177 594.331L289.894 589.339ZM286 589.451V584.451C256.615 584.451 234.252 564.653 234.003 541.847L229.003 541.902L224.003 541.956C224.329 571.754 252.782 594.451 286 594.451V589.451ZM229.003 541.902L228.527 536.924C224.905 537.271 221.226 537.451 217.5 537.451V542.451V547.451C221.548 547.451 225.545 547.255 229.479 546.879L229.003 541.902ZM217.5 542.451V537.451C161.384 537.451 117 497.478 117 449.451H112H107C107 504.148 157.084 547.451 217.5 547.451V542.451ZM112 449.451H117C117 416.965 137.178 388.288 167.706 373.001L165.467 368.531L163.228 364.06C129.898 380.75 107 412.569 107 449.451H112ZM165.467 368.531L170.445 369C174.562 325.359 207.07 288.651 251.767 274.574L250.265 269.805L248.763 265.036C200.782 280.147 165.036 319.87 160.489 368.061L165.467 368.531ZM250.265 269.805L253.423 265.929C238.103 253.443 227.746 237.518 224.283 220.025L219.378 220.997L214.473 221.968C218.461 242.11 230.292 259.978 247.106 273.681L250.265 269.805ZM219.378 220.997L218.467 216.08C213.614 216.979 208.612 217.451 203.5 217.451V222.451V227.451C209.228 227.451 214.84 226.922 220.289 225.913L219.378 220.997ZM203.5 222.451V217.451C186.6 217.451 170.881 212.315 157.733 203.475L154.943 207.624L152.154 211.774C166.887 221.68 184.538 227.451 203.5 227.451V222.451ZM154.943 207.624L150.37 205.604C143.846 220.369 129.041 231.523 110.929 233.955L111.595 238.911L112.26 243.866C133.593 241.001 151.496 227.798 159.517 209.645L154.943 207.624ZM111.595 238.911L106.649 238.176C104.157 254.964 88.3152 268.451 68.5 268.451V273.451V278.451C92.7049 278.451 113.241 261.874 116.541 239.645L111.595 238.911ZM68.5 273.451V268.451C46.8339 268.451 30 252.394 30 233.451H25H20C20 258.69 42.1173 278.451 68.5 278.451V273.451ZM25 233.451H30C30 220.025 38.3697 208.136 51.0221 202.26L48.916 197.725L46.8099 193.19C31.0881 200.492 20 215.65 20 233.451H25ZM48.916 197.725L53.819 196.745C53.2816 194.057 53 191.286 53 188.451H48H43C43 191.95 43.3478 195.378 44.0131 198.705L48.916 197.725ZM48 188.451H53C53 163.435 75.2032 142.451 103.5 142.451V137.451V132.451C70.4932 132.451 43 157.133 43 188.451H48ZM103.5 137.451V142.451C107.199 142.451 110.801 142.813 114.265 143.498L115.235 138.593L116.206 133.688C112.104 132.877 107.853 132.451 103.5 132.451V137.451ZM115.235 138.593L120.223 138.239C120.075 136.163 120 134.066 120 131.951H115H110C110 134.304 110.084 136.637 110.248 138.947L115.235 138.593ZM115 131.951H120C120 84.6243 157.489 46.4506 203.5 46.4506V41.4506V36.4506C151.757 36.4506 110 79.3133 110 131.951H115Z" fill="black" mask="url(#path-1-inside-1_47_15)"/>
<path d="M388.204 674.951C433.472 674.951 479.047 693.882 513.308 722.719C547.603 751.586 570.115 789.978 570.115 828.609C570.115 867.192 550.42 896.627 519.195 916.569C487.864 936.578 444.976 946.951 399.24 946.951C353.326 946.951 305.332 939.607 268.956 922.531C232.64 905.482 208.5 879.092 208.5 840.969C208.5 802.241 230.557 760.721 264.355 728.765C298.121 696.84 343.1 674.951 388.204 674.951Z" fill="white" stroke="black" stroke-width="7"/>
<mask id="mask0_47_15" style="mask-type:alpha" maskUnits="userSpaceOnUse" x="205" y="671" width="369" height="280">
<path d="M388.204 674.951C433.472 674.951 479.047 693.882 513.308 722.719C547.603 751.586 570.115 789.978 570.115 828.609C570.115 867.192 550.42 896.627 519.195 916.569C487.864 936.578 444.976 946.951 399.24 946.951C353.326 946.951 305.332 939.607 268.956 922.531C232.64 905.482 208.5 879.092 208.5 840.969C208.5 802.241 230.557 760.721 264.355 728.765C298.121 696.84 343.1 674.951 388.204 674.951Z" fill="white" stroke="black" stroke-width="7"/>
</mask>
<g mask="url(#mask0_47_15)">
<ellipse cx="509.605" cy="874.962" rx="76.3718" ry="80.7864" fill="#FFAAD3"/>
<ellipse cx="250.029" cy="863.484" rx="76.3718" ry="80.7864" fill="#FFAAD3"/>
</g>
<path d="M388.204 674.951C433.472 674.951 479.047 693.882 513.308 722.719C547.603 751.586 570.115 789.978 570.115 828.609C570.115 867.192 550.42 896.627 519.195 916.569C487.864 936.578 444.976 946.951 399.24 946.951C353.326 946.951 305.332 939.607 268.956 922.531C232.64 905.482 208.5 879.092 208.5 840.969C208.5 802.241 230.557 760.721 264.355 728.765C298.121 696.84 343.1 674.951 388.204 674.951Z" stroke="black" stroke-width="7"/>
<path d="M460.58 783.893C459.721 786.455 451.717 786.083 442.701 783.061C433.685 780.04 427.642 778.144 428.501 775.582C429.36 773.019 437.365 773.391 446.38 776.413C455.396 779.435 461.439 781.33 460.58 783.893Z" fill="black"/>
<path d="M461.276 780.64C460.418 783.202 452.413 782.83 443.397 779.808C434.381 776.787 428.338 774.891 429.197 772.329C430.056 769.766 438.061 770.138 447.077 773.16C456.092 776.182 462.135 778.077 461.276 780.64Z" fill="black"/>
<path d="M455.925 747.981C456.453 750.632 449.321 754.286 439.996 756.144C430.67 758.001 424.484 759.359 423.956 756.708C423.428 754.058 430.56 750.404 439.885 748.546C449.211 746.688 455.397 745.331 455.925 747.981Z" fill="black"/>
<path d="M356.134 755.434C355.019 757.896 347.094 756.713 338.431 752.792C329.769 748.871 323.95 746.371 325.064 743.909C326.179 741.447 334.104 742.63 342.767 746.551C351.429 750.473 357.248 752.972 356.134 755.434Z" fill="black"/>
<path d="M353.763 773.764C354.126 776.429 346.783 779.629 337.361 780.913C327.94 782.197 321.682 783.173 321.319 780.508C320.956 777.844 328.299 774.643 337.721 773.359C347.142 772.076 353.4 771.1 353.763 773.764Z" fill="black"/>
<path d="M352.88 770.232C353.243 772.897 345.9 776.098 336.479 777.381C327.057 778.665 320.799 779.641 320.436 776.977C320.073 774.312 327.417 771.111 336.838 769.828C346.26 768.544 352.517 767.568 352.88 770.232Z" fill="black"/>
<path d="M384.673 814.041C380.258 810.951 358.229 827.285 349.356 825.961C378.934 889.53 423.842 825.961 419.989 825.961C411.668 825.961 402.331 826.402 384.673 814.041Z" fill="#E59090"/>
<path d="M343.617 820.66C367.897 827.263 370.973 818.861 382.024 812.957C387.321 810.127 392.619 833.395 423.079 823.49" stroke="black" stroke-width="7" stroke-linecap="round"/>
<path d="M348.915 821.546C352.425 849.477 394.982 875.969 420.431 823.312" stroke="black" stroke-width="7"/>
<rect x="95.4573" y="373.761" width="143.606" height="45.9539" transform="rotate(8.53925 95.4573 373.761)" fill="#ACB8D1" stroke="black" stroke-width="5.74424"/>
<rect x="94.0332" y="402.59" width="137.862" height="14.3606" transform="rotate(8.53925 94.0332 402.59)" fill="#728BC0"/>
<rect x="86.5628" y="339.51" width="30.1572" height="119.193" rx="15.0786" transform="rotate(8.53925 86.5628 339.51)" fill="#728BC0"/>
<rect x="86.5628" y="339.51" width="30.1572" height="119.193" rx="15.0786" transform="rotate(8.53925 86.5628 339.51)" stroke="black" stroke-width="5.74424"/>
<rect x="86.5628" y="339.51" width="30.1572" height="119.193" rx="15.0786" transform="rotate(8.53925 86.5628 339.51)" stroke="black" stroke-width="5.74424"/>
<rect x="86.5628" y="339.51" width="30.1572" height="119.193" rx="15.0786" transform="rotate(8.53925 86.5628 339.51)" stroke="black" stroke-width="5.74424"/>
<rect x="40.0252" y="362.533" width="29.6785" height="61.2718" rx="14.8393" transform="rotate(8.53925 40.0252 362.533)" fill="#5675B5"/>
<rect x="40.0252" y="362.533" width="29.6785" height="61.2718" rx="14.8393" transform="rotate(8.53925 40.0252 362.533)" stroke="black" stroke-width="5.74424"/>
<rect x="40.0252" y="362.533" width="29.6785" height="61.2718" rx="14.8393" transform="rotate(8.53925 40.0252 362.533)" stroke="black" stroke-width="5.74424"/>
<rect x="40.0252" y="362.533" width="29.6785" height="61.2718" rx="14.8393" transform="rotate(8.53925 40.0252 362.533)" stroke="black" stroke-width="5.74424"/>
<rect x="54.49" y="346.795" width="30.1572" height="97.652" rx="15.0786" transform="rotate(8.53925 54.49 346.795)" fill="#ADB8D1"/>
<rect x="54.49" y="346.795" width="30.1572" height="97.652" rx="15.0786" transform="rotate(8.53925 54.49 346.795)" stroke="black" stroke-width="5.74424"/>
<rect x="54.49" y="346.795" width="30.1572" height="97.652" rx="15.0786" transform="rotate(8.53925 54.49 346.795)" stroke="black" stroke-width="5.74424"/>
<rect x="54.49" y="346.795" width="30.1572" height="97.652" rx="15.0786" transform="rotate(8.53925 54.49 346.795)" stroke="black" stroke-width="5.74424"/>
<rect x="3.26675" y="-2.41381" width="30.1572" height="119.193" rx="15.0786" transform="matrix(-0.988914 -0.148487 -0.148487 0.988914 269.32 369.392)" fill="#728BC0"/>
<rect x="3.26675" y="-2.41381" width="30.1572" height="119.193" rx="15.0786" transform="matrix(-0.988914 -0.148487 -0.148487 0.988914 269.32 369.392)" stroke="black" stroke-width="5.74424"/>
<rect x="3.26675" y="-2.41381" width="30.1572" height="119.193" rx="15.0786" transform="matrix(-0.988914 -0.148487 -0.148487 0.988914 269.32 369.392)" stroke="black" stroke-width="5.74424"/>
<rect x="3.26675" y="-2.41381" width="30.1572" height="119.193" rx="15.0786" transform="matrix(-0.988914 -0.148487 -0.148487 0.988914 269.32 369.392)" stroke="black" stroke-width="5.74424"/>
<rect x="3.26675" y="-2.41381" width="29.6785" height="61.2718" rx="14.8393" transform="matrix(-0.988914 -0.148487 -0.148487 0.988914 307.044 405.067)" fill="#5675B5"/>
<rect x="3.26675" y="-2.41381" width="29.6785" height="61.2718" rx="14.8393" transform="matrix(-0.988914 -0.148487 -0.148487 0.988914 307.044 405.067)" stroke="black" stroke-width="5.74424"/>
<rect x="3.26675" y="-2.41381" width="29.6785" height="61.2718" rx="14.8393" transform="matrix(-0.988914 -0.148487 -0.148487 0.988914 307.044 405.067)" stroke="black" stroke-width="5.74424"/>
<rect x="3.26675" y="-2.41381" width="29.6785" height="61.2718" rx="14.8393" transform="matrix(-0.988914 -0.148487 -0.148487 0.988914 307.044 405.067)" stroke="black" stroke-width="5.74424"/>
<rect x="3.26675" y="-2.41381" width="30.1572" height="97.652" rx="15.0786" transform="matrix(-0.988914 -0.148487 -0.148487 0.988914 297.839 385.775)" fill="#ADB8D1"/>
<rect x="3.26675" y="-2.41381" width="30.1572" height="97.652" rx="15.0786" transform="matrix(-0.988914 -0.148487 -0.148487 0.988914 297.839 385.775)" stroke="black" stroke-width="5.74424"/>
<rect x="3.26675" y="-2.41381" width="30.1572" height="97.652" rx="15.0786" transform="matrix(-0.988914 -0.148487 -0.148487 0.988914 297.839 385.775)" stroke="black" stroke-width="5.74424"/>
<rect x="3.26675" y="-2.41381" width="30.1572" height="97.652" rx="15.0786" transform="matrix(-0.988914 -0.148487 -0.148487 0.988914 297.839 385.775)" stroke="black" stroke-width="5.74424"/>
<path d="M584.109 346.89L586.835 328.898L524.136 326.172V344.437L519.774 367.335L511.869 381.783L516.23 386.418L535.04 392.415H577.566L596.103 381.783L592.832 375.786L586.835 360.248L584.109 346.89Z" fill="#FFEFC9" stroke="black" stroke-width="0.545208"/>
<path d="M636.449 237.303H627.726L626.363 219.584L592.015 192.869L546.762 177.603L476.431 232.669L472.887 234.305L468.798 238.666L463.618 249.025L468.798 265.381L477.521 278.739L493.332 283.918L500.42 295.368L507.507 308.18L521.683 323.991L539.129 332.987H565.572L589.289 322.628L604.009 303.819L615.459 285.554L620.365 283.918L626.363 280.102L633.45 274.923L639.175 266.472L642.992 258.839L643.809 248.753L641.356 242.21L636.449 237.303Z" fill="#FFEFC9"/>
<path d="M518.411 214.405L549.488 191.506L549.488 186.326L518.411 165.608L505.871 147.071L501.782 137.53L497.966 131.533L489.242 137.53L474.522 154.977L470.433 171.333L465.526 194.232L466.889 226.126L477.793 235.94L489.242 232.124L501.782 226.126L518.411 214.405Z" fill="white" stroke="black" stroke-width="0.545208"/>
<path fill-rule="evenodd" clip-rule="evenodd" d="M630.992 232.562C673.662 81.3964 499.415 106.734 499.87 130.335C499.88 130.901 499.992 131.465 500.208 132.026C500.316 132.303 500.446 132.756 500.622 133.365C502.562 140.1 510.03 166.017 552.755 186.737C555.073 187.861 557.495 188.97 560.025 190.06C611.167 212.084 621.389 222.65 629.224 230.748C629.822 231.366 630.405 231.969 630.992 232.562Z" fill="white"/>
<path d="M499.87 130.335C499.415 106.734 673.662 81.3964 630.992 232.562C630.405 231.969 629.822 231.366 629.224 230.748C621.389 222.65 611.167 212.084 560.025 190.06C557.495 188.97 555.073 187.861 552.755 186.737M499.87 130.335C499.88 130.901 499.992 131.465 500.208 132.026C500.316 132.303 500.446 132.756 500.622 133.365C502.562 140.1 510.03 166.017 552.755 186.737M499.87 130.335C461.432 142.875 458.415 227.702 475.335 234.47C475.977 234.727 476.707 234.879 477.516 234.934M552.755 186.737C533.035 205.088 492.178 235.933 477.516 234.934M477.516 234.934C479.261 217.205 495.69 196.342 503.686 188.127" stroke="black" stroke-width="5.45208" stroke-linecap="round"/>
<path d="M627.453 225.309C626.363 203.137 617.094 156.558 588.743 147.617" stroke="black" stroke-width="5.45208" stroke-linecap="round"/>
<path d="M623.636 222.855C622.909 206.681 607.171 172.969 550.033 167.517" stroke="black" stroke-width="5.45208" stroke-linecap="round"/>
<path d="M605.099 245.209C600.102 248.662 586.889 253.496 574.022 245.209" stroke="black" stroke-width="5.45208" stroke-linecap="round"/>
<path d="M589.561 250.661L589.288 258.021" stroke="black" stroke-width="5.45208" stroke-linecap="round"/>
<path d="M598.918 248.62L604.009 255.295" stroke="black" stroke-width="5.45208" stroke-linecap="round"/>
<path d="M579.915 250.388L575.113 256.386" stroke="black" stroke-width="5.45208" stroke-linecap="round"/>
<path d="M535.313 244.936C530.315 248.389 517.103 253.223 504.236 244.936" stroke="black" stroke-width="5.45208" stroke-linecap="round"/>
<path d="M519.774 250.388L519.502 257.749" stroke="black" stroke-width="5.45208" stroke-linecap="round"/>
<path d="M529.132 248.347L534.222 255.022" stroke="black" stroke-width="5.45208" stroke-linecap="round"/>
<path d="M510.128 250.116L505.326 256.113" stroke="black" stroke-width="5.45208" stroke-linecap="round"/>
<mask id="mask1_47_15" style="mask-type:alpha" maskUnits="userSpaceOnUse" x="463" y="177" width="181" height="156">
<path d="M636.449 237.303H627.726L626.363 219.584L592.015 192.869L546.762 177.603L476.431 232.669L472.887 234.305L468.798 238.666L463.618 249.025L468.798 265.381L477.521 278.739L493.332 283.918L500.42 295.368L507.507 308.18L521.683 323.991L539.129 332.987H565.572L589.289 322.628L604.009 303.819L615.459 285.554L620.365 283.918L626.363 280.102L633.45 274.923L639.175 266.472L642.992 258.839L643.809 248.753L641.356 242.21L636.449 237.303Z" fill="#FFEFC9"/>
</mask>
<g mask="url(#mask1_47_15)">
<circle cx="598.284" cy="299.73" r="25.3522" fill="#FFAAD3"/>
<circle cx="511.596" cy="299.73" r="25.3522" fill="#FFAAD3"/>
</g>
<path d="M523.045 349.343V330.261L526.044 327.262L543.763 334.078L563.118 333.26L585.472 328.353L584.381 349.889C584.381 349.889 565.758 354.916 553.577 354.795C541.466 354.676 523.045 349.343 523.045 349.343Z" fill="#D9D9D9"/>
<path d="M523.045 349.343V330.261L526.044 327.262L543.763 334.078L563.118 333.26L585.472 328.353L584.381 349.889C584.381 349.889 565.758 354.916 553.577 354.795C541.466 354.676 523.045 349.343 523.045 349.343Z" fill="#CB6900" fill-opacity="0.29"/>
<path d="M587.108 324.264C583.382 337.167 582.942 364.844 593.65 377.422C610.824 397.594 498.898 398.14 512.959 379.057C520.593 368.698 528.771 332.987 518.957 321.81" stroke="black" stroke-width="5.45208" stroke-linecap="round"/>
<path d="M489.515 268.38C512.959 361.611 602.918 352.069 620.092 264.291" stroke="black" stroke-width="5.45208" stroke-linecap="round"/>
<path d="M480.246 234.85C454.622 230.216 460.074 277.921 491.423 285.282" stroke="black" stroke-width="5.45208" stroke-linecap="round"/>
<path d="M627.181 235.439C652.805 230.804 647.353 278.51 616.004 285.87" stroke="black" stroke-width="5.45208" stroke-linecap="round"/>
<path d="M435.612 226.01C436.349 223.622 439.886 223.701 440.437 226.248L442.322 234.984C442.835 237.358 444.361 239.39 446.498 240.544L452.07 243.554C453.819 244.499 453.819 247.009 452.07 247.953L446.498 250.963C444.361 252.118 442.835 254.149 442.322 256.524L440.437 265.259C439.869 267.889 436.118 267.889 435.55 265.259L433.664 256.524C433.151 254.149 431.625 252.118 429.488 250.963L423.916 247.953C422.167 247.009 422.167 244.499 423.916 243.554L429.488 240.544C431.626 239.39 433.151 237.358 433.664 234.984L435.55 226.248L435.612 226.01Z" fill="#FFE07B" stroke="black" stroke-width="3"/>
<path d="M461.528 280.515C462.279 278.277 465.502 278.277 466.253 280.515L466.32 280.746L467.164 284.22C467.753 286.643 469.399 288.673 471.647 289.752L474.109 290.932C476.001 291.84 476.001 294.534 474.109 295.441L471.647 296.622C469.399 297.7 467.753 299.731 467.164 302.154L466.32 305.628C465.701 308.174 462.081 308.174 461.462 305.628L460.617 302.154C460.028 299.731 458.383 297.7 456.135 296.622L453.672 295.441C451.78 294.534 451.78 291.84 453.672 290.932L456.135 289.752C458.383 288.673 460.028 286.642 460.617 284.22L461.462 280.746L461.528 280.515Z" fill="#FFE07B" stroke="black" stroke-width="3"/>
<path d="M670.054 140.329C670.772 138.028 674.093 138.028 674.812 140.329L674.875 140.568L677.297 151.6C677.82 153.982 679.363 156.014 681.517 157.158L688.648 160.948C690.417 161.888 690.417 164.423 688.648 165.363L681.517 169.151C679.362 170.295 677.82 172.328 677.297 174.71L674.875 185.742C674.3 188.361 670.566 188.361 669.991 185.742L667.569 174.71C667.046 172.328 665.503 170.295 663.349 169.151L656.218 165.363C654.448 164.423 654.448 161.888 656.218 160.948L663.349 157.158C665.503 156.014 667.046 153.982 667.569 151.6L669.991 140.568L670.054 140.329Z" fill="#FFE07B" stroke="black" stroke-width="3"/>
<path d="M535.654 596.097C536.543 593.253 540.754 593.348 541.421 596.381L547.614 624.556C548.241 627.407 550.089 629.839 552.668 631.207L570.849 640.853C572.968 641.977 572.968 645.013 570.849 646.137L552.668 655.784C550.089 657.152 548.241 659.584 547.614 662.435L541.421 690.609C540.732 693.741 536.268 693.741 535.579 690.609L529.386 662.435C528.759 659.584 526.911 657.152 524.332 655.784L506.151 646.137C504.032 645.013 504.032 641.977 506.151 640.853L524.332 631.207C526.911 629.839 528.759 627.407 529.386 624.556L535.579 596.381L535.654 596.097Z" fill="#FFE07B" stroke="black" stroke-width="3.58929"/>
<path d="M608.638 747.687C609.462 744.868 613.538 744.868 614.362 747.687L614.434 747.979L617.954 765.622C618.511 768.412 620.235 770.829 622.69 772.264L633.138 778.369C635.113 779.523 635.113 782.378 633.138 783.533L622.69 789.637C620.235 791.072 618.511 793.49 617.954 796.279L614.434 813.922C613.793 817.13 609.207 817.13 608.566 813.922L605.046 796.279C604.489 793.49 602.765 791.072 600.31 789.637L589.862 783.533C587.887 782.378 587.887 779.523 589.862 778.369L600.31 772.264C602.765 770.829 604.489 768.412 605.046 765.622L608.566 747.979L608.638 747.687Z" fill="#FFE07B" stroke="black" stroke-width="3.58929"/>
<path d="M158.145 796.432C158.984 793.641 163.016 793.641 163.855 796.432L163.929 796.721L167.015 811.569C167.6 814.386 169.377 816.811 171.887 818.219L181.019 823.342C183.055 824.485 183.055 827.416 181.019 828.559L171.887 833.682C169.377 835.09 167.6 837.515 167.015 840.332L163.929 855.18C163.268 858.357 158.732 858.357 158.071 855.18L154.985 840.332C154.4 837.515 152.623 835.09 150.113 833.682L140.981 828.559C138.945 827.416 138.945 824.485 140.981 823.342L150.113 818.219C152.623 816.811 154.4 814.386 154.985 811.569L158.071 796.721L158.145 796.432Z" fill="#FFE07B" stroke="black" stroke-width="3.58929"/>
<path d="M125.819 134.294L92.4902 168.603C92.4902 168.603 112.83 182.572 130.475 184.777C148.12 186.983 173.361 183.062 173.361 183.062L125.819 134.294Z" fill="#6092D8"/>
<path d="M92 167.378L124.789 134.589C125.759 133.619 127.335 133.634 128.286 134.621L172.871 180.857" stroke="black" stroke-width="4.90126" stroke-linecap="round"/>
<path d="M144.198 121.551L130.965 137.235L146.159 152.919L162.333 168.603C171.645 163.947 176.547 154.88 184.144 144.832C191.74 134.785 189.78 75.2343 185.369 70.5781C180.958 65.9219 177.854 67.5557 176.792 67.1472C181.693 51.5449 190.711 16.7622 188.555 9.31233C185.859 -6.29425e-05 172.871 1.47032 172.381 6.8617C171.89 12.2531 157.677 54.1589 151.795 65.4318C147.09 74.4501 144.77 106.602 144.198 121.551Z" fill="#FFEFC9"/>
<path d="M176.792 67.1472C181.693 51.5449 190.711 16.7622 188.555 9.31233C185.859 -6.29992e-05 172.871 1.47032 172.38 6.8617C171.89 12.2531 157.677 54.1589 151.795 65.4318C147.09 74.4501 144.77 106.602 144.198 121.551L130.965 137.235L146.159 152.919L162.333 168.603C171.645 163.947 176.547 154.88 184.144 144.832C191.74 134.785 189.78 75.2343 185.369 70.5781C180.958 65.9219 177.854 67.5557 176.792 67.1472ZM176.792 67.1472C167.381 65.7749 168.133 95.4928 169.685 110.523" stroke="black" stroke-width="4.90126" stroke-linecap="round"/>
<path d="M146.895 152.674C157.285 157.379 178.018 139.931 187.085 130.619L180.958 149.733L162.088 169.339C152.694 161.823 136.504 147.969 146.895 152.674Z" fill="#DEAB7E"/>
<path d="M176.792 67.1472C181.693 51.5449 190.711 16.7622 188.555 9.31233C185.859 -6.29992e-05 172.871 1.47032 172.38 6.8617C171.89 12.2531 157.677 54.1589 151.795 65.4318C147.09 74.4501 144.77 106.602 144.198 121.551L130.965 137.235L146.159 152.919L162.333 168.603C171.645 163.947 176.547 154.88 184.144 144.832C191.74 134.785 189.78 75.2343 185.369 70.5781C180.958 65.9219 177.854 67.5557 176.792 67.1472ZM176.792 67.1472C167.381 65.7749 168.133 95.4928 169.685 110.523" stroke="black" stroke-width="4.90126" stroke-linecap="round"/>
<path d="M252.49 134.178L285.818 168.487C285.818 168.487 265.478 182.456 247.834 184.661C230.189 186.867 204.948 182.946 204.948 182.946L252.49 134.178Z" fill="#6092D8"/>
<path d="M286.309 167.262L253.519 134.472C252.55 133.503 250.974 133.517 250.022 134.504L205.438 180.74" stroke="black" stroke-width="4.90126" stroke-linecap="round"/>
<path d="M234.11 121.435L247.344 137.119L232.15 152.803L215.976 168.487C206.663 163.831 201.762 154.763 194.165 144.716C186.568 134.668 188.529 75.118 192.94 70.4618C197.351 65.8056 200.455 67.4393 201.517 67.0309C196.616 51.4285 187.597 16.6459 189.754 9.196C192.45 -0.116396 205.438 1.35398 205.928 6.74537C206.418 12.1368 220.632 54.0425 226.513 65.3154C231.219 74.3338 233.539 106.486 234.11 121.435Z" fill="#FFEFC9"/>
<path d="M201.517 67.0309C196.616 51.4285 187.597 16.6459 189.754 9.196C192.45 -0.116396 205.438 1.35398 205.928 6.74537C206.418 12.1368 220.632 54.0425 226.513 65.3154C231.219 74.3338 233.539 106.486 234.11 121.435L247.344 137.119L232.15 152.803L215.976 168.487C206.663 163.831 201.762 154.763 194.165 144.716C186.568 134.668 188.529 75.118 192.94 70.4618C197.351 65.8056 200.455 67.4393 201.517 67.0309ZM201.517 67.0309C210.927 65.6585 210.176 95.3765 208.624 110.407" stroke="black" stroke-width="4.90126" stroke-linecap="round"/>
<path d="M231.414 152.558C221.023 157.263 200.291 139.815 191.224 130.502L197.351 149.617L216.22 169.222C225.614 161.707 241.805 147.853 231.414 152.558Z" fill="#DEAB7E"/>
<path d="M201.517 67.0309C196.616 51.4285 187.597 16.6459 189.754 9.196C192.45 -0.116396 205.438 1.35398 205.928 6.74537C206.418 12.1368 220.632 54.0425 226.513 65.3154C231.219 74.3338 233.539 106.486 234.11 121.435L247.344 137.119L232.15 152.803L215.976 168.487C206.663 163.831 201.762 154.763 194.165 144.716C186.568 134.668 188.529 75.118 192.94 70.4618C197.351 65.8056 200.455 67.4393 201.517 67.0309ZM201.517 67.0309C210.927 65.6585 210.176 95.3765 208.624 110.407" stroke="black" stroke-width="4.90126" stroke-linecap="round"/>
<path d="M25 293.951C37.6267 293.951 47.5 303.321 47.5 314.451C47.5 325.58 37.6267 334.951 25 334.951C12.3733 334.951 2.5 325.58 2.5 314.451C2.5 303.321 12.3733 293.951 25 293.951Z" fill="#95F37A" stroke="black" stroke-width="5"/>
<path d="M752 254.951C762.395 254.951 770.5 262.733 770.5 271.951C770.5 281.168 762.395 288.951 752 288.951C741.605 288.951 733.5 281.168 733.5 271.951C733.5 262.733 741.605 254.951 752 254.951Z" fill="#95F37A" stroke="black" stroke-width="5"/>
</svg>
