<svg width="593" height="349" viewBox="0 0 593 349" fill="none" xmlns="http://www.w3.org/2000/svg">
<path d="M274.5 36.5001C325.895 36.5001 377.617 57.9899 416.493 90.712C455.404 123.464 481 167.066 481 211C481 254.885 458.587 288.36 423.113 311.016C387.532 333.739 338.863 345.5 287 345.5C234.959 345.5 180.524 337.177 139.24 317.797C98.0168 298.445 70.5001 268.426 70.5001 225C70.5001 180.969 95.5676 133.829 133.908 97.5782C172.216 61.3586 223.269 36.5001 274.5 36.5001Z" fill="white" stroke="black" stroke-width="7"/>
<mask id="mask0_63_300" style="mask-type:alpha" maskUnits="userSpaceOnUse" x="67" y="33" width="418" height="316">
<path d="M274.5 36.5001C325.895 36.5001 377.617 57.9899 416.493 90.712C455.404 123.464 481 167.066 481 211C481 254.885 458.587 288.36 423.113 311.016C387.532 333.739 338.863 345.5 287 345.5C234.959 345.5 180.524 337.177 139.24 317.797C98.0168 298.445 70.5001 268.426 70.5001 225C70.5001 180.969 95.5676 133.829 133.908 97.5782C172.216 61.3586 223.269 36.5001 274.5 36.5001Z" fill="white" stroke="black" stroke-width="7"/>
</mask>
<g mask="url(#mask0_63_300)">
<ellipse cx="412" cy="263.5" rx="86.5" ry="91.5" fill="#FFAAD3"/>
<ellipse cx="118" cy="250.5" rx="86.5" ry="91.5" fill="#FFAAD3"/>
</g>
<path d="M274.5 36.5001C325.895 36.5001 377.617 57.9899 416.493 90.712C455.404 123.464 481 167.066 481 211C481 254.885 458.587 288.36 423.113 311.016C387.532 333.739 338.863 345.5 287 345.5C234.959 345.5 180.524 337.177 139.24 317.797C98.0168 298.445 70.5001 268.426 70.5001 225C70.5001 180.969 95.5676 133.829 133.908 97.5782C172.216 61.3586 223.269 36.5001 274.5 36.5001Z" stroke="black" stroke-width="7"/>
<path d="M275.523 181.692C270.52 177.745 245.558 198.607 235.503 196.916C269.02 278.106 319.908 196.916 315.543 196.916C306.114 196.915 295.533 197.479 275.523 181.692Z" fill="#E59090"/>
<path d="M229 190.145C256.514 198.579 259.998 187.848 272.522 180.308C278.524 176.693 284.527 206.41 319.044 193.76" stroke="black" stroke-width="7.00345" stroke-linecap="round"/>
<path d="M235.003 191.276C238.981 226.95 287.205 260.786 316.043 193.532" stroke="black" stroke-width="7.00345"/>
<path d="M356.474 160.354C355.502 163.256 346.435 162.835 336.224 159.412C326.013 155.99 319.168 153.843 320.141 150.941C321.114 148.038 330.18 148.46 340.391 151.882C350.603 155.305 357.447 157.452 356.474 160.354Z" fill="black"/>
<path d="M358.263 155.669C357.29 158.572 348.224 158.15 338.012 154.728C327.801 151.305 320.956 149.158 321.929 146.256C322.902 143.354 331.968 143.775 342.18 147.198C352.391 150.62 359.235 152.767 358.263 155.669Z" fill="black"/>
<path d="M359.263 151.669C358.29 154.572 349.224 154.15 339.012 150.728C328.801 147.305 321.956 145.158 322.929 142.256C323.902 139.354 332.968 139.775 343.18 143.198C353.391 146.62 360.235 148.767 359.263 151.669Z" fill="black"/>
<path d="M235.491 148.882C235.903 151.9 227.585 155.525 216.914 156.979C206.244 158.433 199.156 159.538 198.745 156.52C198.334 153.502 206.651 149.877 217.322 148.423C227.993 146.969 235.08 145.864 235.491 148.882Z" fill="black"/>
<path d="M234.491 144.882C234.903 147.9 226.585 151.525 215.914 152.979C205.244 154.433 198.156 155.538 197.745 152.52C197.334 149.502 205.651 145.877 216.322 144.423C226.993 142.969 234.08 141.864 234.491 144.882Z" fill="black"/>
<path d="M233.491 140.882C233.903 143.9 225.585 147.525 214.914 148.979C204.243 150.433 197.156 151.538 196.745 148.52C196.333 145.502 204.651 141.877 215.322 140.423C225.993 138.969 233.08 137.864 233.491 140.882Z" fill="black"/>
<circle cx="211" cy="148" r="3" fill="white"/>
<circle cx="211" cy="148" r="3" fill="white"/>
<circle cx="211" cy="148" r="3" fill="white"/>
<circle cx="221" cy="151" r="2" fill="white"/>
<circle cx="221" cy="151" r="2" fill="white"/>
<circle cx="221" cy="151" r="2" fill="white"/>
<circle cx="335.598" cy="148.598" r="3" transform="rotate(13.0052 335.598 148.598)" fill="white"/>
<circle cx="335.598" cy="148.598" r="3" transform="rotate(13.0052 335.598 148.598)" fill="white"/>
<circle cx="335.598" cy="148.598" r="3" transform="rotate(13.0052 335.598 148.598)" fill="white"/>
<circle cx="344.667" cy="153.772" r="2" transform="rotate(13.0052 344.667 153.772)" fill="white"/>
<circle cx="344.667" cy="153.772" r="2" transform="rotate(13.0052 344.667 153.772)" fill="white"/>
<circle cx="344.667" cy="153.772" r="2" transform="rotate(13.0052 344.667 153.772)" fill="white"/>
<path d="M66.3313 5.31616C66.6067 4.06339 68.393 4.06339 68.6684 5.31616L74.8614 33.4906C75.6012 36.8563 77.7822 39.7271 80.8264 41.3421L99.0077 50.9877C99.8553 51.4374 99.8553 52.6519 99.0077 53.1015L80.8264 62.7472C77.7822 64.3622 75.6012 67.233 74.8614 70.5987L68.6684 98.7731C68.393 100.026 66.6067 100.026 66.3313 98.7731L60.1384 70.5987C59.3986 67.233 57.2176 64.3622 54.1734 62.7472L35.9921 53.1015C35.1444 52.6519 35.1444 51.4374 35.9921 50.9877L54.1734 41.3421C57.2176 39.7271 59.3986 36.8563 60.1384 33.4906L66.3313 5.31616Z" fill="#FFE07B"/>
<path d="M22.836 120.9C23.1273 119.674 24.8727 119.674 25.164 120.9L28.8298 136.331C29.6401 139.742 31.9322 142.613 35.0794 144.158L45.8121 149.426C46.7044 149.864 46.7044 151.136 45.8121 151.574L35.0794 156.843C31.9322 158.388 29.6401 161.258 28.8298 164.669L25.164 180.1C24.8727 181.327 23.1273 181.327 22.836 180.1L19.1702 164.669C18.3599 161.258 16.0678 158.388 12.9206 156.843L2.18788 151.574C1.2956 151.136 1.2956 149.864 2.18788 149.426L12.9206 144.158C16.0678 142.613 18.3599 139.742 19.1702 136.331L22.836 120.9Z" fill="#FFE07B"/>
<path d="M557.839 126.649C558.141 125.44 559.859 125.44 560.161 126.649L566.3 151.236C567.157 154.669 569.517 157.533 572.723 159.03L590.679 167.416C591.599 167.846 591.599 169.154 590.679 169.584L572.723 177.97C569.517 179.467 567.157 182.331 566.3 185.764L560.161 210.351C559.859 211.56 558.141 211.56 557.839 210.351L551.7 185.764C550.843 182.331 548.483 179.467 545.277 177.97L527.321 169.584C526.401 169.154 526.401 167.846 527.321 167.416L545.277 159.03C548.483 157.533 550.843 154.669 551.7 151.236L557.839 126.649Z" fill="#FFE07B"/>
<path d="M524.325 230.039C524.576 228.749 526.423 228.749 526.674 230.039L529.719 245.699C530.355 248.968 532.35 251.814 535.206 253.527L544.289 258.974C545.064 259.438 545.064 260.561 544.289 261.026L535.206 266.473C532.35 268.186 530.355 271.031 529.719 274.301L526.674 289.96C526.423 291.251 524.576 291.251 524.325 289.96L521.28 274.301C520.645 271.031 518.65 268.186 515.793 266.473L506.711 261.026C505.936 260.561 505.936 259.438 506.711 258.974L515.793 253.527C518.65 251.814 520.645 248.968 521.28 245.699L524.325 230.039Z" fill="#FFE07B"/>
</svg>
