<svg width="418" height="354" viewBox="0 0 418 354" fill="none" xmlns="http://www.w3.org/2000/svg">
<path d="M207.5 41.5C258.895 41.5 310.617 62.9899 349.493 95.7119C388.404 128.464 414 172.066 414 216C414 259.885 391.587 293.36 356.113 316.016C320.532 338.739 271.863 350.5 220 350.5C167.959 350.5 113.524 342.177 72.2402 322.797C31.0167 303.444 3.5 273.425 3.5 230C3.5 185.969 28.5675 138.829 66.9082 102.578C105.216 66.3585 156.269 41.5 207.5 41.5Z" fill="white" stroke="black" stroke-width="7"/>
<mask id="mask0_63_390" style="mask-type:alpha" maskUnits="userSpaceOnUse" x="0" y="38" width="418" height="316">
<mask id="path-2-inside-1_63_390" fill="white">
<path d="M417.5 216C417.5 306.575 324.658 354 220 354C115.342 354 0 320.575 0 230C0 139.425 102.842 38 207.5 38C312.158 38 417.5 125.425 417.5 216Z"/>
</mask>
<path d="M417.5 216C417.5 306.575 324.658 354 220 354C115.342 354 0 320.575 0 230C0 139.425 102.842 38 207.5 38C312.158 38 417.5 125.425 417.5 216Z" fill="white"/>
<path d="M421 216C418.667 216 416.333 216 414 216C414.086 234.824 409.746 253.556 400.761 269.999C365.837 331.19 287.897 350.574 220 351.008C134.868 349.968 7.61251 332.073 2.4645 230C7.84336 127.893 106.284 42.4948 207.5 39.8817C287.738 40.621 367.64 88.1153 403.214 160.644C411.289 177.945 416.17 196.891 416.188 216C417.062 216 417.938 216 418.812 216C418.869 196.455 413.949 177.092 405.794 159.448C369.804 85.5501 289.352 37.2685 207.5 36.1183C103.922 38.7462 3.91028 124.015 -2.4645 230C-4.35361 280.095 38.8083 317.867 81.8923 333.75C125.877 350.978 173.244 356.707 220 356.992C288.994 356.64 369.028 338.069 406.715 273.246C416.335 255.812 421.024 235.839 421 216ZM414 216H421H418.812H416.188H414Z" fill="black" mask="url(#path-2-inside-1_63_390)"/>
</mask>
<g mask="url(#mask0_63_390)">
<ellipse cx="345" cy="268.5" rx="86.5" ry="91.5" fill="#FFE2F0"/>
<ellipse cx="51" cy="255.5" rx="86.5" ry="91.5" fill="#FFE2F0"/>
</g>
<path d="M207.5 41.5C258.895 41.5 310.617 62.9899 349.493 95.7119C388.404 128.464 414 172.066 414 216C414 259.885 391.587 293.36 356.113 316.016C320.532 338.739 271.863 350.5 220 350.5C167.959 350.5 113.524 342.177 72.2402 322.797C31.0167 303.444 3.5 273.425 3.5 230C3.5 185.969 28.5675 138.829 66.9082 102.578C105.216 66.3585 156.269 41.5 207.5 41.5Z" stroke="black" stroke-width="7"/>
<path d="M290.254 183.815C288.528 188.966 278.851 190.366 268.64 186.944C258.429 183.522 251.55 181.477 253.276 176.327C255.002 171.177 264.679 169.776 274.891 173.198C285.102 176.621 291.981 178.665 290.254 183.815Z" fill="black"/>
<path d="M171.799 172.454C172.532 177.836 164.476 183.378 153.805 184.832C143.134 186.286 136.061 187.499 135.328 182.117C134.595 176.735 142.651 171.193 153.322 169.739C163.993 168.285 171.066 167.072 171.799 172.454Z" fill="black"/>
<path d="M260 114C264.333 119 275.3 127.1 288.5 129.5" stroke="black" stroke-width="7" stroke-linecap="round"/>
<path d="M137 125.553C143.616 125.547 156.917 122.554 167.369 114.141" stroke="black" stroke-width="7" stroke-linecap="round"/>
<path d="M343.17 259.929C341.17 271.929 357.17 275.429 357.17 259.929" stroke="black" stroke-width="7" stroke-linecap="round"/>
<path d="M319 240.5C317 252.5 333 256 333 240.5" stroke="black" stroke-width="7" stroke-linecap="round"/>
<path d="M60.1701 207.929C58.1702 219.929 74.1702 223.429 74.1703 207.929" stroke="black" stroke-width="7" stroke-linecap="round"/>
<path d="M183.5 222C195.167 218.333 216.1 211 240.5 225" stroke="black" stroke-width="7" stroke-linecap="round"/>
<path d="M366.259 26.9146C366.183 29.43 365.824 31.9525 365.17 34.4628C364.544 36.8575 363.785 39.2621 362.917 41.6578C362.318 43.3125 362.328 44.8618 362.916 46.4193C363.829 48.832 364.525 51.2727 364.96 53.7279C365.45 56.4934 365.232 59.2854 364.37 62.0307C364.054 63.0388 363.961 63.6966 363.957 64.064L363.958 64.0874L364.691 64.8562L365.45 65.671L365.498 66.8888C365.559 68.5418 364.271 69.939 362.617 70.0036C361.595 70.0435 360.725 69.5225 360.153 68.7629L359.272 67.8356L359.224 67.7906L359.198 67.7447C358.195 66.5811 357.937 65.1677 357.949 63.9937C357.962 62.8083 358.241 61.532 358.647 60.237C359.236 58.3621 359.357 56.5464 359.044 54.7799C358.677 52.7111 358.108 50.6373 357.323 48.5611C356.212 45.6255 356.204 42.5965 357.279 39.6263C358.087 37.3954 358.786 35.1674 359.364 32.9539C359.91 30.8625 360.209 28.7946 360.271 26.7497C360.328 24.8668 360.019 22.9705 359.322 21.0637C358.358 18.4289 357.974 15.7279 358.186 12.9925C358.328 11.1519 358.012 8.122 357.073 3.72418L357.016 3.46839L357.002 3.1171C356.938 1.46151 358.227 0.0669576 359.883 0.00228614C361.4 -0.0569912 362.633 1.03318 362.888 2.48843L362.934 2.46318C363.9 6.98451 364.374 10.726 364.162 13.4627C364.02 15.2981 364.262 17.1335 364.94 18.9912C365.887 21.58 366.338 24.2323 366.259 26.9146Z" fill="#4740CF"/>
<path d="M383.259 26.9146C383.183 29.43 382.824 31.9525 382.17 34.4628C381.544 36.8575 380.785 39.2621 379.917 41.6578C379.318 43.3125 379.328 44.8618 379.916 46.4193C380.829 48.832 381.525 51.2727 381.96 53.7279C382.45 56.4934 382.232 59.2854 381.37 62.0307C381.054 63.0388 380.961 63.6966 380.957 64.064L380.958 64.0874L381.691 64.8562L382.45 65.671L382.498 66.8888C382.559 68.5418 381.271 69.939 379.617 70.0036C378.595 70.0435 377.725 69.5225 377.153 68.7629L376.272 67.8356L376.224 67.7906L376.198 67.7447C375.195 66.5811 374.937 65.1677 374.949 63.9937C374.962 62.8083 375.241 61.532 375.647 60.237C376.236 58.3621 376.357 56.5464 376.044 54.7799C375.677 52.7111 375.108 50.6373 374.323 48.5611C373.212 45.6255 373.204 42.5965 374.279 39.6263C375.087 37.3954 375.786 35.1674 376.364 32.9539C376.91 30.8625 377.209 28.7946 377.271 26.7497C377.328 24.8668 377.019 22.9705 376.322 21.0637C375.358 18.4289 374.974 15.7279 375.186 12.9925C375.328 11.1519 375.012 8.122 374.073 3.72418L374.016 3.46839L374.002 3.1171C373.938 1.46151 375.227 0.0669576 376.883 0.00228614C378.4 -0.0569912 379.633 1.03318 379.888 2.48843L379.934 2.46318C380.9 6.98451 381.374 10.726 381.162 13.4627C381.02 15.2981 381.262 17.1335 381.94 18.9912C382.887 21.58 383.338 24.2323 383.259 26.9146Z" fill="#4740CF"/>
<path d="M400.259 26.9146C400.183 29.43 399.824 31.9525 399.17 34.4628C398.544 36.8575 397.785 39.2621 396.917 41.6578C396.318 43.3125 396.328 44.8618 396.916 46.4193C397.829 48.832 398.525 51.2727 398.96 53.7279C399.45 56.4934 399.232 59.2854 398.37 62.0307C398.054 63.0388 397.961 63.6966 397.957 64.064L397.958 64.0874L398.691 64.8562L399.45 65.671L399.498 66.8888C399.559 68.5418 398.271 69.939 396.617 70.0036C395.595 70.0435 394.725 69.5225 394.153 68.7629L393.272 67.8356L393.224 67.7906L393.198 67.7447C392.195 66.5811 391.937 65.1677 391.949 63.9937C391.962 62.8083 392.241 61.532 392.647 60.237C393.236 58.3621 393.357 56.5464 393.044 54.7799C392.677 52.7111 392.108 50.6373 391.323 48.5611C390.212 45.6255 390.204 42.5965 391.279 39.6263C392.087 37.3954 392.786 35.1674 393.364 32.9539C393.91 30.8625 394.209 28.7946 394.271 26.7497C394.328 24.8668 394.019 22.9705 393.322 21.0637C392.358 18.4289 391.974 15.7279 392.186 12.9925C392.328 11.1519 392.012 8.122 391.073 3.72418L391.016 3.46839L391.002 3.1171C390.938 1.46151 392.227 0.0669576 393.883 0.00228614C395.4 -0.0569912 396.633 1.03318 396.888 2.48843L396.934 2.46318C397.9 6.98451 398.374 10.726 398.162 13.4627C398.02 15.2981 398.262 17.1335 398.94 18.9912C399.887 21.58 400.338 24.2323 400.259 26.9146Z" fill="#4740CF"/>
<path d="M417.259 26.9146C417.183 29.43 416.824 31.9525 416.17 34.4628C415.544 36.8575 414.785 39.2621 413.917 41.6578C413.318 43.3125 413.328 44.8618 413.916 46.4193C414.829 48.832 415.525 51.2727 415.96 53.7279C416.45 56.4934 416.232 59.2854 415.37 62.0307C415.054 63.0388 414.961 63.6966 414.957 64.064L414.958 64.0874L415.691 64.8562L416.45 65.671L416.498 66.8888C416.559 68.5418 415.271 69.939 413.617 70.0036C412.595 70.0435 411.725 69.5225 411.153 68.7629L410.272 67.8356L410.224 67.7906L410.198 67.7447C409.195 66.5811 408.937 65.1677 408.949 63.9937C408.962 62.8083 409.241 61.532 409.647 60.237C410.236 58.3621 410.357 56.5464 410.044 54.7799C409.677 52.7111 409.108 50.6373 408.323 48.5611C407.212 45.6255 407.204 42.5965 408.279 39.6263C409.087 37.3954 409.786 35.1674 410.364 32.9539C410.91 30.8625 411.209 28.7946 411.271 26.7497C411.328 24.8668 411.019 22.9705 410.322 21.0637C409.358 18.4289 408.974 15.7279 409.186 12.9925C409.328 11.1519 409.012 8.122 408.073 3.72418L408.016 3.46839L408.002 3.1171C407.938 1.46151 409.227 0.0669576 410.883 0.00228614C412.4 -0.0569912 413.633 1.03318 413.888 2.48843L413.934 2.46318C414.9 6.98451 415.374 10.726 415.162 13.4627C415.02 15.2981 415.262 17.1335 415.94 18.9912C416.887 21.58 417.338 24.2323 417.259 26.9146Z" fill="#4740CF"/>
</svg>
