<svg width="553" height="375" viewBox="0 0 553 375" fill="none" xmlns="http://www.w3.org/2000/svg">
<path d="M243.5 62.5C294.895 62.5 346.617 83.9899 385.493 116.712C424.404 149.464 450 193.066 450 237C450 280.885 427.587 314.36 392.113 337.016C356.532 359.739 307.863 371.5 256 371.5C203.959 371.5 149.524 363.177 108.24 343.797C67.0167 324.444 39.5 294.425 39.5 251C39.5 206.969 64.5675 159.829 102.908 123.578C141.216 87.3585 192.269 62.5 243.5 62.5Z" fill="white" stroke="black" stroke-width="7"/>
<mask id="mask0_63_328" style="mask-type:alpha" maskUnits="userSpaceOnUse" x="36" y="59" width="418" height="316">
<mask id="path-2-inside-1_63_328" fill="white">
<path d="M453.5 237C453.5 327.575 360.658 375 256 375C151.342 375 36 341.575 36 251C36 160.425 138.842 59 243.5 59C348.158 59 453.5 146.425 453.5 237Z"/>
</mask>
<path d="M453.5 237C453.5 327.575 360.658 375 256 375C151.342 375 36 341.575 36 251C36 160.425 138.842 59 243.5 59C348.158 59 453.5 146.425 453.5 237Z" fill="white"/>
<path d="M457 237C454.667 237 452.333 237 450 237C450.086 255.824 445.746 274.556 436.761 290.999C401.837 352.19 323.897 371.574 256 372.008C170.868 370.968 43.6125 353.073 38.4645 251C43.8434 148.893 142.284 63.4948 243.5 60.8817C323.738 61.621 403.64 109.115 439.214 181.644C447.289 198.945 452.17 217.891 452.188 237C453.062 237 453.938 237 454.812 237C454.869 217.455 449.949 198.092 441.794 180.448C405.804 106.55 325.352 58.2685 243.5 57.1183C139.922 59.7462 39.9103 145.015 33.5355 251C31.6464 301.095 74.8083 338.867 117.892 354.75C161.877 371.978 209.244 377.707 256 377.992C324.994 377.64 405.028 359.069 442.715 294.246C452.335 276.812 457.024 256.839 457 237ZM450 237H457H454.812H452.188H450Z" fill="black" mask="url(#path-2-inside-1_63_328)"/>
</mask>
<g mask="url(#mask0_63_328)">
<ellipse cx="381" cy="289.5" rx="86.5" ry="91.5" fill="#FFAAD3"/>
<ellipse cx="87" cy="276.5" rx="86.5" ry="91.5" fill="#FFAAD3"/>
</g>
<path d="M243.5 62.5C294.895 62.5 346.617 83.9899 385.493 116.712C424.404 149.464 450 193.066 450 237C450 280.885 427.587 314.36 392.113 337.016C356.532 359.739 307.863 371.5 256 371.5C203.959 371.5 149.524 363.177 108.24 343.797C67.0167 324.444 39.5 294.425 39.5 251C39.5 206.969 64.5675 159.829 102.908 123.578C141.216 87.3585 192.269 62.5 243.5 62.5Z" stroke="black" stroke-width="7"/>
<path d="M324.755 188.5C323.029 193.65 313.351 195.051 303.14 191.629C292.929 188.206 286.05 186.162 287.776 181.012C289.502 175.861 299.179 174.461 309.391 177.883C319.602 181.305 326.481 183.35 324.755 188.5Z" fill="black"/>
<path d="M206.299 177.139C207.032 182.521 198.976 188.063 188.305 189.517C177.634 190.971 170.561 192.184 169.828 186.802C169.095 181.42 177.151 175.878 187.822 174.424C198.493 172.97 205.566 171.757 206.299 177.139Z" fill="black"/>
<path d="M246.356 224.213C241.909 221.383 219.719 236.341 210.781 235.128C240.575 293.34 285.812 235.128 281.932 235.128C273.55 235.128 264.144 235.532 246.356 224.213Z" fill="#E59090"/>
<path d="M205 230.274C229.458 236.32 232.556 228.627 243.688 223.22C249.024 220.629 254.361 241.935 285.044 232.865" stroke="black" stroke-width="7.00345" stroke-linecap="round"/>
<path d="M210.336 231.085C213.872 256.662 256.74 280.922 282.376 232.702" stroke="black" stroke-width="7.00345"/>
<circle cx="36" cy="86" r="36" fill="#92E8F5"/>
<circle cx="33" cy="83" r="28" fill="white"/>
<circle cx="501.669" cy="157.669" r="36" transform="rotate(50.593 501.669 157.669)" fill="#92E8F5"/>
<circle cx="502.083" cy="153.447" r="28" transform="rotate(50.593 502.083 153.447)" fill="white"/>
<circle cx="100.81" cy="28.8102" r="22.5" transform="rotate(70.1203 100.81 28.8102)" fill="#92E8F5"/>
<circle cx="101.936" cy="26.4094" r="17.5" transform="rotate(70.1203 101.936 26.4094)" fill="white"/>
<circle cx="491.81" cy="241.81" r="22.5" transform="rotate(70.1203 491.81 241.81)" fill="#92E8F5"/>
<circle cx="492.936" cy="239.409" r="17.5" transform="rotate(70.1203 492.936 239.409)" fill="white"/>
</svg>
