<svg width="519" height="481" viewBox="0 0 519 481" fill="none" xmlns="http://www.w3.org/2000/svg">
<path d="M207.5 168.407C258.895 168.407 310.617 189.896 349.493 222.618C388.404 255.37 414 298.973 414 342.907C414 386.792 391.587 420.267 356.113 442.922C320.532 465.646 271.863 477.407 220 477.407C167.959 477.407 113.524 469.084 72.2402 449.703C31.0167 430.351 3.5 400.332 3.5 356.907C3.5 312.876 28.5675 265.735 66.9082 229.485C105.216 193.265 156.269 168.407 207.5 168.407Z" fill="white" stroke="black" stroke-width="7"/>
<mask id="mask0_63_447" style="mask-type:alpha" maskUnits="userSpaceOnUse" x="0" y="164" width="418" height="317">
<mask id="path-2-inside-1_63_447" fill="white">
<path d="M417.5 342.907C417.5 433.481 324.658 480.907 220 480.907C115.342 480.907 0 447.481 0 356.907C0 266.332 102.842 164.907 207.5 164.907C312.158 164.907 417.5 252.332 417.5 342.907Z"/>
</mask>
<path d="M417.5 342.907C417.5 433.481 324.658 480.907 220 480.907C115.342 480.907 0 447.481 0 356.907C0 266.332 102.842 164.907 207.5 164.907C312.158 164.907 417.5 252.332 417.5 342.907Z" fill="white"/>
<path d="M421 342.907C418.667 342.907 416.333 342.907 414 342.907C414.086 361.731 409.746 380.463 400.761 396.906C365.837 458.097 287.897 477.481 220 477.914C134.868 476.875 7.61251 458.98 2.4645 356.907C7.84336 254.799 106.284 169.401 207.5 166.788C287.738 167.528 367.64 215.022 403.214 287.55C411.289 304.851 416.17 323.798 416.188 342.907C417.062 342.907 417.938 342.907 418.812 342.907C418.869 323.361 413.949 303.998 405.794 286.355C369.804 212.457 289.352 164.175 207.5 163.025C103.922 165.653 3.91028 250.922 -2.4645 356.907C-4.35361 407.002 38.8083 444.774 81.8923 460.656C125.877 477.885 173.244 483.613 220 483.899C288.994 483.546 369.028 464.975 406.715 400.152C416.335 382.719 421.024 362.746 421 342.907ZM414 342.907H421H418.812H416.188H414Z" fill="black" mask="url(#path-2-inside-1_63_447)"/>
</mask>
<g mask="url(#mask0_63_447)">
<ellipse cx="345" cy="395.407" rx="86.5" ry="91.5" fill="#FFE2F0"/>
<ellipse cx="51" cy="382.407" rx="86.5" ry="91.5" fill="#FFE2F0"/>
</g>
<path d="M207.5 168.407C258.895 168.407 310.617 189.896 349.493 222.618C388.404 255.37 414 298.973 414 342.907C414 386.792 391.587 420.267 356.113 442.922C320.532 465.646 271.863 477.407 220 477.407C167.959 477.407 113.524 469.084 72.2402 449.703C31.0167 430.351 3.5 400.332 3.5 356.907C3.5 312.876 28.5675 265.735 66.9082 229.485C105.216 193.265 156.269 168.407 207.5 168.407Z" stroke="black" stroke-width="7"/>
<line x1="285.191" y1="277.687" x2="258.972" y2="303.907" stroke="black" stroke-width="5.61702" stroke-linecap="round"/>
<line x1="284.028" y1="303.952" x2="257.152" y2="277.687" stroke="black" stroke-width="5.61702" stroke-linecap="round"/>
<line x1="165.191" y1="277.878" x2="138.972" y2="304.098" stroke="black" stroke-width="5.61702" stroke-linecap="round"/>
<line x1="164.028" y1="304.144" x2="137.152" y2="277.878" stroke="black" stroke-width="5.61702" stroke-linecap="round"/>
<mask id="path-11-outside-2_63_447" maskUnits="userSpaceOnUse" x="166.312" y="321.407" width="78" height="58" fill="black">
<rect fill="white" x="166.312" y="321.407" width="78" height="58"/>
<path d="M202 326.407C209.738 326.407 244.753 328.45 237.741 352.48C236.658 356.193 233.713 358.74 230.152 359.998C229.765 360.135 229.5 360.496 229.5 360.907C229.5 368.086 228.642 373.906 224.5 373.907C220.617 373.907 219.62 368.791 219.511 362.236C219.505 361.5 218.907 360.907 218.171 360.907H185.044C180.379 360.906 175.883 358.445 174.217 354.088C164.606 328.96 194.102 326.407 202 326.407Z"/>
</mask>
<path d="M202 326.407C209.738 326.407 244.753 328.45 237.741 352.48C236.658 356.193 233.713 358.74 230.152 359.998C229.765 360.135 229.5 360.496 229.5 360.907C229.5 368.086 228.642 373.906 224.5 373.907C220.617 373.907 219.62 368.791 219.511 362.236C219.505 361.5 218.907 360.907 218.171 360.907H185.044C180.379 360.906 175.883 358.445 174.217 354.088C164.606 328.96 194.102 326.407 202 326.407Z" fill="#E59090"/>
<path d="M202 326.407L202 321.407L202 321.407L202 326.407ZM237.741 352.48L242.541 353.88L242.541 353.88L237.741 352.48ZM224.5 373.907L224.5 378.907L224.5 378.907L224.5 373.907ZM219.511 362.236L214.511 362.276L214.511 362.298L214.511 362.319L219.511 362.236ZM185.044 360.907L185.044 365.907H185.044V360.907ZM174.217 354.088L169.547 355.874L169.547 355.874L174.217 354.088ZM230.152 359.998L228.486 355.284L230.152 359.998ZM202 326.407V331.407C205.68 331.407 215.604 331.919 223.555 335.078C227.517 336.652 230.437 338.67 232.063 341.071C233.532 343.241 234.337 346.295 232.941 351.079L237.741 352.48L242.541 353.88C244.651 346.65 243.709 340.436 240.343 335.465C237.134 330.725 232.132 327.726 227.248 325.785C217.511 321.916 206.059 321.407 202 321.407V326.407ZM237.741 352.48L232.941 351.079C232.409 352.902 230.905 354.429 228.486 355.284L230.152 359.998L231.818 364.713C236.522 363.051 240.906 359.483 242.541 353.88L237.741 352.48ZM229.5 360.907H224.5C224.5 364.456 224.268 367.043 223.779 368.613C223.543 369.37 223.371 369.471 223.507 369.336C223.778 369.066 224.213 368.907 224.5 368.907L224.5 373.907L224.5 378.907C226.858 378.907 228.953 378.019 230.551 376.434C232.012 374.983 232.831 373.18 233.327 371.585C234.303 368.45 234.5 364.536 234.5 360.907H229.5ZM224.5 373.907V368.907C224.749 368.907 225.163 369.034 225.458 369.302C225.639 369.467 225.513 369.449 225.3 368.85C224.844 367.573 224.563 365.358 224.51 362.152L219.511 362.236L214.511 362.319C214.567 365.669 214.839 369.289 215.881 372.209C216.415 373.708 217.274 375.379 218.737 376.707C220.315 378.139 222.309 378.907 224.5 378.907V373.907ZM218.171 360.907V355.907H185.044V360.907V365.907H218.171V360.907ZM185.044 360.907L185.044 355.907C181.96 355.906 179.652 354.302 178.887 352.302L174.217 354.088L169.547 355.874C172.115 362.588 178.797 365.906 185.044 365.907L185.044 360.907ZM174.217 354.088L178.887 352.302C176.8 346.847 177.092 343.334 178.023 341.048C178.976 338.71 180.95 336.791 183.877 335.246C189.932 332.05 198.274 331.407 202 331.407L202 326.407L202 321.407C197.829 321.407 187.473 322.04 179.209 326.403C174.975 328.637 170.884 332.068 168.762 337.275C166.619 342.536 166.828 348.765 169.547 355.874L174.217 354.088ZM219.511 362.236L224.51 362.195C224.482 358.714 221.652 355.907 218.171 355.907V360.907V365.907C216.161 365.907 214.527 364.286 214.511 362.276L219.511 362.236ZM230.152 359.998L228.486 355.284C226.18 356.099 224.5 358.294 224.5 360.907H229.5H234.5C234.5 362.698 233.349 364.172 231.818 364.713L230.152 359.998Z" fill="black" mask="url(#path-11-outside-2_63_447)"/>
<mask id="path-13-outside-3_63_447" maskUnits="userSpaceOnUse" x="362" y="53.9066" width="157" height="170" fill="black">
<rect fill="white" x="362" y="53.9066" width="157" height="170"/>
<path d="M430 68.0567C468.428 43.883 519.445 85.8818 511.211 121.402C506.903 139.984 500.524 155.457 491.082 165.992C476.162 192.965 409.381 225.38 373.441 216C368.456 214.699 367.47 209.159 371.494 206.391C390.098 193.593 426.438 179.005 427.24 138.972C425.319 131.625 422.905 124.17 418.984 117.391C404.748 95.1906 408.375 81.6601 430 68.0567Z"/>
</mask>
<path d="M430 68.0567C468.428 43.883 519.445 85.8818 511.211 121.402C506.903 139.984 500.524 155.457 491.082 165.992C476.162 192.965 409.381 225.38 373.441 216C368.456 214.699 367.47 209.159 371.494 206.391C390.098 193.593 426.438 179.005 427.24 138.972C425.319 131.625 422.905 124.17 418.984 117.391C404.748 95.1906 408.375 81.6601 430 68.0567Z" fill="white"/>
<path d="M430 68.0567L426.805 62.9781L426.805 62.9781L430 68.0567ZM511.211 121.402L517.056 122.757L517.056 122.757L511.211 121.402ZM491.082 165.992L486.614 161.988L486.16 162.494L485.832 163.088L491.082 165.992ZM373.441 216L371.926 221.806L371.926 221.806L373.441 216ZM371.494 206.391L368.093 201.447L368.093 201.447L371.494 206.391ZM427.24 138.972L433.239 139.092L433.255 138.259L433.045 137.454L427.24 138.972ZM418.984 117.391L424.178 114.387L424.109 114.268L424.035 114.152L418.984 117.391ZM430 68.0567L433.195 73.1354C449.75 62.7212 469.415 66.266 484.594 77.211C499.995 88.3159 508.737 105.503 505.366 120.047L511.211 121.402L517.056 122.757C521.919 101.781 509.269 80.2086 491.613 67.4774C473.735 54.5862 448.678 49.2185 426.805 62.9781L430 68.0567ZM511.211 121.402L505.366 120.047C501.153 138.219 495.074 152.549 486.614 161.988L491.082 165.992L495.55 169.997C505.974 158.366 512.653 141.749 517.056 122.757L511.211 121.402ZM491.082 165.992L485.832 163.088C482.688 168.771 476.473 175.249 467.862 181.703C459.343 188.087 448.869 194.157 437.696 199.15C414.997 209.295 390.899 214.355 374.956 210.195L373.441 216L371.926 221.806C391.923 227.025 419.185 220.567 442.592 210.106C454.472 204.797 465.737 198.292 475.058 191.305C484.288 184.388 492.016 176.7 496.332 168.896L491.082 165.992ZM373.441 216L374.956 210.195C374.684 210.124 374.669 210.053 374.753 210.14C374.833 210.221 374.936 210.379 374.98 210.605C375.023 210.831 374.994 211.054 374.92 211.228C374.842 211.41 374.769 211.421 374.894 211.334L371.494 206.391L368.093 201.447C364.227 204.107 362.353 208.519 363.198 212.886C364.043 217.247 367.402 220.625 371.926 221.806L373.441 216ZM371.494 206.391L374.894 211.334C379.428 208.215 384.787 205.155 391.133 201.167C397.27 197.311 403.909 192.829 410.033 187.375C422.408 176.355 432.795 161.23 433.239 139.092L427.24 138.972L421.241 138.852C420.883 156.747 412.699 168.933 402.052 178.414C396.666 183.211 390.682 187.278 384.748 191.007C379.022 194.605 372.862 198.167 368.093 201.447L371.494 206.391ZM427.24 138.972L433.045 137.454C431.076 129.924 428.5 121.86 424.178 114.387L418.984 117.391L413.79 120.395C417.31 126.481 419.562 133.326 421.435 140.49L427.24 138.972ZM418.984 117.391L424.035 114.152C417.213 103.514 415.612 96.3379 416.888 90.8611C418.171 85.3505 422.799 79.6749 433.195 73.1354L430 68.0567L426.805 62.9781C415.576 70.0418 407.578 77.9332 405.201 88.1387C402.815 98.378 406.519 109.068 413.933 120.63L418.984 117.391Z" fill="black" mask="url(#path-13-outside-3_63_447)"/>
<path d="M448.406 92.3096C449.107 93.341 451.333 93.0507 453.378 91.6613C455.423 90.2718 456.817 89.3935 456.116 88.3621C455.415 87.3307 453.189 87.621 451.144 89.0104C449.099 90.3999 447.706 91.2782 448.406 92.3096Z" fill="black"/>
<path d="M473.885 82.4553C474.057 83.6904 476.181 84.4159 478.629 84.0758C481.078 83.7357 482.717 83.5653 482.545 82.3303C482.374 81.0952 480.25 80.3697 477.801 80.7098C475.352 81.0499 473.713 81.2202 473.885 82.4553Z" fill="black"/>
<path d="M480.26 93.032C478.026 100.096 473.025 98.7505 470.133 97.3049C470.021 97.2492 469.887 97.2898 469.826 97.3988C468.471 99.8459 465.107 105.367 458.86 100.889" stroke="black" stroke-width="3" stroke-linecap="round"/>
<circle cx="501.5" cy="101.407" r="14.5" fill="#FFAAD3"/>
<circle cx="443.5" cy="116.407" r="14.5" fill="#FFAAD3"/>
<mask id="path-20-outside-4_63_447" maskUnits="userSpaceOnUse" x="362" y="53.9066" width="157" height="170" fill="black">
<rect fill="white" x="362" y="53.9066" width="157" height="170"/>
<path d="M430 68.0567C468.428 43.883 519.445 85.8818 511.211 121.402C506.903 139.984 500.524 155.457 491.082 165.992C476.162 192.965 409.381 225.38 373.441 216C368.456 214.699 367.47 209.159 371.494 206.391C390.098 193.593 426.438 179.005 427.24 138.972C425.319 131.625 422.905 124.17 418.984 117.391C404.748 95.1906 408.375 81.6601 430 68.0567Z"/>
</mask>
<path d="M430 68.0567L426.805 62.9781L426.805 62.9781L430 68.0567ZM511.211 121.402L517.056 122.757L517.056 122.757L511.211 121.402ZM491.082 165.992L486.614 161.988L486.16 162.494L485.832 163.088L491.082 165.992ZM373.441 216L371.926 221.806L371.926 221.806L373.441 216ZM371.494 206.391L368.093 201.447L368.093 201.447L371.494 206.391ZM427.24 138.972L433.239 139.092L433.255 138.259L433.045 137.454L427.24 138.972ZM418.984 117.391L424.178 114.387L424.109 114.268L424.035 114.152L418.984 117.391ZM430 68.0567L433.195 73.1354C449.75 62.7212 469.415 66.266 484.594 77.211C499.995 88.3159 508.737 105.503 505.366 120.047L511.211 121.402L517.056 122.757C521.919 101.781 509.269 80.2086 491.613 67.4774C473.735 54.5862 448.678 49.2185 426.805 62.9781L430 68.0567ZM511.211 121.402L505.366 120.047C501.153 138.219 495.074 152.549 486.614 161.988L491.082 165.992L495.55 169.997C505.974 158.366 512.653 141.749 517.056 122.757L511.211 121.402ZM491.082 165.992L485.832 163.088C482.688 168.771 476.473 175.249 467.862 181.703C459.343 188.087 448.869 194.157 437.696 199.15C414.997 209.295 390.899 214.355 374.956 210.195L373.441 216L371.926 221.806C391.923 227.025 419.185 220.567 442.592 210.106C454.472 204.797 465.737 198.292 475.058 191.305C484.288 184.388 492.016 176.7 496.332 168.896L491.082 165.992ZM373.441 216L374.956 210.195C374.684 210.124 374.669 210.053 374.753 210.14C374.833 210.221 374.936 210.379 374.98 210.605C375.023 210.831 374.994 211.054 374.92 211.228C374.842 211.41 374.769 211.421 374.894 211.334L371.494 206.391L368.093 201.447C364.227 204.107 362.353 208.519 363.198 212.886C364.043 217.247 367.402 220.625 371.926 221.806L373.441 216ZM371.494 206.391L374.894 211.334C379.428 208.215 384.787 205.155 391.133 201.167C397.27 197.311 403.909 192.829 410.033 187.375C422.408 176.355 432.795 161.23 433.239 139.092L427.24 138.972L421.241 138.852C420.883 156.747 412.699 168.933 402.052 178.414C396.666 183.211 390.682 187.278 384.748 191.007C379.022 194.605 372.862 198.167 368.093 201.447L371.494 206.391ZM427.24 138.972L433.045 137.454C431.076 129.924 428.5 121.86 424.178 114.387L418.984 117.391L413.79 120.395C417.31 126.481 419.562 133.326 421.435 140.49L427.24 138.972ZM418.984 117.391L424.035 114.152C417.213 103.514 415.612 96.3379 416.888 90.8611C418.171 85.3505 422.799 79.6749 433.195 73.1354L430 68.0567L426.805 62.9781C415.576 70.0418 407.578 77.9332 405.201 88.1387C402.815 98.378 406.519 109.068 413.933 120.63L418.984 117.391Z" fill="black" mask="url(#path-20-outside-4_63_447)"/>
<mask id="path-22-outside-5_63_447" maskUnits="userSpaceOnUse" x="350.861" y="-5.46249" width="107.277" height="90.7381" fill="black">
<rect fill="white" x="350.861" y="-5.46249" width="107.277" height="90.7381"/>
<path d="M394.02 21.7085C414.839 9.71922 436.408 8.14755 442.196 18.1981C447.984 28.2486 435.799 46.1154 414.98 58.1047C394.161 70.0939 372.592 71.6656 366.804 61.6151C361.016 51.5646 373.201 33.6978 394.02 21.7085ZM397.513 27.7745C381.48 37.0076 371.611 49.9243 375.47 56.6246C379.328 63.325 395.454 61.2718 411.487 52.0386C427.52 42.8055 437.389 29.8889 433.53 23.1885C429.672 16.4882 413.546 18.5414 397.513 27.7745Z"/>
</mask>
<path d="M394.02 21.7085C414.839 9.71922 436.408 8.14755 442.196 18.1981C447.984 28.2486 435.799 46.1154 414.98 58.1047C394.161 70.0939 372.592 71.6656 366.804 61.6151C361.016 51.5646 373.201 33.6978 394.02 21.7085ZM397.513 27.7745C381.48 37.0076 371.611 49.9243 375.47 56.6246C379.328 63.325 395.454 61.2718 411.487 52.0386C427.52 42.8055 437.389 29.8889 433.53 23.1885C429.672 16.4882 413.546 18.5414 397.513 27.7745Z" fill="#FFE07B"/>
<path d="M394.02 21.7085L396.016 25.1748C406.021 19.4134 416.039 16.2604 424.035 15.6778C432.343 15.0725 437.036 17.2534 438.73 20.1943L442.196 18.1981L445.662 16.2019C441.568 9.0922 432.583 7.03374 423.454 7.69894C414.014 8.38681 402.838 12.0143 392.024 18.2422L394.02 21.7085ZM442.196 18.1981L438.73 20.1943C440.423 23.1351 439.954 28.2892 435.261 35.1706C430.744 41.7941 422.988 48.8769 412.984 54.6384L414.98 58.1047L416.976 61.571C427.791 55.3431 436.537 47.4979 441.87 39.6781C447.027 32.1161 449.757 23.3116 445.662 16.2019L442.196 18.1981ZM414.98 58.1047L412.984 54.6384C402.979 60.3998 392.961 63.5527 384.965 64.1354C376.657 64.7407 371.964 62.5597 370.27 59.6189L366.804 61.6151L363.338 63.6113C367.432 70.721 376.417 72.7794 385.546 72.1142C394.986 71.4263 406.162 67.7988 416.976 61.571L414.98 58.1047ZM366.804 61.6151L370.27 59.6189C368.577 56.6781 369.046 51.5239 373.739 44.6426C378.256 38.019 386.012 30.9362 396.016 25.1748L394.02 21.7085L392.024 18.2422C381.209 24.47 372.463 32.3153 367.13 40.1351C361.973 47.6971 359.243 56.5016 363.338 63.6113L366.804 61.6151ZM397.513 27.7745L395.517 24.3082C387.156 29.1231 380.236 34.9856 375.854 40.7208C373.668 43.581 371.989 46.5729 371.175 49.5258C370.356 52.4982 370.346 55.742 372.003 58.6208L375.47 56.6246L378.936 54.6284C378.665 54.1571 378.441 53.2737 378.888 51.6512C379.34 50.0092 380.407 47.9385 382.211 45.5779C385.807 40.8714 391.837 35.659 399.51 31.2408L397.513 27.7745ZM375.47 56.6246L372.003 58.6208C373.661 61.4996 376.472 63.1185 379.454 63.9019C382.417 64.6801 385.847 64.7293 389.418 64.2746C396.578 63.363 405.122 60.3198 413.483 55.5049L411.487 52.0386L409.49 48.5723C401.818 52.9906 394.283 55.5906 388.408 56.3387C385.46 56.714 383.134 56.5972 381.487 56.1644C379.859 55.7368 379.207 55.0998 378.936 54.6284L375.47 56.6246ZM411.487 52.0386L413.483 55.5049C421.844 50.69 428.764 44.8275 433.146 39.0923C435.332 36.2321 437.011 33.2403 437.825 30.2874C438.644 27.315 438.654 24.0712 436.997 21.1924L433.53 23.1885L430.064 25.1847C430.335 25.6561 430.559 26.5395 430.112 28.1619C429.66 29.8039 428.593 31.8746 426.789 34.2353C423.193 38.9417 417.163 44.1541 409.49 48.5723L411.487 52.0386ZM433.53 23.1885L436.997 21.1924C435.339 18.3135 432.528 16.6946 429.546 15.9112C426.583 15.133 423.153 15.0839 419.582 15.5385C412.422 16.4502 403.878 19.4933 395.517 24.3082L397.513 27.7745L399.51 31.2408C407.182 26.8226 414.717 24.2226 420.592 23.4744C423.539 23.0992 425.866 23.216 427.513 23.6487C429.141 24.0763 429.792 24.7134 430.064 25.1847L433.53 23.1885Z" fill="black" mask="url(#path-22-outside-5_63_447)"/>
</svg>
