<svg width="418" height="316" viewBox="0 0 418 316" fill="none" xmlns="http://www.w3.org/2000/svg">
<path d="M207.5 3.5C258.895 3.5 310.617 24.9899 349.493 57.7119C388.404 90.4637 414 134.066 414 178C414 221.885 391.587 255.36 356.113 278.016C320.532 300.739 271.863 312.5 220 312.5C167.959 312.5 113.524 304.177 72.2402 284.797C31.0167 265.444 3.5 235.426 3.5 192C3.5 147.969 28.5675 100.829 66.9082 64.5781C105.216 28.3585 156.269 3.5 207.5 3.5Z" fill="white" stroke="black" stroke-width="7"/>
<mask id="mask0_45_17" style="mask-type:alpha" maskUnits="userSpaceOnUse" x="0" y="0" width="418" height="316">
<mask id="path-2-inside-1_45_17" fill="white">
<path d="M417.5 178C417.5 268.575 324.658 316 220 316C115.342 316 0 282.575 0 192C0 101.425 102.842 0 207.5 0C312.158 0 417.5 87.4253 417.5 178Z"/>
</mask>
<path d="M417.5 178C417.5 268.575 324.658 316 220 316C115.342 316 0 282.575 0 192C0 101.425 102.842 0 207.5 0C312.158 0 417.5 87.4253 417.5 178Z" fill="white"/>
<path d="M421 178C418.667 178 416.333 178 414 178C414.086 196.824 409.746 215.556 400.761 231.999C365.837 293.19 287.897 312.574 220 313.008C134.868 311.968 7.61251 294.073 2.4645 192C7.84336 89.8929 106.284 4.49483 207.5 1.8817C287.738 2.62101 367.64 50.1153 403.214 122.644C411.289 139.945 416.17 158.891 416.188 178C417.062 178 417.938 178 418.812 178C418.869 158.455 413.949 139.092 405.794 121.448C369.804 47.5501 289.352 -0.731457 207.5 -1.8817C103.923 0.746216 3.91028 86.0151 -2.4645 192C-4.35361 242.095 38.8083 279.867 81.8923 295.75C125.877 312.978 173.244 318.707 220 318.992C288.994 318.64 369.028 300.069 406.715 235.246C416.335 217.812 421.024 197.839 421 178ZM414 178H421H418.812H416.188H414Z" fill="black" mask="url(#path-2-inside-1_45_17)"/>
</mask>
<g mask="url(#mask0_45_17)">
<ellipse cx="345" cy="230.5" rx="86.5" ry="91.5" fill="#FFAAD3"/>
<ellipse cx="51" cy="217.5" rx="86.5" ry="91.5" fill="#FFAAD3"/>
</g>
<path d="M207.5 3.5C258.895 3.5 310.617 24.9899 349.493 57.7119C388.404 90.4637 414 134.066 414 178C414 221.885 391.587 255.36 356.113 278.016C320.532 300.739 271.863 312.5 220 312.5C167.959 312.5 113.524 304.177 72.2402 284.797C31.0167 265.444 3.5 235.426 3.5 192C3.5 147.969 28.5675 100.829 66.9082 64.5781C105.216 28.3585 156.269 3.5 207.5 3.5Z" stroke="black" stroke-width="7"/>
<path d="M288.755 129.5C287.029 134.65 277.351 136.051 267.14 132.629C256.929 129.206 250.05 127.162 251.776 122.011C253.502 116.861 263.179 115.46 273.391 118.883C283.602 122.305 290.481 124.35 288.755 129.5Z" fill="black"/>
<path d="M170.299 118.139C171.032 123.521 162.976 129.063 152.305 130.517C141.634 131.97 134.561 133.184 133.828 127.802C133.095 122.419 141.151 116.878 151.822 115.424C162.493 113.97 169.566 112.757 170.299 118.139Z" fill="black"/>
<path d="M152.5 174C170.181 200.998 189.574 189.474 200.005 180.008C200.407 179.643 201.018 179.656 201.4 180.042C209.963 188.711 230.57 207.911 251.5 181.782" stroke="black" stroke-width="7" stroke-linecap="round"/>
</svg>
