<svg width="418" height="591" viewBox="0 0 418 591" fill="none" xmlns="http://www.w3.org/2000/svg">
<path d="M207.5 3.5C258.895 3.5 310.617 24.9899 349.493 57.7119C388.404 90.4637 414 134.066 414 178C414 221.885 391.587 255.36 356.113 278.016C320.532 300.739 271.863 312.5 220 312.5C167.959 312.5 113.524 304.177 72.2402 284.797C31.0167 265.444 3.5 235.426 3.5 192C3.5 147.969 28.5675 100.829 66.9082 64.5781C105.216 28.3585 156.269 3.5 207.5 3.5Z" fill="white" stroke="black" stroke-width="7"/>
<mask id="mask0_47_13" style="mask-type:alpha" maskUnits="userSpaceOnUse" x="0" y="0" width="418" height="316">
<mask id="path-2-inside-1_47_13" fill="white">
<path d="M417.5 178C417.5 268.575 324.658 316 220 316C115.342 316 0 282.575 0 192C0 101.425 102.842 0 207.5 0C312.158 0 417.5 87.4253 417.5 178Z"/>
</mask>
<path d="M417.5 178C417.5 268.575 324.658 316 220 316C115.342 316 0 282.575 0 192C0 101.425 102.842 0 207.5 0C312.158 0 417.5 87.4253 417.5 178Z" fill="white"/>
<path d="M421 178C418.667 178 416.333 178 414 178C414.086 196.824 409.746 215.556 400.761 231.999C365.837 293.19 287.897 312.574 220 313.008C134.868 311.968 7.61251 294.073 2.4645 192C7.84336 89.8929 106.284 4.49483 207.5 1.8817C287.738 2.62101 367.64 50.1153 403.214 122.644C411.289 139.945 416.17 158.891 416.188 178C417.062 178 417.938 178 418.812 178C418.869 158.455 413.949 139.092 405.794 121.448C369.804 47.5501 289.352 -0.731457 207.5 -1.8817C103.923 0.746216 3.91028 86.0151 -2.4645 192C-4.35361 242.095 38.8083 279.867 81.8923 295.75C125.877 312.978 173.244 318.707 220 318.992C288.994 318.64 369.028 300.069 406.715 235.246C416.335 217.812 421.024 197.839 421 178ZM414 178H421H418.812H416.188H414Z" fill="black" mask="url(#path-2-inside-1_47_13)"/>
</mask>
<g mask="url(#mask0_47_13)">
<ellipse cx="345" cy="230.5" rx="86.5" ry="91.5" fill="#FFAAD3"/>
<ellipse cx="51" cy="217.5" rx="86.5" ry="91.5" fill="#FFAAD3"/>
</g>
<path d="M207.5 3.5C258.895 3.5 310.617 24.9899 349.493 57.7119C388.404 90.4637 414 134.066 414 178C414 221.885 391.587 255.36 356.113 278.016C320.532 300.739 271.863 312.5 220 312.5C167.959 312.5 113.524 304.177 72.2402 284.797C31.0167 265.444 3.5 235.426 3.5 192C3.5 147.969 28.5675 100.829 66.9082 64.5781C105.216 28.3585 156.269 3.5 207.5 3.5Z" stroke="black" stroke-width="7"/>
<path d="M288.755 129.5C287.029 134.65 277.351 136.051 267.14 132.629C256.929 129.206 250.05 127.162 251.776 122.011C253.502 116.861 263.179 115.46 273.391 118.883C283.602 122.305 290.481 124.35 288.755 129.5Z" fill="black"/>
<path d="M170.299 118.139C171.032 123.521 162.976 129.063 152.305 130.517C141.634 131.97 134.561 133.184 133.828 127.802C133.095 122.419 141.151 116.878 151.822 115.424C162.493 113.97 169.566 112.757 170.299 118.139Z" fill="black"/>
<path d="M152.5 174C170.181 200.998 189.574 189.474 200.005 180.008C200.407 179.643 201.018 179.656 201.4 180.042C209.963 188.711 230.57 207.911 251.5 181.782" stroke="black" stroke-width="7" stroke-linecap="round"/>
<path d="M57.1389 516.222C56.6623 518.366 55.8284 520.451 53.2671 520.451C50.527 520.451 49.7527 518.069 49.5144 515.805C49.0974 512.35 49.0974 508.836 48.9783 505.381C48.9187 501.45 48.8592 497.518 48.8592 493.587C48.9187 491.443 50.5866 490.192 52.2544 490.192C54.4584 490.192 55.4114 491.919 55.4114 493.885C55.4114 495.672 55.471 497.518 55.471 499.365C57.0197 496.446 60.3554 491.919 63.6911 490.787C64.2272 490.549 64.7633 490.43 65.359 490.43C66.9673 490.43 68.3373 491.383 69.1712 492.753C70.1838 494.719 70.3625 497.042 70.6604 499.246C73.043 495.612 77.3317 491.919 81.9183 491.919C86.9219 491.919 88.1132 495.91 88.5897 500.199C89.0067 505.202 88.7089 510.206 89.1258 515.15C89.1258 515.269 89.1854 515.388 89.245 515.507C89.5428 516.282 89.4237 517.294 89.0067 518.069C88.6493 518.783 87.8749 519.379 87.1006 519.677C86.5049 519.856 85.8497 519.796 85.254 519.677C83.2288 519.26 82.6331 516.996 82.5736 515.269C82.2162 510.325 82.514 505.381 81.9779 500.437C81.9183 499.782 81.7992 499.127 81.6801 498.531C78.1657 499.008 75.9022 502.998 74.5321 505.917C73.4004 508.538 72.6856 511.219 71.8517 513.959C71.3156 515.924 70.4817 518.009 68.0394 518.009C66.6099 518.009 65.1803 517.116 64.7633 515.507C64.6442 514.793 64.5846 514.137 64.525 513.422C64.4059 508.479 64.6442 503.475 63.9294 498.531C61.8446 500.794 60.5341 503.654 59.5215 506.513C58.3897 509.67 57.7941 513.006 57.1389 516.222ZM122.214 502.343C121.797 511.099 114.649 520.928 105.297 520.928C101.187 520.928 97.5535 518.605 95.5878 515.031C94.2774 512.648 93.8008 509.729 94.0391 506.989C94.3965 502.998 96.0643 499.008 98.6257 495.97C101.783 492.157 105.774 490.668 110.539 490.43C111.373 490.37 112.207 490.37 113.1 490.49C113.696 490.609 114.232 491.026 114.709 491.443C114.828 491.502 114.887 491.621 115.006 491.681C117.449 492.336 119.831 493.825 121.023 496.089C122.035 497.935 122.333 500.199 122.214 502.343ZM102.319 513.184C103.212 514.078 104.225 514.435 105.357 514.435C110.42 514.435 114.411 508.538 115.364 504.13C115.781 502.403 116.079 499.424 114.589 498.531C113.398 497.876 112.028 497.757 110.837 497.28C110.718 497.221 110.479 496.982 110.36 496.982C107.263 497.221 104.999 498.174 103.093 500.854C100.591 504.309 99.2809 510.146 102.319 513.184ZM154.498 502.343C154.081 511.099 146.933 520.928 137.581 520.928C133.471 520.928 129.838 518.605 127.872 515.031C126.562 512.648 126.085 509.729 126.323 506.989C126.681 502.998 128.349 499.008 130.91 495.97C134.067 492.157 138.058 490.668 142.823 490.43C143.657 490.37 144.491 490.37 145.385 490.49C145.98 490.609 146.516 491.026 146.993 491.443C147.112 491.502 147.172 491.621 147.291 491.681C149.733 492.336 152.116 493.825 153.307 496.089C154.319 497.935 154.617 500.199 154.498 502.343ZM134.603 513.184C135.497 514.078 136.509 514.435 137.641 514.435C142.704 514.435 146.695 508.538 147.648 504.13C148.065 502.403 148.363 499.424 146.874 498.531C145.682 497.876 144.312 497.757 143.121 497.28C143.002 497.221 142.764 496.982 142.645 496.982C139.547 497.221 137.284 498.174 135.377 500.854C132.876 504.309 131.565 510.146 134.603 513.184ZM188.808 519.796C188.689 521.881 186.961 523.132 185.293 523.132C182.196 523.132 181.302 519.617 180.826 517.235C180.111 514.435 179.754 511.516 179.456 508.657C177.431 513.422 173.618 520.511 167.543 520.511C164.088 520.511 160.871 518.069 159.62 514.495C158.906 512.231 158.786 509.849 158.965 507.525C159.561 500.794 162.897 492.515 170.044 490.549C170.759 490.43 171.474 490.311 172.189 490.311C174.274 490.311 175.882 490.907 177.609 492.098C178.622 488.107 179.575 484.056 180.588 480.006C181.005 478.219 182.494 477.325 183.923 477.325C185.413 477.325 186.842 478.279 187.08 480.185C187.14 480.363 187.08 481.078 187.08 481.197C186.306 487.154 185.889 493.11 185.77 499.127C185.651 505.143 185.829 511.278 187.557 517.056C187.557 517.175 187.914 517.413 187.974 517.533C188.45 518.188 188.808 519.022 188.808 519.796ZM165.696 511.814C165.875 512.767 166.53 514.018 167.483 514.018C168.198 513.959 168.794 513.422 169.27 512.946C172.725 509.372 174.452 503.594 175.763 498.948C174.988 498.471 174.333 497.816 173.559 497.28C173.142 496.982 172.725 496.863 172.248 496.863C171.891 496.863 171.534 496.923 171.176 497.101C167.364 498.531 165.756 504.964 165.517 508.479C165.398 509.61 165.458 510.742 165.696 511.814ZM238.601 519.796C238.482 521.881 236.755 523.132 235.087 523.132C231.989 523.132 231.096 519.617 230.619 517.235C229.905 514.435 229.547 511.516 229.249 508.657C227.224 513.422 223.412 520.511 217.336 520.511C213.881 520.511 210.665 518.069 209.414 514.495C208.699 512.231 208.58 509.849 208.759 507.525C209.354 500.794 212.69 492.515 219.838 490.549C220.553 490.43 221.268 490.311 221.982 490.311C224.067 490.311 225.675 490.907 227.403 492.098C228.415 488.107 229.369 484.056 230.381 480.006C230.798 478.219 232.287 477.325 233.717 477.325C235.206 477.325 236.636 478.279 236.874 480.185C236.933 480.363 236.874 481.078 236.874 481.197C236.099 487.154 235.683 493.11 235.563 499.127C235.444 505.143 235.623 511.278 237.35 517.056C237.35 517.175 237.708 517.413 237.767 517.533C238.244 518.188 238.601 519.022 238.601 519.796ZM215.49 511.814C215.668 512.767 216.324 514.018 217.277 514.018C217.991 513.959 218.587 513.422 219.064 512.946C222.518 509.372 224.246 503.594 225.556 498.948C224.782 498.471 224.127 497.816 223.352 497.28C222.935 496.982 222.518 496.863 222.042 496.863C221.685 496.863 221.327 496.923 220.97 497.101C217.157 498.531 215.549 504.964 215.311 508.479C215.192 509.61 215.251 510.742 215.49 511.814ZM249.736 486.499C249.081 487.035 248.307 487.273 247.592 487.273C245.924 487.273 244.435 486.141 244.256 484.295C244.197 483.163 244.792 482.031 245.507 481.138C245.984 480.482 247.175 480.006 247.949 480.006C249.319 480.006 250.57 481.078 251.106 482.448C251.523 483.699 250.749 485.724 249.736 486.499ZM252.179 519.439C251.94 521.345 250.392 522.357 248.783 522.357C245.448 522.357 244.971 518.605 244.733 516.043C244.256 510.325 244.673 504.607 245.031 498.888C245.09 498.233 245.209 497.578 245.567 497.042C246.222 495.91 247.354 495.374 248.426 495.374C249.915 495.374 251.285 496.327 251.643 497.995C251.762 498.471 251.583 499.067 251.583 499.603C251.226 504.666 250.868 509.789 251.226 514.912C251.285 515.567 251.345 516.163 251.404 516.758C251.464 516.877 251.583 516.937 251.643 517.056C252.059 517.771 252.298 518.605 252.179 519.439ZM276.983 517.056C274.422 520.451 270.252 523.668 265.844 523.668C262.926 523.668 260.9 522.119 259.59 519.439C258.279 516.877 257.982 513.482 259.113 510.802C261.436 505.024 269.001 501.628 274.839 501.152C273.409 499.424 271.801 498.233 269.478 498.233C267.691 498.233 265.785 498.829 264.236 499.722C264.117 499.782 264.057 500.199 263.998 500.318C263.64 500.854 263.283 501.331 262.747 501.688C262.151 502.045 261.496 502.105 260.841 502.105C260.662 502.105 260.543 502.105 260.364 502.105C257.863 501.926 256.433 499.365 257.505 497.161C259.173 493.706 266.142 491.74 269.537 491.74C275.971 491.74 280.736 496.565 282.999 502.343C284.965 507.347 285.144 512.946 283.535 518.128C283.238 519.141 283.059 520.153 282.463 521.047C281.987 521.821 280.736 522.357 279.842 522.357C278.234 522.357 276.805 521.107 276.626 519.439C276.507 518.605 276.745 517.83 276.983 517.056ZM265.725 517.056C265.844 517.116 265.964 517.116 266.023 517.056C269.954 516.699 273.648 510.861 275.256 507.704C272.039 508.062 267.453 509.789 265.547 512.529C264.713 513.839 264.832 515.805 265.725 517.056ZM297.665 519.796C297.307 521.404 295.878 522.357 294.389 522.357C292.125 522.357 291.112 520.511 290.993 518.486C290.696 514.971 290.696 511.457 290.576 507.942C290.457 504.964 290.159 501.986 289.802 499.067C289.623 497.518 289.385 495.97 289.385 494.48C289.385 492.515 290.755 490.847 292.721 490.847C294.746 490.847 296.116 492.574 296.116 494.54C296.116 494.6 295.997 495.195 295.997 495.255C296.116 496.387 296.235 497.518 296.354 498.591C298.141 496.327 300.524 494.361 303.562 494.361C305.706 494.361 307.612 495.434 308.029 497.637C308.148 498.174 307.97 498.769 307.731 499.305C307.195 500.556 306.004 501.271 304.753 501.271C304.336 501.271 303.86 501.152 303.443 500.973C303.324 500.914 303.026 501.092 302.907 501.211C299.154 504.13 298.32 510.861 298.022 515.269C297.903 516.758 297.963 518.307 297.665 519.796ZM335.245 525.038C333.28 529.863 327.74 532.186 322.856 532.186C320.116 532.186 317.316 531.769 315.589 529.446C314.755 528.433 314.993 526.527 315.827 525.514C316.482 524.8 317.316 524.442 318.209 524.442C319.043 524.442 319.877 524.74 320.592 525.336C320.771 525.514 321.486 525.574 321.724 525.574C323.868 525.872 326.251 525.336 327.978 524.085C329.05 523.31 329.467 521.881 329.587 520.57C329.884 517.354 329.289 514.078 328.991 510.861C326.966 514.137 323.69 519.022 319.46 519.022C318.746 519.022 318.031 518.903 317.376 518.605C313.027 516.818 312.134 511.219 311.955 507.108C311.717 502.998 312.312 498.829 312.67 494.719C312.849 492.693 314.457 491.443 316.184 491.443C317.137 491.443 318.15 491.86 318.924 492.693C319.639 493.468 319.699 494.778 319.401 495.731C319.401 495.85 319.103 496.387 319.103 496.506C318.746 500.378 318.209 504.309 318.567 508.181C318.686 509.61 318.865 511.099 319.639 512.231C322.081 510.206 324.523 505.679 325.715 502.879C326.906 500.08 327.8 497.221 328.991 494.48C329.587 493.11 330.659 492.038 332.207 492.038C333.518 492.038 334.769 492.813 335.305 494.064C335.662 494.957 335.603 495.97 335.484 496.863C335.305 500.08 335.067 503.356 335.245 506.572C335.364 509.432 335.722 512.291 336.02 515.15C336.318 518.426 336.437 521.94 335.245 525.038Z" fill="#643A3B"/>
<mask id="path-11-outside-2_47_13" maskUnits="userSpaceOnUse" x="18" y="385" width="365" height="72" fill="black">
<rect fill="white" x="18" y="385" width="365" height="72"/>
<path d="M32.4205 448.849C31.8585 451.846 30.4537 454.749 26.9883 454.749C21.6498 454.749 20.7132 448.474 20.2449 444.447C19.4956 439.202 19.4956 433.863 19.4956 428.525C19.4956 423.186 19.5893 417.848 20.0576 412.509C20.1512 411.292 20.3385 410.074 20.9941 409.044C22.118 407.077 23.9912 406.234 25.7707 406.234C28.2995 406.234 30.641 407.826 31.0156 410.73C31.0156 411.385 31.0156 412.041 30.8283 412.697C30.7346 412.884 30.2663 413.727 30.2663 413.914C30.079 417.005 29.9854 420.096 29.8917 423.28C32.7015 418.503 36.4478 414.195 40.9434 411.011C43.5659 409.044 47.5932 406.702 50.9649 406.702C56.7717 406.702 58.5512 412.228 59.2068 417.005C60.518 425.434 60.3307 433.957 60.4244 442.48C60.4244 443.136 60.518 443.791 60.7054 444.353C61.361 446.133 60.3307 448.849 58.7385 449.879C58.2702 450.066 57.7083 450.441 57.24 450.535C56.7717 450.722 56.2098 450.722 55.7415 450.722C53.7746 450.722 51.8078 449.692 50.9649 447.912C50.2156 446.601 50.2156 445.009 50.122 443.51C49.9346 435.081 50.4029 426.464 48.9044 418.035C37.3844 425.34 34.6683 436.018 32.4205 448.849ZM78.3322 398.18C77.3019 399.022 76.0844 399.397 74.9605 399.397C72.338 399.397 69.9966 397.618 69.7156 394.714C69.6219 392.935 70.5585 391.155 71.6824 389.75C72.4317 388.72 74.3049 387.971 75.5224 387.971C77.6766 387.971 79.6434 389.657 80.4863 391.811C81.1419 393.778 79.9244 396.962 78.3322 398.18ZM82.1722 449.973C81.7976 452.97 79.3624 454.562 76.8337 454.562C71.5888 454.562 70.8395 448.661 70.4649 444.634C69.7156 435.643 70.3712 426.652 70.9332 417.66C71.0268 416.63 71.2141 415.6 71.7761 414.757C72.8063 412.978 74.5859 412.135 76.2717 412.135C78.6132 412.135 80.7673 413.633 81.3293 416.256C81.5166 417.005 81.2356 417.941 81.2356 418.784C80.6737 426.745 80.1117 434.8 80.6737 442.855C80.7673 443.885 80.861 444.821 80.9546 445.758C81.0483 445.945 81.2356 446.039 81.3293 446.226C81.9849 447.35 82.3595 448.661 82.1722 449.973ZM106.469 448.755C107.5 452.408 104.502 455.686 101.131 455.686C94.2937 455.686 93.4507 444.821 93.1698 439.951C92.2332 427.214 93.3571 414.382 93.919 401.645C94.1063 398.367 94.2937 394.995 93.919 391.717C93.7317 389.75 95.4176 387.502 97.1971 386.66C97.8527 386.379 98.5083 386.285 99.1639 386.285C101.974 386.285 104.315 388.626 104.409 391.717C104.502 397.992 104.128 404.267 103.753 410.542C103.566 414.195 103.379 417.941 103.285 421.688C106.282 419.065 119.956 408.107 123.421 408.107C125.107 408.107 126.887 409.044 127.823 410.355C129.603 412.884 128.76 416.256 126.138 417.848C119.862 421.407 113.587 426.371 108.155 431.054C113.119 432.178 118.083 433.114 123.047 434.425C126.138 435.268 129.135 436.392 132.225 437.422C133.443 437.797 134.38 439.015 134.941 440.139C136.534 443.417 133.537 447.725 129.978 447.257C128.292 447.069 126.793 446.414 125.295 445.852C118.364 443.417 110.965 442.386 103.847 440.607C103.753 440.607 103.66 440.513 103.566 440.513C103.753 442.386 103.94 444.166 104.409 445.945C104.502 446.226 105.439 446.882 105.533 447.069C105.907 447.631 106.282 448.193 106.469 448.755ZM185.597 423.093C184.941 436.86 173.702 452.314 158.998 452.314C152.535 452.314 146.822 448.661 143.731 443.042C141.671 439.296 140.922 434.706 141.296 430.398C141.858 424.123 144.481 417.848 148.508 413.071C153.472 407.077 159.747 404.736 167.24 404.361C168.551 404.267 169.862 404.267 171.267 404.455C172.204 404.642 173.047 405.298 173.796 405.953C173.983 406.047 174.077 406.234 174.264 406.328C178.104 407.358 181.85 409.7 183.724 413.259C185.316 416.162 185.784 419.721 185.597 423.093ZM154.315 440.139C155.72 441.543 157.312 442.105 159.091 442.105C167.052 442.105 173.328 432.833 174.826 425.902C175.482 423.186 175.95 418.503 173.609 417.099C171.735 416.068 169.581 415.881 167.708 415.132C167.521 415.038 167.146 414.663 166.959 414.663C162.089 415.038 158.53 416.537 155.532 420.751C151.599 426.183 149.538 435.362 154.315 440.139ZM206.201 448.849C205.639 451.846 204.234 454.749 200.769 454.749C195.43 454.749 194.494 448.474 194.025 444.447C193.276 439.202 193.276 433.863 193.276 428.525C193.276 423.186 193.37 417.848 193.838 412.509C193.932 411.292 194.119 410.074 194.775 409.044C195.899 407.077 197.772 406.234 199.551 406.234C202.08 406.234 204.421 407.826 204.796 410.73C204.796 411.385 204.796 412.041 204.609 412.697C204.515 412.884 204.047 413.727 204.047 413.914C203.86 417.005 203.766 420.096 203.672 423.28C206.482 418.503 210.228 414.195 214.724 411.011C217.346 409.044 221.374 406.702 224.745 406.702C230.552 406.702 232.332 412.228 232.987 417.005C234.299 425.434 234.111 433.957 234.205 442.48C234.205 443.136 234.299 443.791 234.486 444.353C235.141 446.133 234.111 448.849 232.519 449.879C232.051 450.066 231.489 450.441 231.02 450.535C230.552 450.722 229.99 450.722 229.522 450.722C227.555 450.722 225.588 449.692 224.745 447.912C223.996 446.601 223.996 445.009 223.902 443.51C223.715 435.081 224.183 426.464 222.685 418.035C211.165 425.34 208.449 436.018 206.201 448.849ZM252.113 398.18C251.082 399.022 249.865 399.397 248.741 399.397C246.119 399.397 243.777 397.618 243.496 394.714C243.402 392.935 244.339 391.155 245.463 389.75C246.212 388.72 248.085 387.971 249.303 387.971C251.457 387.971 253.424 389.657 254.267 391.811C254.922 393.778 253.705 396.962 252.113 398.18ZM255.953 449.973C255.578 452.97 253.143 454.562 250.614 454.562C245.369 454.562 244.62 448.661 244.245 444.634C243.496 435.643 244.152 426.652 244.714 417.66C244.807 416.63 244.995 415.6 245.557 414.757C246.587 412.978 248.366 412.135 250.052 412.135C252.394 412.135 254.548 413.633 255.11 416.256C255.297 417.005 255.016 417.941 255.016 418.784C254.454 426.745 253.892 434.8 254.454 442.855C254.548 443.885 254.641 444.821 254.735 445.758C254.829 445.945 255.016 446.039 255.11 446.226C255.765 447.35 256.14 448.661 255.953 449.973ZM280.25 448.755C281.28 452.408 278.283 455.686 274.911 455.686C268.074 455.686 267.231 444.821 266.95 439.951C266.014 427.214 267.138 414.382 267.7 401.645C267.887 398.367 268.074 394.995 267.7 391.717C267.512 389.75 269.198 387.502 270.978 386.66C271.633 386.379 272.289 386.285 272.944 386.285C275.754 386.285 278.096 388.626 278.189 391.717C278.283 397.992 277.908 404.267 277.534 410.542C277.346 414.195 277.159 417.941 277.065 421.688C280.062 419.065 293.737 408.107 297.202 408.107C298.888 408.107 300.667 409.044 301.604 410.355C303.383 412.884 302.54 416.256 299.918 417.848C293.643 421.407 287.368 426.371 281.936 431.054C286.899 432.178 291.863 433.114 296.827 434.425C299.918 435.268 302.915 436.392 306.006 437.422C307.223 437.797 308.16 439.015 308.722 440.139C310.314 443.417 307.317 447.725 303.758 447.257C302.072 447.069 300.574 446.414 299.075 445.852C292.144 443.417 284.745 442.386 277.627 440.607C277.534 440.607 277.44 440.513 277.346 440.513C277.534 442.386 277.721 444.166 278.189 445.945C278.283 446.226 279.219 446.882 279.313 447.069C279.688 447.631 280.062 448.193 280.25 448.755ZM359.377 423.093C358.722 436.86 347.483 452.314 332.778 452.314C326.316 452.314 320.603 448.661 317.512 443.042C315.451 439.296 314.702 434.706 315.077 430.398C315.639 424.123 318.261 417.848 322.289 413.071C327.252 407.077 333.528 404.736 341.02 404.361C342.331 404.267 343.643 404.267 345.048 404.455C345.984 404.642 346.827 405.298 347.576 405.953C347.764 406.047 347.857 406.234 348.045 406.328C351.885 407.358 355.631 409.7 357.504 413.259C359.096 416.162 359.565 419.721 359.377 423.093ZM328.095 440.139C329.5 441.543 331.092 442.105 332.872 442.105C340.833 442.105 347.108 432.833 348.607 425.902C349.262 423.186 349.73 418.503 347.389 417.099C345.516 416.068 343.362 415.881 341.489 415.132C341.301 415.038 340.927 414.663 340.739 414.663C335.869 415.038 332.31 416.537 329.313 420.751C325.379 426.183 323.319 435.362 328.095 440.139ZM381.667 432.178C381.386 435.081 379.045 436.86 376.516 436.86C375.111 436.86 373.706 436.299 372.676 435.081C369.866 431.897 369.398 419.253 369.304 414.944C369.211 409.7 369.211 404.361 369.304 399.116C369.304 398.835 369.117 398.648 369.117 398.367C368.742 396.4 369.492 393.871 370.99 392.56C371.927 391.623 373.238 391.155 374.456 391.155C378.577 391.155 379.607 394.527 379.607 397.899C379.607 404.08 379.513 410.261 379.607 416.443C379.7 420.751 379.888 425.153 381.199 429.368C381.48 430.211 381.761 431.241 381.667 432.178ZM378.951 453.719C378.015 454.468 376.797 454.843 375.58 454.843C374.362 454.843 373.051 454.375 372.114 453.532C369.492 451.378 369.773 447.257 372.395 445.009C373.332 444.26 374.549 443.791 375.767 443.791C376.61 443.791 377.359 443.979 378.108 444.353C381.761 446.226 382.136 451.097 378.951 453.719Z"/>
</mask>
<path d="M32.4205 448.849C31.8585 451.846 30.4537 454.749 26.9883 454.749C21.6498 454.749 20.7132 448.474 20.2449 444.447C19.4956 439.202 19.4956 433.863 19.4956 428.525C19.4956 423.186 19.5893 417.848 20.0576 412.509C20.1512 411.292 20.3385 410.074 20.9941 409.044C22.118 407.077 23.9912 406.234 25.7707 406.234C28.2995 406.234 30.641 407.826 31.0156 410.73C31.0156 411.385 31.0156 412.041 30.8283 412.697C30.7346 412.884 30.2663 413.727 30.2663 413.914C30.079 417.005 29.9854 420.096 29.8917 423.28C32.7015 418.503 36.4478 414.195 40.9434 411.011C43.5659 409.044 47.5932 406.702 50.9649 406.702C56.7717 406.702 58.5512 412.228 59.2068 417.005C60.518 425.434 60.3307 433.957 60.4244 442.48C60.4244 443.136 60.518 443.791 60.7054 444.353C61.361 446.133 60.3307 448.849 58.7385 449.879C58.2702 450.066 57.7083 450.441 57.24 450.535C56.7717 450.722 56.2098 450.722 55.7415 450.722C53.7746 450.722 51.8078 449.692 50.9649 447.912C50.2156 446.601 50.2156 445.009 50.122 443.51C49.9346 435.081 50.4029 426.464 48.9044 418.035C37.3844 425.34 34.6683 436.018 32.4205 448.849ZM78.3322 398.18C77.3019 399.022 76.0844 399.397 74.9605 399.397C72.338 399.397 69.9966 397.618 69.7156 394.714C69.6219 392.935 70.5585 391.155 71.6824 389.75C72.4317 388.72 74.3049 387.971 75.5224 387.971C77.6766 387.971 79.6434 389.657 80.4863 391.811C81.1419 393.778 79.9244 396.962 78.3322 398.18ZM82.1722 449.973C81.7976 452.97 79.3624 454.562 76.8337 454.562C71.5888 454.562 70.8395 448.661 70.4649 444.634C69.7156 435.643 70.3712 426.652 70.9332 417.66C71.0268 416.63 71.2141 415.6 71.7761 414.757C72.8063 412.978 74.5859 412.135 76.2717 412.135C78.6132 412.135 80.7673 413.633 81.3293 416.256C81.5166 417.005 81.2356 417.941 81.2356 418.784C80.6737 426.745 80.1117 434.8 80.6737 442.855C80.7673 443.885 80.861 444.821 80.9546 445.758C81.0483 445.945 81.2356 446.039 81.3293 446.226C81.9849 447.35 82.3595 448.661 82.1722 449.973ZM106.469 448.755C107.5 452.408 104.502 455.686 101.131 455.686C94.2937 455.686 93.4507 444.821 93.1698 439.951C92.2332 427.214 93.3571 414.382 93.919 401.645C94.1063 398.367 94.2937 394.995 93.919 391.717C93.7317 389.75 95.4176 387.502 97.1971 386.66C97.8527 386.379 98.5083 386.285 99.1639 386.285C101.974 386.285 104.315 388.626 104.409 391.717C104.502 397.992 104.128 404.267 103.753 410.542C103.566 414.195 103.379 417.941 103.285 421.688C106.282 419.065 119.956 408.107 123.421 408.107C125.107 408.107 126.887 409.044 127.823 410.355C129.603 412.884 128.76 416.256 126.138 417.848C119.862 421.407 113.587 426.371 108.155 431.054C113.119 432.178 118.083 433.114 123.047 434.425C126.138 435.268 129.135 436.392 132.225 437.422C133.443 437.797 134.38 439.015 134.941 440.139C136.534 443.417 133.537 447.725 129.978 447.257C128.292 447.069 126.793 446.414 125.295 445.852C118.364 443.417 110.965 442.386 103.847 440.607C103.753 440.607 103.66 440.513 103.566 440.513C103.753 442.386 103.94 444.166 104.409 445.945C104.502 446.226 105.439 446.882 105.533 447.069C105.907 447.631 106.282 448.193 106.469 448.755ZM185.597 423.093C184.941 436.86 173.702 452.314 158.998 452.314C152.535 452.314 146.822 448.661 143.731 443.042C141.671 439.296 140.922 434.706 141.296 430.398C141.858 424.123 144.481 417.848 148.508 413.071C153.472 407.077 159.747 404.736 167.24 404.361C168.551 404.267 169.862 404.267 171.267 404.455C172.204 404.642 173.047 405.298 173.796 405.953C173.983 406.047 174.077 406.234 174.264 406.328C178.104 407.358 181.85 409.7 183.724 413.259C185.316 416.162 185.784 419.721 185.597 423.093ZM154.315 440.139C155.72 441.543 157.312 442.105 159.091 442.105C167.052 442.105 173.328 432.833 174.826 425.902C175.482 423.186 175.95 418.503 173.609 417.099C171.735 416.068 169.581 415.881 167.708 415.132C167.521 415.038 167.146 414.663 166.959 414.663C162.089 415.038 158.53 416.537 155.532 420.751C151.599 426.183 149.538 435.362 154.315 440.139ZM206.201 448.849C205.639 451.846 204.234 454.749 200.769 454.749C195.43 454.749 194.494 448.474 194.025 444.447C193.276 439.202 193.276 433.863 193.276 428.525C193.276 423.186 193.37 417.848 193.838 412.509C193.932 411.292 194.119 410.074 194.775 409.044C195.899 407.077 197.772 406.234 199.551 406.234C202.08 406.234 204.421 407.826 204.796 410.73C204.796 411.385 204.796 412.041 204.609 412.697C204.515 412.884 204.047 413.727 204.047 413.914C203.86 417.005 203.766 420.096 203.672 423.28C206.482 418.503 210.228 414.195 214.724 411.011C217.346 409.044 221.374 406.702 224.745 406.702C230.552 406.702 232.332 412.228 232.987 417.005C234.299 425.434 234.111 433.957 234.205 442.48C234.205 443.136 234.299 443.791 234.486 444.353C235.141 446.133 234.111 448.849 232.519 449.879C232.051 450.066 231.489 450.441 231.02 450.535C230.552 450.722 229.99 450.722 229.522 450.722C227.555 450.722 225.588 449.692 224.745 447.912C223.996 446.601 223.996 445.009 223.902 443.51C223.715 435.081 224.183 426.464 222.685 418.035C211.165 425.34 208.449 436.018 206.201 448.849ZM252.113 398.18C251.082 399.022 249.865 399.397 248.741 399.397C246.119 399.397 243.777 397.618 243.496 394.714C243.402 392.935 244.339 391.155 245.463 389.75C246.212 388.72 248.085 387.971 249.303 387.971C251.457 387.971 253.424 389.657 254.267 391.811C254.922 393.778 253.705 396.962 252.113 398.18ZM255.953 449.973C255.578 452.97 253.143 454.562 250.614 454.562C245.369 454.562 244.62 448.661 244.245 444.634C243.496 435.643 244.152 426.652 244.714 417.66C244.807 416.63 244.995 415.6 245.557 414.757C246.587 412.978 248.366 412.135 250.052 412.135C252.394 412.135 254.548 413.633 255.11 416.256C255.297 417.005 255.016 417.941 255.016 418.784C254.454 426.745 253.892 434.8 254.454 442.855C254.548 443.885 254.641 444.821 254.735 445.758C254.829 445.945 255.016 446.039 255.11 446.226C255.765 447.35 256.14 448.661 255.953 449.973ZM280.25 448.755C281.28 452.408 278.283 455.686 274.911 455.686C268.074 455.686 267.231 444.821 266.95 439.951C266.014 427.214 267.138 414.382 267.7 401.645C267.887 398.367 268.074 394.995 267.7 391.717C267.512 389.75 269.198 387.502 270.978 386.66C271.633 386.379 272.289 386.285 272.944 386.285C275.754 386.285 278.096 388.626 278.189 391.717C278.283 397.992 277.908 404.267 277.534 410.542C277.346 414.195 277.159 417.941 277.065 421.688C280.062 419.065 293.737 408.107 297.202 408.107C298.888 408.107 300.667 409.044 301.604 410.355C303.383 412.884 302.54 416.256 299.918 417.848C293.643 421.407 287.368 426.371 281.936 431.054C286.899 432.178 291.863 433.114 296.827 434.425C299.918 435.268 302.915 436.392 306.006 437.422C307.223 437.797 308.16 439.015 308.722 440.139C310.314 443.417 307.317 447.725 303.758 447.257C302.072 447.069 300.574 446.414 299.075 445.852C292.144 443.417 284.745 442.386 277.627 440.607C277.534 440.607 277.44 440.513 277.346 440.513C277.534 442.386 277.721 444.166 278.189 445.945C278.283 446.226 279.219 446.882 279.313 447.069C279.688 447.631 280.062 448.193 280.25 448.755ZM359.377 423.093C358.722 436.86 347.483 452.314 332.778 452.314C326.316 452.314 320.603 448.661 317.512 443.042C315.451 439.296 314.702 434.706 315.077 430.398C315.639 424.123 318.261 417.848 322.289 413.071C327.252 407.077 333.528 404.736 341.02 404.361C342.331 404.267 343.643 404.267 345.048 404.455C345.984 404.642 346.827 405.298 347.576 405.953C347.764 406.047 347.857 406.234 348.045 406.328C351.885 407.358 355.631 409.7 357.504 413.259C359.096 416.162 359.565 419.721 359.377 423.093ZM328.095 440.139C329.5 441.543 331.092 442.105 332.872 442.105C340.833 442.105 347.108 432.833 348.607 425.902C349.262 423.186 349.73 418.503 347.389 417.099C345.516 416.068 343.362 415.881 341.489 415.132C341.301 415.038 340.927 414.663 340.739 414.663C335.869 415.038 332.31 416.537 329.313 420.751C325.379 426.183 323.319 435.362 328.095 440.139ZM381.667 432.178C381.386 435.081 379.045 436.86 376.516 436.86C375.111 436.86 373.706 436.299 372.676 435.081C369.866 431.897 369.398 419.253 369.304 414.944C369.211 409.7 369.211 404.361 369.304 399.116C369.304 398.835 369.117 398.648 369.117 398.367C368.742 396.4 369.492 393.871 370.99 392.56C371.927 391.623 373.238 391.155 374.456 391.155C378.577 391.155 379.607 394.527 379.607 397.899C379.607 404.08 379.513 410.261 379.607 416.443C379.7 420.751 379.888 425.153 381.199 429.368C381.48 430.211 381.761 431.241 381.667 432.178ZM378.951 453.719C378.015 454.468 376.797 454.843 375.58 454.843C374.362 454.843 373.051 454.375 372.114 453.532C369.492 451.378 369.773 447.257 372.395 445.009C373.332 444.26 374.549 443.791 375.767 443.791C376.61 443.791 377.359 443.979 378.108 444.353C381.761 446.226 382.136 451.097 378.951 453.719Z" fill="black"/>
<path d="M32.4205 448.849L33.4034 449.033L33.4055 449.021L32.4205 448.849ZM20.2449 444.447L21.2382 444.331L21.2367 444.318L21.2348 444.305L20.2449 444.447ZM20.0576 412.509L21.0538 412.597L21.0546 412.586L20.0576 412.509ZM20.9941 409.044L21.8378 409.581L21.8506 409.561L21.8624 409.54L20.9941 409.044ZM31.0156 410.73H32.0156V410.666L32.0074 410.602L31.0156 410.73ZM30.8283 412.697L31.7227 413.144L31.7643 413.061L31.7898 412.971L30.8283 412.697ZM30.2663 413.914L31.2645 413.975L31.2663 413.944V413.914H30.2663ZM29.8917 423.28L28.8921 423.251L30.7536 423.787L29.8917 423.28ZM40.9434 411.011L41.5214 411.827L41.5325 411.819L41.5434 411.811L40.9434 411.011ZM59.2068 417.005L58.2161 417.141L58.2173 417.15L58.2187 417.159L59.2068 417.005ZM60.4244 442.48H61.4244L61.4243 442.469L60.4244 442.48ZM60.7054 444.353L59.7567 444.669L59.7616 444.684L59.767 444.699L60.7054 444.353ZM58.7385 449.879L59.1099 450.808L59.2002 450.771L59.2818 450.719L58.7385 449.879ZM57.24 450.535L57.0439 449.554L56.9539 449.572L56.8686 449.606L57.24 450.535ZM50.9649 447.912L51.8686 447.484L51.8522 447.449L51.8331 447.416L50.9649 447.912ZM50.122 443.51L49.1222 443.532L49.1226 443.553L49.1239 443.573L50.122 443.51ZM48.9044 418.035L49.889 417.86L49.628 416.392L48.3688 417.191L48.9044 418.035ZM32.4205 448.849L31.4376 448.664C31.1695 450.094 30.7175 451.39 30.0034 452.31C29.3244 453.184 28.3903 453.749 26.9883 453.749V454.749V455.749C29.0516 455.749 30.5527 454.863 31.583 453.536C32.5781 452.255 33.1095 450.6 33.4034 449.033L32.4205 448.849ZM26.9883 454.749V453.749C25.8661 453.749 25.0229 453.425 24.3583 452.913C23.6784 452.39 23.1337 451.629 22.6976 450.688C21.814 448.781 21.4739 446.358 21.2382 444.331L20.2449 444.447L19.2516 444.562C19.4842 446.563 19.8465 449.292 20.8829 451.529C21.4068 452.66 22.1265 453.719 23.1383 454.498C24.1654 455.289 25.4412 455.749 26.9883 455.749V454.749ZM20.2449 444.447L21.2348 444.305C20.4973 439.143 20.4956 433.876 20.4956 428.525H19.4956H18.4956C18.4956 433.851 18.4939 439.261 19.2549 444.588L20.2449 444.447ZM19.4956 428.525H20.4956C20.4956 423.195 20.5893 417.891 21.0537 412.597L20.0576 412.509L19.0614 412.422C18.5892 417.804 18.4956 423.177 18.4956 428.525H19.4956ZM20.0576 412.509L21.0546 412.586C21.1463 411.394 21.3229 410.39 21.8378 409.581L20.9941 409.044L20.1505 408.507C19.3542 409.758 19.1561 411.19 19.0605 412.433L20.0576 412.509ZM20.9941 409.044L21.8624 409.54C22.7906 407.916 24.3131 407.234 25.7707 407.234V406.234V405.234C23.6694 405.234 21.4455 406.239 20.1259 408.548L20.9941 409.044ZM25.7707 406.234V407.234C27.8786 407.234 29.7235 408.53 30.0238 410.858L31.0156 410.73L32.0074 410.602C31.5585 407.123 28.7204 405.234 25.7707 405.234V406.234ZM31.0156 410.73H30.0156C30.0156 411.406 30.0096 411.922 29.8668 412.422L30.8283 412.697L31.7898 412.971C32.0217 412.16 32.0156 411.365 32.0156 410.73H31.0156ZM30.8283 412.697L29.9339 412.249C29.9168 412.283 29.8796 412.353 29.8163 412.473C29.7584 412.583 29.6871 412.72 29.6178 412.858C29.5499 412.994 29.4768 413.146 29.4186 413.285C29.3898 413.354 29.3584 413.434 29.3326 413.516C29.3148 413.573 29.2663 413.729 29.2663 413.914H30.2663H31.2663C31.2663 413.997 31.2545 414.057 31.2504 414.076C31.2453 414.101 31.2407 414.115 31.2407 414.115C31.2403 414.117 31.2416 414.112 31.2458 414.101C31.2499 414.09 31.2556 414.076 31.2633 414.058C31.2958 413.98 31.3457 413.874 31.4066 413.753C31.4661 413.634 31.5294 413.512 31.5856 413.406C31.6365 413.309 31.6929 413.203 31.7227 413.144L30.8283 412.697ZM30.2663 413.914L29.2682 413.854C29.0798 416.962 28.9857 420.068 28.8921 423.251L29.8917 423.28L30.8913 423.309C30.985 420.123 31.0783 417.048 31.2645 413.975L30.2663 413.914ZM29.8917 423.28L30.7536 423.787C33.5019 419.115 37.1567 414.918 41.5214 411.827L40.9434 411.011L40.3654 410.195C35.7389 413.472 31.901 417.892 29.0298 422.773L29.8917 423.28ZM40.9434 411.011L41.5434 411.811C42.8155 410.857 44.4202 409.818 46.101 409.023C47.7954 408.221 49.4901 407.702 50.9649 407.702V406.702V405.702C49.068 405.702 47.0631 406.355 45.2453 407.215C43.4139 408.082 41.6938 409.198 40.3434 410.211L40.9434 411.011ZM50.9649 406.702V407.702C53.4745 407.702 55.0742 408.862 56.1727 410.597C57.3087 412.392 57.8941 414.794 58.2161 417.141L59.2068 417.005L60.1975 416.869C59.864 414.439 59.2318 411.69 57.8625 409.528C56.4555 407.305 54.2621 405.702 50.9649 405.702V406.702ZM59.2068 417.005L58.2187 417.159C59.5158 425.497 59.3303 433.92 59.4244 442.491L60.4244 442.48L61.4243 442.469C61.3312 433.994 61.5203 425.372 60.1949 416.851L59.2068 417.005ZM60.4244 442.48H59.4244C59.4244 443.224 59.5297 443.989 59.7567 444.669L60.7054 444.353L61.654 444.037C61.5064 443.594 61.4244 443.048 61.4244 442.48H60.4244ZM60.7054 444.353L59.767 444.699C59.9868 445.295 59.9494 446.163 59.6251 447.055C59.302 447.944 58.7593 448.674 58.1953 449.039L58.7385 449.879L59.2818 450.719C60.31 450.053 61.0785 448.911 61.5047 447.739C61.9296 446.57 62.0795 445.19 61.6437 444.007L60.7054 444.353ZM58.7385 449.879L58.3671 448.951C58.0815 449.065 57.75 449.244 57.5421 449.348C57.2826 449.477 57.1325 449.536 57.0439 449.554L57.24 450.535L57.4361 451.515C57.8158 451.439 58.1808 451.264 58.4365 451.136C58.7436 450.983 58.9273 450.881 59.1099 450.808L58.7385 449.879ZM57.24 450.535L56.8686 449.606C56.6113 449.709 56.2525 449.722 55.7415 449.722V450.722V451.722C56.167 451.722 56.9321 451.735 57.6114 451.463L57.24 450.535ZM55.7415 450.722V449.722C54.0849 449.722 52.5158 448.85 51.8686 447.484L50.9649 447.912L50.0611 448.34C51.0998 450.533 53.4643 451.722 55.7415 451.722V450.722ZM50.9649 447.912L51.8331 447.416C51.2286 446.358 51.2212 445.066 51.12 443.448L50.122 443.51L49.1239 443.573C49.2101 444.951 49.2026 446.844 50.0966 448.408L50.9649 447.912ZM50.122 443.51L51.1217 443.488C50.9367 435.162 51.4055 426.39 49.889 417.86L48.9044 418.035L47.9198 418.21C49.4004 426.538 48.9326 435 49.1222 443.532L50.122 443.51ZM48.9044 418.035L48.3688 417.191C36.4536 424.747 33.6858 435.831 31.4355 448.676L32.4205 448.849L33.4055 449.021C35.6508 436.205 38.3152 425.934 49.4399 418.88L48.9044 418.035ZM78.3322 398.18L77.7247 397.385L77.7117 397.395L77.699 397.406L78.3322 398.18ZM69.7156 394.714L68.717 394.767L68.7181 394.789L68.7203 394.81L69.7156 394.714ZM71.6824 389.75L72.4633 390.375L72.4777 390.357L72.4912 390.338L71.6824 389.75ZM80.4863 391.811L81.435 391.495L81.4269 391.47L81.4176 391.446L80.4863 391.811ZM82.1722 449.973L81.1822 449.831L81.181 449.84L81.1799 449.849L82.1722 449.973ZM70.4649 444.634L69.4683 444.717L69.4692 444.727L70.4649 444.634ZM70.9332 417.66L69.9373 417.57L69.936 417.584L69.9351 417.598L70.9332 417.66ZM71.7761 414.757L72.6081 415.312L72.6257 415.285L72.6415 415.258L71.7761 414.757ZM81.3293 416.256L80.3515 416.465L80.355 416.482L80.3591 416.498L81.3293 416.256ZM81.2356 418.784L82.2331 418.855L82.2356 418.82V418.784H81.2356ZM80.6737 442.855L79.6761 442.924L79.6768 442.935L79.6778 442.945L80.6737 442.855ZM80.9546 445.758L79.9596 445.858L79.9779 446.041L80.0602 446.205L80.9546 445.758ZM81.3293 446.226L80.4348 446.674L80.4492 446.702L80.4655 446.73L81.3293 446.226ZM78.3322 398.18L77.699 397.406C76.857 398.094 75.8663 398.397 74.9605 398.397V399.397V400.397C76.3024 400.397 77.7469 399.95 78.9654 398.953L78.3322 398.18ZM74.9605 399.397V398.397C72.7951 398.397 70.9369 396.953 70.711 394.618L69.7156 394.714L68.7203 394.81C69.0562 398.282 71.8809 400.397 74.9605 400.397V399.397ZM69.7156 394.714L70.7142 394.662C70.6397 393.246 71.3969 391.708 72.4633 390.375L71.6824 389.75L70.9016 389.126C69.7202 390.602 68.6042 392.624 68.717 394.767L69.7156 394.714ZM71.6824 389.75L72.4912 390.338C72.7207 390.023 73.1985 389.669 73.8316 389.389C74.4554 389.112 75.0886 388.971 75.5224 388.971V387.971V386.971C74.7387 386.971 73.8265 387.204 73.0221 387.56C72.2268 387.912 71.3934 388.447 70.8737 389.162L71.6824 389.75ZM75.5224 387.971V388.971C77.1518 388.971 78.8162 390.287 79.5551 392.175L80.4863 391.811L81.4176 391.446C80.4706 389.026 78.2014 386.971 75.5224 386.971V387.971ZM80.4863 391.811L79.5377 392.127C79.7672 392.816 79.6927 393.857 79.3092 394.943C78.928 396.023 78.3171 396.932 77.7247 397.385L78.3322 398.18L78.9396 398.974C79.9395 398.209 80.7335 396.917 81.1952 395.609C81.6546 394.307 81.8611 392.773 81.435 391.495L80.4863 391.811ZM82.1722 449.973L81.1799 449.849C80.8788 452.257 78.9522 453.562 76.8337 453.562V454.562V455.562C79.7727 455.562 82.7163 453.682 83.1645 450.097L82.1722 449.973ZM76.8337 454.562V453.562C75.7243 453.562 74.9097 453.255 74.2822 452.78C73.6408 452.294 73.1342 451.586 72.7349 450.698C71.9231 448.893 71.6495 446.572 71.4606 444.542L70.4649 444.634L69.4692 444.727C69.6549 446.723 69.9433 449.367 70.9109 451.518C71.4014 452.609 72.0889 453.628 73.0749 454.374C74.0747 455.131 75.3206 455.562 76.8337 455.562V454.562ZM70.4649 444.634L71.4614 444.551C70.7195 435.648 71.3678 426.737 71.9312 417.723L70.9332 417.66L69.9351 417.598C69.3746 426.566 68.7117 435.638 69.4683 444.717L70.4649 444.634ZM70.9332 417.66L71.9291 417.751C72.0197 416.754 72.1916 415.937 72.6081 415.312L71.7761 414.757L70.944 414.202C70.2366 415.263 70.034 416.506 69.9373 417.57L70.9332 417.66ZM71.7761 414.757L72.6415 415.258C73.479 413.812 74.9139 413.135 76.2717 413.135V412.135V411.135C74.2578 411.135 72.1337 412.144 70.9107 414.256L71.7761 414.757ZM76.2717 412.135V413.135C78.1727 413.135 79.8947 414.333 80.3515 416.465L81.3293 416.256L82.3071 416.046C81.64 412.933 79.0537 411.135 76.2717 411.135V412.135ZM81.3293 416.256L80.3591 416.498C80.406 416.686 80.4045 416.951 80.3585 417.377C80.3192 417.741 80.2356 418.291 80.2356 418.784H81.2356H82.2356C82.2356 418.435 82.2925 418.095 82.3469 417.592C82.3945 417.152 82.4398 416.575 82.2994 416.013L81.3293 416.256ZM81.2356 418.784L80.2381 418.714C79.6769 426.664 79.1085 434.788 79.6761 442.924L80.6737 442.855L81.6712 442.785C81.115 434.812 81.6704 426.827 82.2331 418.855L81.2356 418.784ZM80.6737 442.855L79.6778 442.945C79.7719 443.981 79.866 444.921 79.9596 445.858L80.9546 445.758L81.9497 445.659C81.856 444.722 81.7627 443.789 81.6695 442.764L80.6737 442.855ZM80.9546 445.758L80.0602 446.205C80.1908 446.466 80.3805 446.645 80.4348 446.699C80.521 446.785 80.4717 446.747 80.4348 446.674L81.3293 446.226L82.2237 445.779C82.0931 445.518 81.9034 445.339 81.8491 445.285C81.7629 445.199 81.8121 445.237 81.8491 445.311L80.9546 445.758ZM81.3293 446.226L80.4655 446.73C81.0401 447.715 81.3296 448.8 81.1822 449.831L82.1722 449.973L83.1621 450.114C83.3894 448.523 82.9296 446.985 82.193 445.722L81.3293 446.226ZM106.469 448.755L107.432 448.484L107.425 448.461L107.418 448.439L106.469 448.755ZM93.1698 439.951L94.1681 439.894L94.1676 439.886L94.1671 439.878L93.1698 439.951ZM93.919 401.645L92.9206 401.588L92.92 401.601L93.919 401.645ZM93.919 391.717L92.9235 391.812L92.9244 391.821L92.9255 391.831L93.919 391.717ZM97.1971 386.66L96.8031 385.74L96.7859 385.748L96.769 385.756L97.1971 386.66ZM104.409 391.717L105.409 391.702L105.409 391.694L105.408 391.687L104.409 391.717ZM103.753 410.542L102.755 410.483L102.754 410.491L103.753 410.542ZM103.285 421.688L102.285 421.663L102.228 423.941L103.943 422.44L103.285 421.688ZM127.823 410.355L128.641 409.78L128.637 409.774L127.823 410.355ZM126.138 417.848L126.631 418.718L126.644 418.71L126.657 418.703L126.138 417.848ZM108.155 431.054L107.502 430.296L106 431.591L107.934 432.029L108.155 431.054ZM123.047 434.425L123.31 433.461L123.302 433.459L123.047 434.425ZM132.225 437.422L131.909 438.371L131.92 438.375L131.931 438.378L132.225 437.422ZM134.941 440.139L135.841 439.702L135.836 439.691L134.941 440.139ZM129.978 447.257L130.108 446.265L130.098 446.264L130.088 446.263L129.978 447.257ZM125.295 445.852L125.646 444.915L125.636 444.912L125.626 444.908L125.295 445.852ZM103.847 440.607L104.089 439.637L103.97 439.607H103.847V440.607ZM103.566 440.513V439.513H102.461L102.571 440.613L103.566 440.513ZM104.409 445.945L103.442 446.2L103.45 446.231L103.46 446.262L104.409 445.945ZM105.533 447.069L104.638 447.516L104.666 447.572L104.701 447.624L105.533 447.069ZM106.469 448.755L105.507 449.027C106.335 451.964 103.922 454.686 101.131 454.686V455.686V456.686C105.083 456.686 108.664 452.852 107.432 448.484L106.469 448.755ZM101.131 455.686V454.686C98.4048 454.686 96.7121 452.567 95.6411 449.331C94.5869 446.146 94.3089 442.335 94.1681 439.894L93.1698 439.951L92.1714 440.009C92.3116 442.438 92.5955 446.494 93.7424 449.959C94.8723 453.373 97.0196 456.686 101.131 456.686V455.686ZM93.1698 439.951L94.1671 439.878C93.2362 427.218 94.3535 414.486 94.9181 401.689L93.919 401.645L92.92 401.601C92.3606 414.279 91.2302 427.209 92.1724 440.025L93.1698 439.951ZM93.919 401.645L94.9174 401.702C95.1039 398.438 95.2985 394.981 94.9126 391.604L93.919 391.717L92.9255 391.831C93.2888 395.01 93.1088 398.296 92.9206 401.588L93.919 401.645ZM93.919 391.717L94.9145 391.622C94.8501 390.945 95.1085 390.122 95.6476 389.329C96.1824 388.542 96.9183 387.898 97.6252 387.563L97.1971 386.66L96.769 385.756C95.6964 386.264 94.6996 387.165 93.9934 388.205C93.2915 389.238 92.8007 390.522 92.9235 391.812L93.919 391.717ZM97.1971 386.66L97.591 387.579C98.0919 387.364 98.6065 387.285 99.1639 387.285V386.285V385.285C98.4101 385.285 97.6134 385.393 96.8031 385.74L97.1971 386.66ZM99.1639 386.285V387.285C101.383 387.285 103.33 389.145 103.409 391.747L104.409 391.717L105.408 391.687C105.3 388.107 102.564 385.285 99.1639 385.285V386.285ZM104.409 391.717L103.409 391.732C103.502 397.964 103.13 404.201 102.755 410.483L103.753 410.542L104.751 410.602C105.126 404.333 105.503 398.021 105.409 391.702L104.409 391.717ZM103.753 410.542L102.754 410.491C102.567 414.143 102.379 417.902 102.285 421.663L103.285 421.688L104.285 421.713C104.378 417.981 104.564 414.247 104.752 410.594L103.753 410.542ZM103.285 421.688L103.943 422.44C105.417 421.151 109.561 417.775 113.765 414.723C115.867 413.198 117.966 411.767 119.742 410.722C120.631 410.199 121.421 409.784 122.078 409.502C122.765 409.208 123.201 409.107 123.421 409.107V408.107V407.107C122.775 407.107 122.026 407.349 121.29 407.664C120.525 407.992 119.655 408.453 118.728 408.999C116.872 410.09 114.714 411.563 112.59 413.105C108.342 416.188 104.15 419.602 102.626 420.935L103.285 421.688ZM123.421 408.107V409.107C124.784 409.107 126.26 409.887 127.01 410.936L127.823 410.355L128.637 409.774C127.513 408.2 125.431 407.107 123.421 407.107V408.107ZM127.823 410.355L127.006 410.931C128.427 412.95 127.785 415.678 125.619 416.993L126.138 417.848L126.657 418.703C129.735 416.833 130.779 412.818 128.641 409.78L127.823 410.355ZM126.138 417.848L125.644 416.978C119.283 420.586 112.95 425.6 107.502 430.296L108.155 431.054L108.808 431.811C114.225 427.141 120.441 422.228 126.631 418.718L126.138 417.848ZM108.155 431.054L107.934 432.029C112.948 433.164 117.848 434.086 122.791 435.392L123.047 434.425L123.302 433.459C118.318 432.142 113.29 431.191 108.376 430.078L108.155 431.054ZM123.047 434.425L122.784 435.39C125.839 436.223 128.771 437.325 131.909 438.371L132.225 437.422L132.542 436.474C129.498 435.459 126.436 434.313 123.31 433.461L123.047 434.425ZM132.225 437.422L131.931 438.378C132.745 438.629 133.519 439.53 134.047 440.586L134.941 440.139L135.836 439.691C135.24 438.499 134.14 436.965 132.519 436.467L132.225 437.422ZM134.941 440.139L134.042 440.575C134.646 441.819 134.407 443.33 133.571 444.531C132.734 445.732 131.43 446.439 130.108 446.265L129.978 447.257L129.847 448.248C132.085 448.542 134.059 447.329 135.212 445.674C136.365 444.018 136.829 441.736 135.841 439.702L134.941 440.139ZM129.978 447.257L130.088 446.263C128.56 446.093 127.214 445.504 125.646 444.915L125.295 445.852L124.944 446.788C126.372 447.324 128.023 448.046 129.867 448.25L129.978 447.257ZM125.295 445.852L125.626 444.908C122.101 443.67 118.47 442.793 114.854 442.006C111.217 441.215 107.629 440.522 104.089 439.637L103.847 440.607L103.604 441.577C107.183 442.472 110.853 443.183 114.428 443.961C118.023 444.743 121.557 445.599 124.963 446.795L125.295 445.852ZM103.847 440.607V439.607C103.987 439.607 104.089 439.641 104.128 439.656C104.162 439.669 104.186 439.682 104.154 439.666C104.14 439.659 104.069 439.622 103.987 439.591C103.902 439.559 103.753 439.513 103.566 439.513V440.513V441.513C103.425 441.513 103.324 441.479 103.285 441.464C103.25 441.451 103.226 441.438 103.259 441.454C103.273 441.461 103.344 441.498 103.425 441.529C103.511 441.561 103.66 441.607 103.847 441.607V440.607ZM103.566 440.513L102.571 440.613C102.757 442.478 102.95 444.333 103.442 446.2L104.409 445.945L105.376 445.691C104.931 443.999 104.749 442.295 104.561 440.414L103.566 440.513ZM104.409 445.945L103.46 446.262C103.524 446.454 103.628 446.599 103.687 446.676C103.756 446.766 103.832 446.848 103.899 446.915C104.032 447.05 104.187 447.187 104.317 447.299C104.462 447.424 104.569 447.514 104.662 447.597C104.706 447.637 104.729 447.66 104.738 447.669C104.768 447.701 104.699 447.638 104.638 447.516L105.533 447.069L106.427 446.622C106.343 446.453 106.224 446.33 106.185 446.288C106.124 446.225 106.058 446.163 106 446.111C105.887 446.01 105.737 445.883 105.624 445.786C105.497 445.676 105.395 445.584 105.323 445.511C105.306 445.494 105.294 445.481 105.285 445.471C105.275 445.46 105.272 445.456 105.273 445.457C105.273 445.457 105.282 445.469 105.296 445.492C105.308 445.513 105.334 445.56 105.357 445.629L104.409 445.945ZM105.533 447.069L104.701 447.624C105.095 448.216 105.384 448.662 105.521 449.071L106.469 448.755L107.418 448.439C107.18 447.725 106.719 447.046 106.365 446.515L105.533 447.069ZM185.597 423.093L184.598 423.037L184.598 423.045L185.597 423.093ZM143.731 443.042L144.608 442.56L143.731 443.042ZM141.296 430.398L140.3 430.309L140.3 430.311L141.296 430.398ZM148.508 413.071L149.273 413.716L149.278 413.709L148.508 413.071ZM167.24 404.361L167.29 405.36L167.3 405.359L167.311 405.358L167.24 404.361ZM171.267 404.455L171.463 403.474L171.431 403.468L171.399 403.463L171.267 404.455ZM173.796 405.953L173.137 406.706L173.234 406.79L173.349 406.848L173.796 405.953ZM174.264 406.328L173.817 407.222L173.907 407.267L174.005 407.294L174.264 406.328ZM183.724 413.259L182.839 413.724L182.843 413.732L182.847 413.739L183.724 413.259ZM154.315 440.139L153.608 440.846L154.315 440.139ZM174.826 425.902L173.854 425.668L173.851 425.679L173.849 425.691L174.826 425.902ZM173.609 417.099L174.123 416.241L174.107 416.231L174.09 416.222L173.609 417.099ZM167.708 415.132L167.261 416.026L167.298 416.045L167.337 416.06L167.708 415.132ZM166.959 414.663V413.663H166.92L166.882 413.666L166.959 414.663ZM155.532 420.751L156.342 421.338L156.347 421.331L155.532 420.751ZM185.597 423.093L184.598 423.045C184.281 429.694 181.4 436.792 176.803 442.22C172.208 447.645 165.981 451.314 158.998 451.314V452.314V453.314C166.719 453.314 173.464 449.257 178.329 443.513C183.191 437.772 186.257 430.259 186.596 423.14L185.597 423.093ZM158.998 452.314V451.314C152.928 451.314 147.536 447.885 144.608 442.56L143.731 443.042L142.855 443.524C146.108 449.438 152.143 453.314 158.998 453.314V452.314ZM143.731 443.042L144.608 442.56C142.659 439.017 141.932 434.632 142.293 430.485L141.296 430.398L140.3 430.311C139.911 434.78 140.683 439.574 142.855 443.524L143.731 443.042ZM141.296 430.398L142.292 430.487C142.836 424.416 145.378 418.335 149.273 413.716L148.508 413.071L147.744 412.427C143.584 417.36 140.881 423.829 140.3 430.309L141.296 430.398ZM148.508 413.071L149.278 413.709C154.021 407.982 160.003 405.724 167.29 405.36L167.24 404.361L167.19 403.362C159.491 403.747 152.923 406.172 147.738 412.433L148.508 413.071ZM167.24 404.361L167.311 405.358C168.573 405.268 169.814 405.27 171.135 405.446L171.267 404.455L171.399 403.463C169.911 403.265 168.529 403.266 167.169 403.364L167.24 404.361ZM171.267 404.455L171.071 405.435C171.718 405.565 172.382 406.044 173.137 406.706L173.796 405.953L174.454 405.201C173.712 404.551 172.689 403.719 171.463 403.474L171.267 404.455ZM173.796 405.953L173.349 406.848C173.275 406.811 173.237 406.761 173.323 406.848C173.377 406.902 173.556 407.092 173.817 407.222L174.264 406.328L174.711 405.433C174.785 405.47 174.823 405.52 174.737 405.433C174.683 405.379 174.504 405.189 174.243 405.059L173.796 405.953ZM174.264 406.328L174.005 407.294C177.669 408.277 181.134 410.486 182.839 413.724L183.724 413.259L184.609 412.793C182.567 408.913 178.539 406.439 174.523 405.362L174.264 406.328ZM183.724 413.259L182.847 413.739C184.319 416.423 184.779 419.777 184.598 423.037L185.597 423.093L186.595 423.148C186.789 419.665 186.313 415.9 184.6 412.778L183.724 413.259ZM154.315 440.139L153.608 440.846C155.215 442.453 157.068 443.105 159.091 443.105V442.105V441.105C157.556 441.105 156.225 440.634 155.022 439.431L154.315 440.139ZM159.091 442.105V443.105C163.475 443.105 167.287 440.558 170.139 437.257C172.998 433.947 175.018 429.745 175.804 426.114L174.826 425.902L173.849 425.691C173.135 428.991 171.269 432.89 168.625 435.949C165.975 439.017 162.669 441.105 159.091 441.105V442.105ZM174.826 425.902L175.798 426.137C176.14 424.722 176.441 422.769 176.34 420.953C176.243 419.209 175.751 417.218 174.123 416.241L173.609 417.099L173.094 417.956C173.807 418.384 174.252 419.437 174.343 421.064C174.429 422.62 174.168 424.366 173.854 425.668L174.826 425.902ZM173.609 417.099L174.09 416.222C173.041 415.645 171.935 415.316 170.917 415.044C169.864 414.762 168.944 414.549 168.079 414.203L167.708 415.132L167.337 416.06C168.345 416.464 169.439 416.719 170.4 416.976C171.396 417.242 172.303 417.522 173.127 417.975L173.609 417.099ZM167.708 415.132L168.155 414.237C168.199 414.259 168.205 414.269 168.138 414.219C168.113 414.2 168.085 414.178 168.049 414.151C168.015 414.125 167.975 414.093 167.933 414.062C167.856 414.004 167.744 413.923 167.623 413.854C167.56 413.819 167.478 413.776 167.38 413.74C167.288 413.707 167.14 413.663 166.959 413.663V414.663V415.663C166.824 415.663 166.729 415.632 166.694 415.619C166.672 415.611 166.657 415.604 166.648 415.6C166.64 415.596 166.635 415.593 166.635 415.593C166.634 415.593 166.636 415.594 166.642 415.597C166.647 415.601 166.654 415.605 166.663 415.611C166.682 415.624 166.705 415.641 166.733 415.662C166.762 415.684 166.792 415.707 166.827 415.734C166.86 415.76 166.9 415.79 166.938 415.819C166.977 415.848 167.023 415.882 167.071 415.914C167.117 415.945 167.183 415.987 167.261 416.026L167.708 415.132ZM166.959 414.663L166.882 413.666C164.367 413.86 162.119 414.348 160.091 415.375C158.055 416.406 156.297 417.951 154.717 420.172L155.532 420.751L156.347 421.331C157.765 419.337 159.285 418.025 160.995 417.16C162.713 416.29 164.681 415.842 167.035 415.66L166.959 414.663ZM155.532 420.751L154.722 420.165C152.66 423.013 151.094 426.827 150.664 430.577C150.235 434.318 150.924 438.162 153.608 440.846L154.315 440.139L155.022 439.431C152.929 437.338 152.261 434.205 152.651 430.805C153.04 427.413 154.471 423.921 156.342 421.338L155.532 420.751ZM206.201 448.849L207.184 449.033L207.186 449.021L206.201 448.849ZM194.025 444.447L195.019 444.331L195.017 444.318L195.015 444.305L194.025 444.447ZM193.838 412.509L194.834 412.597L194.835 412.586L193.838 412.509ZM194.775 409.044L195.618 409.581L195.631 409.561L195.643 409.54L194.775 409.044ZM204.796 410.73H205.796V410.666L205.788 410.602L204.796 410.73ZM204.609 412.697L205.503 413.144L205.545 413.061L205.57 412.971L204.609 412.697ZM204.047 413.914L205.045 413.975L205.047 413.944V413.914H204.047ZM203.672 423.28L202.673 423.251L204.534 423.787L203.672 423.28ZM214.724 411.011L215.302 411.827L215.313 411.819L215.324 411.811L214.724 411.011ZM232.987 417.005L231.997 417.141L231.998 417.15L231.999 417.159L232.987 417.005ZM234.205 442.48H235.205L235.205 442.469L234.205 442.48ZM234.486 444.353L233.537 444.669L233.542 444.684L233.548 444.699L234.486 444.353ZM232.519 449.879L232.89 450.808L232.981 450.771L233.062 450.719L232.519 449.879ZM231.02 450.535L230.824 449.554L230.734 449.572L230.649 449.606L231.02 450.535ZM224.745 447.912L225.649 447.484L225.633 447.449L225.614 447.416L224.745 447.912ZM223.902 443.51L222.903 443.532L222.903 443.553L222.904 443.573L223.902 443.51ZM222.685 418.035L223.669 417.86L223.408 416.392L222.149 417.191L222.685 418.035ZM206.201 448.849L205.218 448.664C204.95 450.094 204.498 451.39 203.784 452.31C203.105 453.184 202.171 453.749 200.769 453.749V454.749V455.749C202.832 455.749 204.333 454.863 205.363 453.536C206.359 452.255 206.89 450.6 207.184 449.033L206.201 448.849ZM200.769 454.749V453.749C199.647 453.749 198.803 453.425 198.139 452.913C197.459 452.39 196.914 451.629 196.478 450.688C195.595 448.781 195.254 446.358 195.019 444.331L194.025 444.447L193.032 444.562C193.265 446.563 193.627 449.292 194.663 451.529C195.187 452.66 195.907 453.719 196.919 454.498C197.946 455.289 199.222 455.749 200.769 455.749V454.749ZM194.025 444.447L195.015 444.305C194.278 439.143 194.276 433.876 194.276 428.525H193.276H192.276C192.276 433.851 192.274 439.261 193.035 444.588L194.025 444.447ZM193.276 428.525H194.276C194.276 423.195 194.37 417.891 194.834 412.597L193.838 412.509L192.842 412.422C192.37 417.804 192.276 423.177 192.276 428.525H193.276ZM193.838 412.509L194.835 412.586C194.927 411.394 195.103 410.39 195.618 409.581L194.775 409.044L193.931 408.507C193.135 409.758 192.937 411.19 192.841 412.433L193.838 412.509ZM194.775 409.044L195.643 409.54C196.571 407.916 198.094 407.234 199.551 407.234V406.234V405.234C197.45 405.234 195.226 406.239 193.906 408.548L194.775 409.044ZM199.551 406.234V407.234C201.659 407.234 203.504 408.53 203.804 410.858L204.796 410.73L205.788 410.602C205.339 407.123 202.501 405.234 199.551 405.234V406.234ZM204.796 410.73H203.796C203.796 411.406 203.79 411.922 203.647 412.422L204.609 412.697L205.57 412.971C205.802 412.16 205.796 411.365 205.796 410.73H204.796ZM204.609 412.697L203.714 412.249C203.697 412.283 203.66 412.353 203.597 412.473C203.539 412.583 203.468 412.72 203.398 412.858C203.33 412.994 203.257 413.146 203.199 413.285C203.17 413.354 203.139 413.434 203.113 413.516C203.095 413.573 203.047 413.729 203.047 413.914H204.047H205.047C205.047 413.997 205.035 414.057 205.031 414.076C205.026 414.101 205.021 414.115 205.021 414.115C205.021 414.117 205.022 414.112 205.026 414.101C205.03 414.09 205.036 414.076 205.044 414.058C205.076 413.98 205.126 413.874 205.187 413.753C205.247 413.634 205.31 413.512 205.366 413.406C205.417 413.309 205.473 413.203 205.503 413.144L204.609 412.697ZM204.047 413.914L203.049 413.854C202.86 416.962 202.766 420.068 202.673 423.251L203.672 423.28L204.672 423.309C204.765 420.123 204.859 417.048 205.045 413.975L204.047 413.914ZM203.672 423.28L204.534 423.787C207.282 419.115 210.937 414.918 215.302 411.827L214.724 411.011L214.146 410.195C209.519 413.472 205.681 417.892 202.81 422.773L203.672 423.28ZM214.724 411.011L215.324 411.811C216.596 410.857 218.201 409.818 219.881 409.023C221.576 408.221 223.271 407.702 224.745 407.702V406.702V405.702C222.848 405.702 220.844 406.355 219.026 407.215C217.194 408.082 215.474 409.198 214.124 410.211L214.724 411.011ZM224.745 406.702V407.702C227.255 407.702 228.855 408.862 229.953 410.597C231.089 412.392 231.675 414.794 231.997 417.141L232.987 417.005L233.978 416.869C233.644 414.439 233.012 411.69 231.643 409.528C230.236 407.305 228.043 405.702 224.745 405.702V406.702ZM232.987 417.005L231.999 417.159C233.296 425.497 233.111 433.92 233.205 442.491L234.205 442.48L235.205 442.469C235.112 433.994 235.301 425.372 233.975 416.851L232.987 417.005ZM234.205 442.48H233.205C233.205 443.224 233.31 443.989 233.537 444.669L234.486 444.353L235.435 444.037C235.287 443.594 235.205 443.048 235.205 442.48H234.205ZM234.486 444.353L233.548 444.699C233.767 445.295 233.73 446.163 233.406 447.055C233.082 447.944 232.54 448.674 231.976 449.039L232.519 449.879L233.062 450.719C234.09 450.053 234.859 448.911 235.285 447.739C235.71 446.57 235.86 445.19 235.424 444.007L234.486 444.353ZM232.519 449.879L232.148 448.951C231.862 449.065 231.531 449.244 231.323 449.348C231.063 449.477 230.913 449.536 230.824 449.554L231.02 450.535L231.217 451.515C231.596 451.439 231.961 451.264 232.217 451.136C232.524 450.983 232.708 450.881 232.89 450.808L232.519 449.879ZM231.02 450.535L230.649 449.606C230.392 449.709 230.033 449.722 229.522 449.722V450.722V451.722C229.948 451.722 230.713 451.735 231.392 451.463L231.02 450.535ZM229.522 450.722V449.722C227.865 449.722 226.296 448.85 225.649 447.484L224.745 447.912L223.842 448.34C224.88 450.533 227.245 451.722 229.522 451.722V450.722ZM224.745 447.912L225.614 447.416C225.009 446.358 225.002 445.066 224.9 443.448L223.902 443.51L222.904 443.573C222.991 444.951 222.983 446.844 223.877 448.408L224.745 447.912ZM223.902 443.51L224.902 443.488C224.717 435.162 225.186 426.39 223.669 417.86L222.685 418.035L221.7 418.21C223.181 426.538 222.713 435 222.903 443.532L223.902 443.51ZM222.685 418.035L222.149 417.191C210.234 424.747 207.466 435.831 205.216 448.676L206.201 448.849L207.186 449.021C209.431 436.205 212.096 425.934 223.22 418.88L222.685 418.035ZM252.113 398.18L251.505 397.385L251.492 397.395L251.479 397.406L252.113 398.18ZM243.496 394.714L242.497 394.767L242.499 394.789L242.501 394.81L243.496 394.714ZM245.463 389.75L246.244 390.375L246.258 390.357L246.272 390.338L245.463 389.75ZM254.267 391.811L255.215 391.495L255.207 391.47L255.198 391.446L254.267 391.811ZM255.953 449.973L254.963 449.831L254.961 449.84L254.96 449.849L255.953 449.973ZM244.245 444.634L243.249 444.717L243.25 444.727L244.245 444.634ZM244.714 417.66L243.718 417.57L243.716 417.584L243.716 417.598L244.714 417.66ZM245.557 414.757L246.389 415.312L246.406 415.285L246.422 415.258L245.557 414.757ZM255.11 416.256L254.132 416.465L254.135 416.482L254.14 416.498L255.11 416.256ZM255.016 418.784L256.014 418.855L256.016 418.82V418.784H255.016ZM254.454 442.855L253.457 442.924L253.457 442.935L253.458 442.945L254.454 442.855ZM254.735 445.758L253.74 445.858L253.758 446.041L253.841 446.205L254.735 445.758ZM255.11 446.226L254.215 446.674L254.23 446.702L254.246 446.73L255.11 446.226ZM252.113 398.18L251.479 397.406C250.637 398.094 249.647 398.397 248.741 398.397V399.397V400.397C250.083 400.397 251.527 399.95 252.746 398.953L252.113 398.18ZM248.741 399.397V398.397C246.576 398.397 244.717 396.953 244.491 394.618L243.496 394.714L242.501 394.81C242.837 398.282 245.661 400.397 248.741 400.397V399.397ZM243.496 394.714L244.495 394.662C244.42 393.246 245.177 391.708 246.244 390.375L245.463 389.75L244.682 389.126C243.501 390.602 242.385 392.624 242.497 394.767L243.496 394.714ZM245.463 389.75L246.272 390.338C246.501 390.023 246.979 389.669 247.612 389.389C248.236 389.112 248.869 388.971 249.303 388.971V387.971V386.971C248.519 386.971 247.607 387.204 246.803 387.56C246.007 387.912 245.174 388.447 244.654 389.162L245.463 389.75ZM249.303 387.971V388.971C250.932 388.971 252.597 390.287 253.336 392.175L254.267 391.811L255.198 391.446C254.251 389.026 251.982 386.971 249.303 386.971V387.971ZM254.267 391.811L253.318 392.127C253.548 392.816 253.473 393.857 253.09 394.943C252.708 396.023 252.098 396.932 251.505 397.385L252.113 398.18L252.72 398.974C253.72 398.209 254.514 396.917 254.976 395.609C255.435 394.307 255.642 392.773 255.215 391.495L254.267 391.811ZM255.953 449.973L254.96 449.849C254.659 452.257 252.733 453.562 250.614 453.562V454.562V455.562C253.553 455.562 256.497 453.682 256.945 450.097L255.953 449.973ZM250.614 454.562V453.562C249.505 453.562 248.69 453.255 248.063 452.78C247.421 452.294 246.915 451.586 246.515 450.698C245.704 448.893 245.43 446.572 245.241 444.542L244.245 444.634L243.25 444.727C243.435 446.723 243.724 449.367 244.691 451.518C245.182 452.609 245.869 453.628 246.855 454.374C247.855 455.131 249.101 455.562 250.614 455.562V454.562ZM244.245 444.634L245.242 444.551C244.5 435.648 245.148 426.737 245.712 417.723L244.714 417.66L243.716 417.598C243.155 426.566 242.492 435.638 243.249 444.717L244.245 444.634ZM244.714 417.66L245.71 417.751C245.8 416.754 245.972 415.937 246.389 415.312L245.557 414.757L244.725 414.202C244.017 415.263 243.814 416.506 243.718 417.57L244.714 417.66ZM245.557 414.757L246.422 415.258C247.259 413.812 248.694 413.135 250.052 413.135V412.135V411.135C248.038 411.135 245.914 412.144 244.691 414.256L245.557 414.757ZM250.052 412.135V413.135C251.953 413.135 253.675 414.333 254.132 416.465L255.11 416.256L256.088 416.046C255.42 412.933 252.834 411.135 250.052 411.135V412.135ZM255.11 416.256L254.14 416.498C254.186 416.686 254.185 416.951 254.139 417.377C254.1 417.741 254.016 418.291 254.016 418.784H255.016H256.016C256.016 418.435 256.073 418.095 256.127 417.592C256.175 417.152 256.22 416.575 256.08 416.013L255.11 416.256ZM255.016 418.784L254.019 418.714C253.457 426.664 252.889 434.788 253.457 442.924L254.454 442.855L255.452 442.785C254.895 434.812 255.451 426.827 256.014 418.855L255.016 418.784ZM254.454 442.855L253.458 442.945C253.552 443.981 253.646 444.921 253.74 445.858L254.735 445.758L255.73 445.659C255.636 444.722 255.543 443.789 255.45 442.764L254.454 442.855ZM254.735 445.758L253.841 446.205C253.971 446.466 254.161 446.645 254.215 446.699C254.302 446.785 254.252 446.747 254.215 446.674L255.11 446.226L256.004 445.779C255.874 445.518 255.684 445.339 255.63 445.285C255.543 445.199 255.593 445.237 255.63 445.311L254.735 445.758ZM255.11 446.226L254.246 446.73C254.821 447.715 255.11 448.8 254.963 449.831L255.953 449.973L256.943 450.114C257.17 448.523 256.71 446.985 255.974 445.722L255.11 446.226ZM280.25 448.755L281.212 448.484L281.206 448.461L281.198 448.439L280.25 448.755ZM266.95 439.951L267.949 439.894L267.948 439.886L267.948 439.878L266.95 439.951ZM267.699 401.645L266.701 401.588L266.7 401.601L267.699 401.645ZM267.699 391.717L266.704 391.812L266.705 391.821L266.706 391.831L267.699 391.717ZM270.978 386.66L270.584 385.74L270.566 385.748L270.549 385.756L270.978 386.66ZM278.189 391.717L279.189 391.702L279.189 391.694L279.189 391.687L278.189 391.717ZM277.534 410.542L276.535 410.483L276.535 410.491L277.534 410.542ZM277.065 421.688L276.066 421.663L276.009 423.941L277.724 422.44L277.065 421.688ZM301.604 410.355L302.422 409.78L302.418 409.774L301.604 410.355ZM299.918 417.848L300.411 418.718L300.424 418.71L300.437 418.703L299.918 417.848ZM281.936 431.054L281.283 430.296L279.781 431.591L281.715 432.029L281.936 431.054ZM296.827 434.425L297.09 433.461L297.083 433.459L296.827 434.425ZM306.006 437.422L305.69 438.371L305.701 438.375L305.712 438.378L306.006 437.422ZM308.722 440.139L309.622 439.702L309.616 439.691L308.722 440.139ZM303.758 447.257L303.888 446.265L303.878 446.264L303.868 446.263L303.758 447.257ZM299.075 445.852L299.426 444.915L299.416 444.912L299.407 444.908L299.075 445.852ZM277.627 440.607L277.87 439.637L277.75 439.607H277.627V440.607ZM277.346 440.513V439.513H276.241L276.351 440.613L277.346 440.513ZM278.189 445.945L277.222 446.2L277.23 446.231L277.241 446.262L278.189 445.945ZM279.313 447.069L278.419 447.516L278.447 447.572L278.481 447.624L279.313 447.069ZM280.25 448.755L279.287 449.027C280.116 451.964 277.702 454.686 274.911 454.686V455.686V456.686C278.863 456.686 282.444 452.852 281.212 448.484L280.25 448.755ZM274.911 455.686V454.686C272.185 454.686 270.493 452.567 269.422 449.331C268.367 446.146 268.089 442.335 267.949 439.894L266.95 439.951L265.952 440.009C266.092 442.438 266.376 446.494 267.523 449.959C268.653 453.373 270.8 456.686 274.911 456.686V455.686ZM266.95 439.951L267.948 439.878C267.017 427.218 268.134 414.486 268.699 401.689L267.699 401.645L266.7 401.601C266.141 414.279 265.011 427.209 265.953 440.025L266.95 439.951ZM267.699 401.645L268.698 401.702C268.884 398.438 269.079 394.981 268.693 391.604L267.699 391.717L266.706 391.831C267.069 395.01 266.889 398.296 266.701 401.588L267.699 401.645ZM267.699 391.717L268.695 391.622C268.631 390.945 268.889 390.122 269.428 389.329C269.963 388.542 270.699 387.898 271.406 387.563L270.978 386.66L270.549 385.756C269.477 386.264 268.48 387.165 267.774 388.205C267.072 389.238 266.581 390.522 266.704 391.812L267.699 391.717ZM270.978 386.66L271.371 387.579C271.872 387.364 272.387 387.285 272.944 387.285V386.285V385.285C272.191 385.285 271.394 385.393 270.584 385.74L270.978 386.66ZM272.944 386.285V387.285C275.164 387.285 277.111 389.145 277.19 391.747L278.189 391.717L279.189 391.687C279.08 388.107 276.345 385.285 272.944 385.285V386.285ZM278.189 391.717L277.189 391.732C277.282 397.964 276.91 404.201 276.535 410.483L277.534 410.542L278.532 410.602C278.906 404.333 279.283 398.021 279.189 391.702L278.189 391.717ZM277.534 410.542L276.535 410.491C276.348 414.143 276.16 417.902 276.066 421.663L277.065 421.688L278.065 421.713C278.158 417.981 278.345 414.247 278.532 410.594L277.534 410.542ZM277.065 421.688L277.724 422.44C279.198 421.151 283.341 417.775 287.545 414.723C289.648 413.198 291.746 411.767 293.522 410.722C294.411 410.199 295.201 409.784 295.858 409.502C296.545 409.208 296.982 409.107 297.202 409.107V408.107V407.107C296.556 407.107 295.807 407.349 295.071 407.664C294.306 407.992 293.435 408.453 292.508 408.999C290.652 410.09 288.495 411.563 286.371 413.105C282.122 416.188 277.93 419.602 276.407 420.935L277.065 421.688ZM297.202 408.107V409.107C298.564 409.107 300.041 409.887 300.79 410.936L301.604 410.355L302.418 409.774C301.294 408.2 299.211 407.107 297.202 407.107V408.107ZM301.604 410.355L300.786 410.931C302.207 412.95 301.565 415.678 299.399 416.993L299.918 417.848L300.437 418.703C303.516 416.833 304.56 412.818 302.422 409.78L301.604 410.355ZM299.918 417.848L299.425 416.978C293.064 420.586 286.73 425.6 281.283 430.296L281.936 431.054L282.589 431.811C288.005 427.141 294.222 422.228 300.411 418.718L299.918 417.848ZM281.936 431.054L281.715 432.029C286.728 433.164 291.628 434.086 296.572 435.392L296.827 434.425L297.083 433.459C292.099 432.142 287.071 431.191 282.156 430.078L281.936 431.054ZM296.827 434.425L296.564 435.39C299.62 436.223 302.552 437.325 305.69 438.371L306.006 437.422L306.322 436.474C303.279 435.459 300.216 434.313 297.09 433.461L296.827 434.425ZM306.006 437.422L305.712 438.378C306.526 438.629 307.3 439.53 307.828 440.586L308.722 440.139L309.616 439.691C309.02 438.499 307.921 436.965 306.3 436.467L306.006 437.422ZM308.722 440.139L307.822 440.575C308.427 441.819 308.188 443.33 307.351 444.531C306.514 445.732 305.21 446.439 303.888 446.265L303.758 447.257L303.628 448.248C305.865 448.542 307.839 447.329 308.992 445.674C310.146 444.018 310.61 441.736 309.621 439.702L308.722 440.139ZM303.758 447.257L303.868 446.263C302.34 446.093 300.995 445.504 299.426 444.915L299.075 445.852L298.724 446.788C300.152 447.324 301.804 448.046 303.648 448.25L303.758 447.257ZM299.075 445.852L299.407 444.908C295.882 443.67 292.251 442.793 288.634 442.006C284.997 441.215 281.41 440.522 277.87 439.637L277.627 440.607L277.385 441.577C280.963 442.472 284.634 443.183 288.209 443.961C291.804 444.743 295.338 445.599 298.744 446.795L299.075 445.852ZM277.627 440.607V439.607C277.768 439.607 277.869 439.641 277.908 439.656C277.943 439.669 277.967 439.682 277.934 439.666C277.92 439.659 277.849 439.622 277.768 439.591C277.682 439.559 277.534 439.513 277.346 439.513V440.513V441.513C277.206 441.513 277.104 441.479 277.065 441.464C277.031 441.451 277.007 441.438 277.04 441.454C277.054 441.461 277.125 441.498 277.206 441.529C277.291 441.561 277.44 441.607 277.627 441.607V440.607ZM277.346 440.513L276.351 440.613C276.538 442.478 276.731 444.333 277.222 446.2L278.189 445.945L279.156 445.691C278.711 443.999 278.529 442.295 278.341 440.414L277.346 440.513ZM278.189 445.945L277.241 446.262C277.305 446.454 277.409 446.599 277.468 446.676C277.537 446.766 277.612 446.848 277.679 446.915C277.812 447.05 277.967 447.187 278.098 447.299C278.242 447.424 278.35 447.514 278.442 447.597C278.486 447.637 278.509 447.66 278.519 447.669C278.548 447.701 278.48 447.638 278.419 447.516L279.313 447.069L280.208 446.622C280.123 446.453 280.005 446.33 279.965 446.288C279.905 446.225 279.838 446.163 279.78 446.111C279.668 446.01 279.518 445.883 279.405 445.786C279.277 445.676 279.175 445.584 279.103 445.511C279.087 445.494 279.074 445.481 279.065 445.471C279.056 445.46 279.052 445.456 279.053 445.457C279.054 445.457 279.063 445.469 279.076 445.492C279.089 445.513 279.115 445.56 279.138 445.629L278.189 445.945ZM279.313 447.069L278.481 447.624C278.876 448.216 279.164 448.662 279.301 449.071L280.25 448.755L281.198 448.439C280.96 447.725 280.5 447.046 280.145 446.515L279.313 447.069ZM359.377 423.093L358.379 423.037L358.378 423.045L359.377 423.093ZM317.512 443.042L318.388 442.56L317.512 443.042ZM315.077 430.398L314.081 430.309L314.081 430.311L315.077 430.398ZM322.289 413.071L323.053 413.716L323.059 413.709L322.289 413.071ZM341.02 404.361L341.07 405.36L341.081 405.359L341.091 405.358L341.02 404.361ZM345.048 404.455L345.244 403.474L345.212 403.468L345.18 403.463L345.048 404.455ZM347.576 405.953L346.918 406.706L347.014 406.79L347.129 406.848L347.576 405.953ZM348.045 406.328L347.597 407.222L347.688 407.267L347.785 407.294L348.045 406.328ZM357.504 413.259L356.619 413.724L356.623 413.732L356.627 413.739L357.504 413.259ZM328.095 440.139L327.388 440.846L328.095 440.139ZM348.607 425.902L347.634 425.668L347.632 425.679L347.629 425.691L348.607 425.902ZM347.389 417.099L347.904 416.241L347.887 416.231L347.871 416.222L347.389 417.099ZM341.489 415.132L341.041 416.026L341.079 416.045L341.117 416.06L341.489 415.132ZM340.739 414.663V413.663H340.701L340.663 413.666L340.739 414.663ZM329.313 420.751L330.123 421.338L330.128 421.331L329.313 420.751ZM359.377 423.093L358.378 423.045C358.062 429.694 355.18 436.792 350.583 442.22C345.989 447.645 339.761 451.314 332.778 451.314V452.314V453.314C340.5 453.314 347.244 449.257 352.109 443.513C356.971 437.772 360.037 430.259 360.376 423.14L359.377 423.093ZM332.778 452.314V451.314C326.708 451.314 321.317 447.885 318.388 442.56L317.512 443.042L316.636 443.524C319.888 449.438 325.923 453.314 332.778 453.314V452.314ZM317.512 443.042L318.388 442.56C316.439 439.017 315.712 434.632 316.073 430.485L315.077 430.398L314.081 430.311C313.692 434.78 314.464 439.574 316.636 443.524L317.512 443.042ZM315.077 430.398L316.073 430.487C316.616 424.416 319.158 418.335 323.053 413.716L322.289 413.071L321.524 412.427C317.364 417.36 314.661 423.829 314.081 430.309L315.077 430.398ZM322.289 413.071L323.059 413.709C327.801 407.982 333.783 405.724 341.07 405.36L341.02 404.361L340.97 403.362C333.272 403.747 326.704 406.172 321.518 412.433L322.289 413.071ZM341.02 404.361L341.091 405.358C342.353 405.268 343.594 405.27 344.915 405.446L345.048 404.455L345.18 403.463C343.691 403.265 342.309 403.266 340.949 403.364L341.02 404.361ZM345.048 404.455L344.851 405.435C345.498 405.565 346.162 406.044 346.918 406.706L347.576 405.953L348.235 405.201C347.492 404.551 346.47 403.719 345.244 403.474L345.048 404.455ZM347.576 405.953L347.129 406.848C347.055 406.811 347.017 406.761 347.103 406.848C347.158 406.902 347.336 407.092 347.597 407.222L348.045 406.328L348.492 405.433C348.566 405.47 348.604 405.52 348.518 405.433C348.463 405.379 348.285 405.189 348.024 405.059L347.576 405.953ZM348.045 406.328L347.785 407.294C351.45 408.277 354.915 410.486 356.619 413.724L357.504 413.259L358.389 412.793C356.347 408.913 352.32 406.439 348.304 405.362L348.045 406.328ZM357.504 413.259L356.627 413.739C358.099 416.423 358.56 419.777 358.379 423.037L359.377 423.093L360.376 423.148C360.569 419.665 360.093 415.9 358.381 412.778L357.504 413.259ZM328.095 440.139L327.388 440.846C328.995 442.453 330.849 443.105 332.872 443.105V442.105V441.105C331.336 441.105 330.005 440.634 328.802 439.431L328.095 440.139ZM332.872 442.105V443.105C337.256 443.105 341.067 440.558 343.919 437.257C346.779 433.947 348.799 429.745 349.584 426.114L348.607 425.902L347.629 425.691C346.916 428.991 345.049 432.89 342.406 435.949C339.756 439.017 336.449 441.105 332.872 441.105V442.105ZM348.607 425.902L349.579 426.137C349.92 424.722 350.221 422.769 350.12 420.953C350.023 419.209 349.532 417.218 347.904 416.241L347.389 417.099L346.875 417.956C347.588 418.384 348.033 419.437 348.123 421.064C348.21 422.62 347.949 424.366 347.634 425.668L348.607 425.902ZM347.389 417.099L347.871 416.222C346.822 415.645 345.715 415.316 344.697 415.044C343.644 414.762 342.724 414.549 341.86 414.203L341.489 415.132L341.117 416.06C342.126 416.464 343.22 416.719 344.18 416.976C345.176 417.242 346.083 417.522 346.907 417.975L347.389 417.099ZM341.489 415.132L341.936 414.237C341.979 414.259 341.986 414.269 341.919 414.219C341.893 414.2 341.865 414.178 341.829 414.151C341.796 414.125 341.755 414.093 341.714 414.062C341.636 414.004 341.525 413.923 341.403 413.854C341.341 413.819 341.258 413.776 341.161 413.74C341.069 413.707 340.921 413.663 340.739 413.663V414.663V415.663C340.605 415.663 340.509 415.632 340.474 415.619C340.453 415.611 340.437 415.604 340.429 415.6C340.42 415.596 340.415 415.593 340.415 415.593C340.415 415.593 340.417 415.594 340.422 415.597C340.427 415.601 340.434 415.605 340.443 415.611C340.462 415.624 340.485 415.641 340.514 415.662C340.543 415.684 340.573 415.707 340.608 415.734C340.641 415.76 340.68 415.79 340.719 415.819C340.757 415.848 340.803 415.882 340.852 415.914C340.898 415.945 340.964 415.987 341.041 416.026L341.489 415.132ZM340.739 414.663L340.663 413.666C338.147 413.86 335.9 414.348 333.872 415.375C331.835 416.406 330.077 417.951 328.498 420.172L329.313 420.751L330.128 421.331C331.546 419.337 333.066 418.025 334.775 417.16C336.494 416.29 338.461 415.842 340.816 415.66L340.739 414.663ZM329.313 420.751L328.503 420.165C326.44 423.013 324.875 426.827 324.444 430.577C324.015 434.318 324.705 438.162 327.388 440.846L328.095 440.139L328.802 439.431C326.709 437.338 326.041 434.205 326.431 430.805C326.821 427.413 328.252 423.921 330.123 421.338L329.313 420.751ZM381.667 432.178L380.672 432.078L380.672 432.081L381.667 432.178ZM372.676 435.081L373.439 434.435L373.433 434.427L373.426 434.419L372.676 435.081ZM369.304 414.944L368.305 414.962L368.305 414.966L369.304 414.944ZM369.304 399.116L370.304 399.134L370.304 399.125V399.116H369.304ZM369.117 398.367H370.117V398.272L370.099 398.18L369.117 398.367ZM370.99 392.56L371.649 393.313L371.674 393.291L371.697 393.267L370.99 392.56ZM379.607 416.443L378.607 416.458L378.607 416.465L379.607 416.443ZM381.199 429.368L380.244 429.665L380.247 429.674L380.25 429.684L381.199 429.368ZM378.951 453.719L379.576 454.5L379.581 454.495L379.587 454.491L378.951 453.719ZM372.114 453.532L372.783 452.788L372.766 452.773L372.749 452.759L372.114 453.532ZM372.395 445.009L371.77 444.228L371.757 444.238L371.744 444.25L372.395 445.009ZM378.108 444.353L378.565 443.463L378.556 443.459L378.108 444.353ZM381.667 432.178L380.672 432.081C380.445 434.427 378.576 435.86 376.516 435.86V436.86V437.86C379.513 437.86 382.328 435.735 382.663 432.274L381.667 432.178ZM376.516 436.86V435.86C375.384 435.86 374.266 435.412 373.439 434.435L372.676 435.081L371.913 435.727C373.146 437.185 374.839 437.86 376.516 437.86V436.86ZM372.676 435.081L373.426 434.419C372.89 433.812 372.38 432.625 371.945 430.946C371.521 429.308 371.202 427.344 370.965 425.318C370.49 421.268 370.351 417.067 370.304 414.923L369.304 414.944L368.305 414.966C368.352 417.13 368.493 421.405 368.978 425.55C369.221 427.622 369.552 429.685 370.009 431.448C370.455 433.17 371.057 434.758 371.926 435.743L372.676 435.081ZM369.304 414.944L370.304 414.927C370.211 409.694 370.211 404.367 370.304 399.134L369.304 399.116L368.305 399.098C368.211 404.355 368.211 409.705 368.305 414.962L369.304 414.944ZM369.304 399.116H370.304C370.304 398.756 370.179 398.469 370.139 398.37C370.085 398.235 370.117 398.288 370.117 398.367H369.117H368.117C368.117 398.727 368.243 399.014 368.282 399.113C368.336 399.248 368.304 399.195 368.304 399.116H369.304ZM369.117 398.367L370.099 398.18C369.948 397.382 370.019 396.427 370.305 395.518C370.592 394.606 371.069 393.82 371.649 393.313L370.99 392.56L370.332 391.807C369.413 392.611 368.766 393.745 368.397 394.917C368.028 396.092 367.912 397.384 368.135 398.554L369.117 398.367ZM370.99 392.56L371.697 393.267C372.427 392.537 373.475 392.155 374.456 392.155V391.155V390.155C373.001 390.155 371.426 390.71 370.283 391.853L370.99 392.56ZM374.456 391.155V392.155C376.186 392.155 377.142 392.832 377.723 393.784C378.354 394.816 378.607 396.282 378.607 397.899H379.607H380.607C380.607 396.143 380.345 394.238 379.43 392.741C378.466 391.164 376.846 390.155 374.456 390.155V391.155ZM379.607 397.899H378.607C378.607 404.059 378.513 410.268 378.607 416.458L379.607 416.443L380.607 416.428C380.513 410.255 380.607 404.101 380.607 397.899H379.607ZM379.607 416.443L378.607 416.465C378.701 420.77 378.886 425.301 380.244 429.665L381.199 429.368L382.154 429.071C380.889 425.006 380.7 420.733 380.607 416.421L379.607 416.443ZM381.199 429.368L380.25 429.684C380.529 430.519 380.743 431.371 380.672 432.078L381.667 432.178L382.662 432.277C382.779 431.111 382.431 429.903 382.148 429.052L381.199 429.368ZM378.951 453.719L378.327 452.938C377.591 453.527 376.602 453.843 375.579 453.843V454.843V455.843C376.992 455.843 378.439 455.41 379.576 454.5L378.951 453.719ZM375.579 454.843V453.843C374.595 453.843 373.526 453.457 372.783 452.788L372.114 453.532L371.445 454.275C372.576 455.292 374.129 455.843 375.579 455.843V454.843ZM372.114 453.532L372.749 452.759C370.693 451.07 370.807 447.687 373.046 445.768L372.395 445.009L371.744 444.25C368.738 446.826 368.291 451.685 371.479 454.304L372.114 453.532ZM372.395 445.009L373.02 445.79C373.796 445.169 374.797 444.791 375.767 444.791V443.791V442.791C374.302 442.791 372.868 443.35 371.77 444.228L372.395 445.009ZM375.767 443.791V444.791C376.446 444.791 377.043 444.939 377.661 445.248L378.108 444.353L378.556 443.459C377.675 443.018 376.773 442.791 375.767 442.791V443.791ZM378.108 444.353L377.652 445.243C380.617 446.764 380.987 450.747 378.316 452.947L378.951 453.719L379.587 454.491C383.285 451.446 382.905 445.689 378.565 443.463L378.108 444.353Z" fill="black" mask="url(#path-11-outside-2_47_13)"/>
</svg>
