<svg width="63" height="47" viewBox="0 0 63 47" fill="none" xmlns="http://www.w3.org/2000/svg">
<path d="M55.8535 1.27051C57.1914 1.27051 58.3678 1.78191 59.3281 2.7334C60.2974 3.69386 60.8096 4.88377 60.8096 6.24023C60.8095 7.59547 60.2969 8.78217 59.3281 9.74023L59.3291 9.74121L25.5098 43.3447L25.5078 43.3467C24.5476 44.298 23.3719 44.8095 22.0342 44.8096C20.6962 44.8096 19.5199 44.2982 18.5596 43.3467L2.70898 27.6406C1.73162 26.6721 1.23232 25.4686 1.27246 24.1006C1.31192 22.7583 1.84019 21.5837 2.80176 20.6309C3.77236 19.6692 4.9684 19.1647 6.32715 19.168C7.59642 19.1711 8.72287 19.6132 9.65625 20.4561L9.84082 20.6299L9.8457 20.6348L22.0361 32.7998L52.3799 2.7334C53.3401 1.78206 54.5158 1.27061 55.8535 1.27051Z" fill="#89DFA5" stroke="black" stroke-width="2.54"/>
</svg>
