<svg width="103" height="106" viewBox="0 0 103 106" fill="none" xmlns="http://www.w3.org/2000/svg">
<path d="M51.0938 3C54.481 3 57.7581 4.20456 60.3389 6.39844H60.3379L94.1582 35.1436H94.1592C95.7353 36.4834 97.0009 38.1507 97.8691 40.0283C98.7374 41.9059 99.1874 43.95 99.1875 46.0186V90.9736C99.1874 94.0691 97.9574 97.0377 95.7686 99.2266C93.5797 101.415 90.6111 102.646 87.5156 102.646H73.6406C70.5451 102.646 67.5766 101.415 65.3877 99.2266C63.1989 97.0377 61.9688 94.0691 61.9688 90.9736V68.4268C61.9688 67.3855 61.5559 66.3864 60.8213 65.6484C60.1325 64.9567 59.2134 64.5464 58.2432 64.4941L58.0488 64.4893H44.1367L43.9424 64.4951C42.9724 64.5478 42.0536 64.9576 41.3652 65.6494C40.6311 66.3873 40.2187 67.3859 40.2188 68.4268V90.9736C40.2187 92.5063 39.9166 94.0244 39.3301 95.4404C38.7435 96.8564 37.8835 98.1428 36.7998 99.2266C35.716 100.31 34.4297 101.17 33.0137 101.757C31.5976 102.343 30.0797 102.646 28.5469 102.646H14.6719C11.5764 102.646 8.60783 101.415 6.41895 99.2266C4.23011 97.0377 3.00008 94.0691 3 90.9736V46.0186L3.00488 45.6309C3.05754 43.6949 3.50437 41.7886 4.31836 40.0283C5.18665 38.1507 6.45219 36.4834 8.02832 35.1436H8.0293L41.8486 6.39844C44.4294 4.20456 47.7065 3 51.0938 3Z" fill="#FBFFE3" stroke="black" stroke-width="6"/>
</svg>
