<svg width="91" height="94" viewBox="0 0 91 94" fill="none" xmlns="http://www.w3.org/2000/svg">
<path d="M37.792 2.68418C39.8303 0.951414 42.4185 0 45.0938 0C47.769 0 50.3572 0.951414 52.3955 2.68418L86.2158 31.4297C87.4606 32.488 88.4606 33.8042 89.1464 35.2871C89.8322 36.7701 90.1874 38.3845 90.1875 40.0183V84.9733C90.1875 87.2733 89.2739 89.479 87.6476 91.1053C86.0213 92.7316 83.8156 93.6452 81.5156 93.6452H67.6406C65.3407 93.6452 63.135 92.7316 61.5087 91.1053C59.8824 89.479 58.9688 87.2733 58.9688 84.9733V62.4265C58.9688 60.5919 58.2421 58.8321 56.9478 57.5319C55.6536 56.2318 53.897 55.4972 52.0625 55.489H38.1216C36.2876 55.4981 34.532 56.2331 33.2384 57.5331C31.9449 58.8332 31.2187 60.5925 31.2188 62.4265V84.9733C31.2188 86.1122 30.9944 87.2398 30.5586 88.2919C30.1228 89.344 29.4841 90.3 28.6788 91.1053C27.8736 91.9105 26.9176 92.5493 25.8655 92.9851C24.8133 93.4209 23.6857 93.6452 22.5469 93.6452H8.67188C6.37195 93.6452 4.16623 92.7316 2.53993 91.1053C0.913641 89.479 0 87.2733 0 84.9733V40.0183C9.12661e-05 38.3845 0.355333 36.7701 1.04112 35.2871C1.72692 33.8042 2.72686 32.488 3.97172 31.4297L37.792 2.68418Z" fill="#FBFFE3"/>
</svg>
