<svg width="35" height="34" viewBox="0 0 35 34" fill="none" xmlns="http://www.w3.org/2000/svg">
<path d="M17.5 20.6198L4.45817 33.289C3.97021 33.763 3.34918 34 2.59506 34C1.84094 34 1.2199 33.763 0.731938 33.289C0.243979 32.815 0 32.2117 0 31.4791C0 30.7465 0.243979 30.1432 0.731938 29.6692L13.7738 17L0.731938 4.3308C0.243979 3.85678 0 3.25349 0 2.52091C0 1.78834 0.243979 1.18504 0.731938 0.711026C1.2199 0.237008 1.84094 0 2.59506 0C3.34918 0 3.97021 0.237008 4.45817 0.711026L17.5 13.3802L30.5418 0.711026C31.0298 0.237008 31.6508 0 32.4049 0C33.1591 0 33.7801 0.237008 34.2681 0.711026C34.756 1.18504 35 1.78834 35 2.52091C35 3.25349 34.756 3.85678 34.2681 4.3308L21.2262 17L34.2681 29.6692C34.756 30.1432 35 30.7465 35 31.4791C35 32.2117 34.756 32.815 34.2681 33.289C33.7801 33.763 33.1591 34 32.4049 34C31.6508 34 31.0298 33.763 30.5418 33.289L17.5 20.6198Z" fill="black"/>
</svg>
