<svg width="62" height="62" viewBox="0 0 62 62" fill="none" xmlns="http://www.w3.org/2000/svg">
<path d="M2 13.6C2 10.5235 3.22214 7.57298 5.39756 5.39756C7.57298 3.22214 10.5235 2 13.6 2H48.4C51.4765 2 54.427 3.22214 56.6024 5.39756C58.7779 7.57298 60 10.5235 60 13.6V48.4C60 51.4765 58.7779 54.427 56.6024 56.6024C54.427 58.7779 51.4765 60 48.4 60H13.6C10.5235 60 7.57298 58.7779 5.39756 56.6024C3.22214 54.427 2 51.4765 2 48.4V13.6Z" stroke="#B89292" stroke-width="4" stroke-linecap="round" stroke-linejoin="round"/>
<path d="M20.8501 28.1001C24.8542 28.1001 28.1001 24.8542 28.1001 20.8501C28.1001 16.846 24.8542 13.6001 20.8501 13.6001C16.846 13.6001 13.6001 16.846 13.6001 20.8501C13.6001 24.8542 16.846 28.1001 20.8501 28.1001Z" stroke="#B89292" stroke-width="4" stroke-linecap="round" stroke-linejoin="round"/>
<path d="M38.3255 32.7999L13.6001 59.999H48.7858C51.76 59.999 54.6124 58.8175 56.7155 56.7144C58.8186 54.6113 60.0001 51.7589 60.0001 48.7847V48.399C60.0001 47.0476 59.4926 46.5285 58.5791 45.528L46.8921 32.7825C46.3474 32.1883 45.6849 31.7142 44.9467 31.3904C44.2086 31.0666 43.411 30.9002 42.605 30.9019C41.7989 30.9035 41.0021 31.0731 40.2652 31.3999C39.5284 31.7267 38.8678 32.2035 38.3255 32.7999Z" stroke="#B89292" stroke-width="4" stroke-linecap="round" stroke-linejoin="round"/>
</svg>
