<svg width="71" height="71" viewBox="0 0 71 71" fill="none" xmlns="http://www.w3.org/2000/svg">
<circle cx="35.5" cy="35.5" r="35.5" fill="#95F37A"/>
<circle cx="47.7031" cy="27.7344" r="3.32812" fill="black"/>
<circle cx="23.2969" cy="27.7344" r="3.32812" fill="black"/>
<path d="M44.7324 40H27.2034C26.5777 40 26.1057 40.5745 26.2455 41.1843C29.5488 55.5895 41.5913 55.6052 45.6781 41.2314C45.8549 40.6096 45.3788 40 44.7324 40Z" stroke="black" stroke-width="2.22"/>
<circle cx="13.5" cy="41.5" r="5.5" fill="#FFAAD3"/>
<circle cx="58.5" cy="40.5" r="5.5" fill="#FFAAD3"/>
<circle cx="47.7031" cy="27.7344" r="3.32812" fill="black"/>
<circle cx="23.2969" cy="27.7344" r="3.32812" fill="black"/>
<path d="M44.7324 40H27.2034C26.5777 40 26.1057 40.5745 26.2455 41.1843C29.5488 55.5895 41.5913 55.6052 45.6781 41.2314C45.8549 40.6096 45.3788 40 44.7324 40Z" stroke="black" stroke-width="2.22"/>
<circle cx="13.5" cy="41.5" r="5.5" fill="#FFAAD3"/>
<circle cx="58.5" cy="40.5" r="5.5" fill="#FFAAD3"/>
</svg>
