<svg width="58" height="62" viewBox="0 0 58 62" fill="none" xmlns="http://www.w3.org/2000/svg">
<path d="M5.43359 1.5127L5.44531 1.51367C18.1189 2.84839 24.6753 8.35996 28.002 13.7568C31.2467 19.0211 31.2972 23.9752 31.2979 24.2812L31.2891 24.793C31.127 28.9626 28.7654 31.892 27.3955 33.249C27.9309 34.8411 28.4226 36.5748 28.8438 38.4541C29.99 37.4374 31.1381 36.5601 32.2441 35.8047C32.1462 34.4683 32.3136 32.7675 33.2627 31.0771L33.5049 30.6768C34.465 29.1873 38.2438 24.2121 45.9609 24.2119C48.7858 24.2119 51.7892 24.9128 54.8613 26.2188H54.8623C55.8441 26.6297 56.5101 27.5819 56.498 28.6875H56.5C56.5 28.6929 56.4991 28.6987 56.499 28.7041C56.4989 28.7109 56.4992 28.7178 56.499 28.7246L56.498 28.7236C56.4833 29.8217 55.7922 30.7455 54.8389 31.1445L54.7852 31.167C54.7761 31.1711 54.7643 31.1769 54.75 31.1836C54.6875 31.2128 54.5859 31.2622 54.4551 31.334C54.1925 31.4781 53.8217 31.7053 53.4121 32.0225C52.5871 32.6613 51.6548 33.6284 51.0908 34.9824L51.0889 34.9814C50.952 35.3168 50.2852 36.7834 49.0889 38.3008C47.8581 39.8619 45.8945 41.6942 43.1787 42.1416C43.172 42.143 43.1645 42.1458 43.1562 42.1475C43.1319 42.1523 43.1008 42.1576 43.0635 42.1641C42.9886 42.177 42.8878 42.1922 42.7637 42.207C42.5151 42.2368 42.1701 42.2646 41.7471 42.2646C40.1488 42.2646 37.8116 41.8946 34.9854 40.4102C33.1277 41.7128 31.4316 43.2297 29.9336 44.9297C30.0917 46.2914 30.2093 47.7079 30.2803 49.1865C36.8891 49.519 44.1947 51.2652 51.5938 55.5322H51.5928C52.8871 56.2678 53.3019 57.9158 52.5771 59.1699L52.5654 59.1895C52.2055 59.7906 51.6257 60.2261 50.9512 60.4072C50.2769 60.5882 49.5582 60.5015 48.9463 60.1641L48.9346 60.1572L48.9229 60.1514C37.835 53.7726 27.0468 53.7301 18.9668 55.3096C14.9236 56.1 11.5689 57.2953 9.2168 58.2988C8.04174 58.8002 7.11951 59.2525 6.49023 59.5801C5.86137 59.9075 5.52734 60.1094 5.52734 60.1094L5.50098 60.126L5.47266 60.1406C4.87349 60.471 4.17087 60.5599 3.50879 60.3896C2.84636 60.2192 2.27186 59.802 1.90723 59.2207C1.54244 58.6391 1.41577 57.9388 1.55469 57.2656L1.61914 57.0176C1.79514 56.448 2.1575 55.9517 2.65039 55.6104L2.68555 55.5859L2.72168 55.5645C2.96103 55.418 12.0787 49.9329 24.9277 49.2002C24.8456 47.6478 24.7023 46.099 24.4961 44.5576L24.4629 44.3086C23.9473 40.5729 23.1275 37.3596 22.1719 34.6426C15.0392 34.2836 11.4471 31.5397 10.7646 30.9561C7.59268 28.4889 6.37732 24.6625 5.91797 21.6348C5.45351 18.5733 5.7147 16.0267 5.74805 15.7529C6.43398 10.038 3.07284 5.81771 3.05859 5.79883V5.79785C2.74662 5.39493 2.55477 4.91143 2.50977 4.40234C2.4635 3.87833 2.5742 3.35277 2.82617 2.8916C3.07815 2.43049 3.46026 2.0542 3.92383 1.80957L4.10059 1.72461C4.45874 1.568 4.84677 1.49184 5.2373 1.50098L5.43359 1.5127Z" fill="#89DFA6" stroke="black" stroke-width="3"/>
</svg>
