<svg width="129" height="120" viewBox="0 0 129 120" fill="none" xmlns="http://www.w3.org/2000/svg">
<path d="M23.3321 86.3921L1.8916 108.463C1.8916 108.463 14.9766 117.449 26.3274 118.868C37.6783 120.287 53.9163 117.765 53.9163 117.765L23.3321 86.3921Z" fill="#6092D8"/>
<path d="M1.57617 107.675L22.6697 86.5815C23.2933 85.9579 24.3071 85.9671 24.9193 86.6019L53.6009 116.346" stroke="black" stroke-width="3.15301" stroke-linecap="round"/>
<path d="M35.1557 78.1942L26.6426 88.2839L36.4169 98.3735L46.8219 108.463C52.8126 105.468 55.9656 99.6347 60.8528 93.171C65.7399 86.7074 64.4787 48.3983 61.641 45.4029C58.8033 42.4075 56.8064 43.4585 56.1232 43.1958C59.2763 33.1587 65.0778 10.7828 63.6905 5.99023C61.9563 -0.000490665 53.6008 0.945413 53.2855 4.41373C52.9702 7.88204 43.8265 34.8403 40.0429 42.0922C37.016 47.8938 35.5236 68.5775 35.1557 78.1942Z" fill="#FFEFC9"/>
<path d="M56.1232 43.1958C59.2763 33.1587 65.0778 10.7828 63.6905 5.99023C61.9563 -0.000490648 53.6008 0.945413 53.2855 4.41373C52.9702 7.88204 43.8265 34.8403 40.0429 42.0922C37.016 47.8938 35.5236 68.5775 35.1557 78.1942L26.6426 88.2839L36.4169 98.3735L46.8219 108.463C52.8126 105.468 55.9656 99.6347 60.8528 93.171C65.7399 86.7074 64.4787 48.3983 61.641 45.4029C58.8033 42.4075 56.8064 43.4585 56.1232 43.1958ZM56.1232 43.1958C50.0695 42.3129 50.5529 61.4307 51.5514 71.0999" stroke="black" stroke-width="3.15301" stroke-linecap="round"/>
<path d="M36.8903 98.2159C43.5747 101.243 56.912 90.0181 62.745 84.0273L58.8036 96.3241L46.6647 108.936C40.6214 104.102 30.2059 95.189 36.8903 98.2159Z" fill="#DEAB7E"/>
<path d="M56.1232 43.1958C59.2763 33.1587 65.0778 10.7828 63.6905 5.99023C61.9563 -0.000490648 53.6008 0.945413 53.2855 4.41373C52.9702 7.88204 43.8265 34.8403 40.0429 42.0922C37.016 47.8938 35.5236 68.5775 35.1557 78.1942L26.6426 88.2839L36.4169 98.3735L46.8219 108.463C52.8126 105.468 55.9656 99.6347 60.8528 93.171C65.7399 86.7074 64.4787 48.3983 61.641 45.4029C58.8033 42.4075 56.8064 43.4585 56.1232 43.1958ZM56.1232 43.1958C50.0695 42.3129 50.5529 61.4307 51.5514 71.0999" stroke="black" stroke-width="3.15301" stroke-linecap="round"/>
<path d="M104.82 86.3179L126.261 108.389C126.261 108.389 113.176 117.375 101.825 118.794C90.4741 120.213 74.236 117.69 74.236 117.69L104.82 86.3179Z" fill="#6092D8"/>
<path d="M126.576 107.601L105.483 86.5073C104.859 85.8837 103.845 85.8929 103.233 86.5277L74.5515 116.272" stroke="black" stroke-width="3.15301" stroke-linecap="round"/>
<path d="M92.9966 78.12L101.51 88.2096L91.7354 98.2993L81.3305 108.389C75.3398 105.394 72.1868 99.5605 67.2996 93.0968C62.4124 86.6331 63.6736 48.324 66.5113 45.3287C69.349 42.3333 71.3459 43.3843 72.0291 43.1216C68.8761 33.0845 63.0745 10.7086 64.4619 5.91601C66.196 -0.0747094 74.5515 0.871194 74.8668 4.33951C75.1821 7.80782 84.3258 34.7661 88.1095 42.018C91.1364 47.8195 92.6288 68.5033 92.9966 78.12Z" fill="#FFEFC9"/>
<path d="M72.0291 43.1216C68.8761 33.0845 63.0745 10.7086 64.4619 5.91601C66.196 -0.0747094 74.5515 0.871194 74.8668 4.33951C75.1821 7.80782 84.3258 34.7661 88.1095 42.018C91.1364 47.8195 92.6288 68.5033 92.9966 78.12L101.51 88.2096L91.7354 98.2993L81.3305 108.389C75.3398 105.394 72.1868 99.5605 67.2996 93.0968C62.4124 86.6331 63.6736 48.324 66.5113 45.3287C69.349 42.3333 71.3459 43.3843 72.0291 43.1216ZM72.0291 43.1216C78.0829 42.2387 77.5994 61.3565 76.601 71.0257" stroke="black" stroke-width="3.15301" stroke-linecap="round"/>
<path d="M91.262 98.1417C84.5776 101.169 71.2404 89.9438 65.4073 83.9531L69.3488 96.2499L81.4877 108.862C87.5309 104.027 97.9464 95.1148 91.262 98.1417Z" fill="#DEAB7E"/>
<path d="M72.0291 43.1216C68.8761 33.0845 63.0745 10.7086 64.4619 5.91601C66.196 -0.0747094 74.5515 0.871194 74.8668 4.33951C75.1821 7.80782 84.3258 34.7661 88.1095 42.018C91.1364 47.8195 92.6288 68.5033 92.9966 78.12L101.51 88.2096L91.7354 98.2993L81.3305 108.389C75.3398 105.394 72.1868 99.5605 67.2996 93.0968C62.4124 86.6331 63.6736 48.324 66.5113 45.3287C69.349 42.3333 71.3459 43.3843 72.0291 43.1216ZM72.0291 43.1216C78.0829 42.2387 77.5994 61.3565 76.601 71.0257" stroke="black" stroke-width="3.15301" stroke-linecap="round"/>
</svg>
