<svg width="153" height="116" viewBox="0 0 153 116" fill="none" xmlns="http://www.w3.org/2000/svg">
<path d="M140.938 85.7432C149.438 99.4921 113.065 115.991 78.6931 115.991C46.8186 115.991 -3.42528 105.492 20.9476 85.7432C15.9482 71.9943 46.8012 55.4956 78.6931 55.4956C110.585 55.4956 140.938 69.0379 140.938 85.7432Z" fill="#A7EF99"/>
<mask id="path-2-outside-1_41_138" maskUnits="userSpaceOnUse" x="29.9468" y="29.7471" width="94" height="54" fill="black">
<rect fill="white" x="29.9468" y="29.7471" width="94" height="54"/>
<path d="M77.0679 32.7471C101.436 32.7471 121.19 52.5015 121.19 76.8691C121.19 78.2602 121.123 79.636 120.997 80.9941H33.1401C33.0142 79.636 32.9468 78.2602 32.9468 76.8691C32.9468 52.5017 52.7005 32.7473 77.0679 32.7471Z"/>
</mask>
<path d="M77.0679 32.7471C101.436 32.7471 121.19 52.5015 121.19 76.8691C121.19 78.2602 121.123 79.636 120.997 80.9941H33.1401C33.0142 79.636 32.9468 78.2602 32.9468 76.8691C32.9468 52.5017 52.7005 32.7473 77.0679 32.7471Z" fill="#FFE66A"/>
<path d="M77.0679 32.7471V30.2473H77.0678L77.0679 32.7471ZM121.19 76.8691L123.69 76.8692V76.8691H121.19ZM120.997 80.9941V83.4939H123.275L123.486 81.225L120.997 80.9941ZM33.1401 80.9941L30.651 81.225L30.8614 83.4939H33.1401V80.9941ZM32.9468 76.8691H30.447V76.8692L32.9468 76.8691ZM77.0679 32.7471V35.2469C100.055 35.2469 118.69 53.8821 118.69 76.8691H121.19H123.69C123.69 51.1209 102.816 30.2473 77.0679 30.2473V32.7471ZM121.19 76.8691L118.69 76.8691C118.69 78.1794 118.627 79.4781 118.507 80.7633L120.997 80.9941L123.486 81.225C123.618 79.7939 123.69 78.341 123.69 76.8692L121.19 76.8691ZM120.997 80.9941V78.4943H33.1401V80.9941V83.4939H120.997V80.9941ZM33.1401 80.9941L35.6293 80.7633C35.5101 79.4781 35.4466 78.1794 35.4466 76.8691L32.9468 76.8691L30.447 76.8692C30.447 78.341 30.5183 79.7939 30.651 81.225L33.1401 80.9941ZM32.9468 76.8691H35.4466C35.4466 53.8822 54.0811 35.2471 77.0679 35.2469L77.0679 32.7471L77.0678 30.2473C51.3198 30.2475 30.447 51.1211 30.447 76.8691H32.9468Z" fill="black" mask="url(#path-2-outside-1_41_138)"/>
<path d="M76.4644 1.25C78.2306 1.24999 80.0702 2.0829 81.0815 2.6123C82.18 3.18749 82.6886 4.36904 82.5552 5.4873L80.4429 23.1836C80.2938 24.4327 79.3775 25.4543 78.1519 25.7373C77.3186 25.9296 76.4528 25.934 75.6177 25.75L75.4341 25.71C74.2625 25.4518 73.3717 24.4971 73.1948 23.3105L70.5757 5.73926C70.4421 4.84326 70.7566 3.86851 71.5601 3.26074C72.0389 2.89852 72.7513 2.40929 73.5776 2.00586C74.3904 1.60907 75.4045 1.25009 76.4644 1.25Z" fill="#FFBA4B" stroke="black" stroke-width="2.4998"/>
<path d="M142.27 35.9757C143.269 37.4326 143.622 39.421 143.757 40.5545C143.903 41.7857 143.216 42.8732 142.218 43.3952L126.426 51.6562C125.312 52.2393 123.951 52.0609 123.025 51.2099C122.395 50.6313 121.902 49.9195 121.582 49.1266L121.511 48.9525C121.062 47.8402 121.346 46.5656 122.224 45.749L135.238 33.6558C135.902 33.0391 136.884 32.7475 137.839 33.0667C138.409 33.257 139.215 33.5681 140.015 34.0217C140.802 34.4678 141.671 35.1014 142.27 35.9757Z" fill="#FFBA4B" stroke="black" stroke-width="2.4998"/>
<path d="M9.44529 38.7849C10.3904 37.2927 12.0783 36.1843 13.0667 35.6132C14.1404 34.993 15.4107 35.1955 16.284 35.9066L30.1037 47.1599C31.0792 47.9542 31.452 49.2748 31.0353 50.4618C30.7519 51.2686 30.2923 52.0024 29.69 52.6094L29.5579 52.7431C28.713 53.5947 27.4298 53.8365 26.3327 53.351L10.087 46.1618C9.25857 45.7952 8.60336 45.0079 8.51982 44.004C8.47006 43.4056 8.43792 42.542 8.53924 41.628C8.6389 40.7291 8.87824 39.6804 9.44529 38.7849Z" fill="#FFBA4B" stroke="black" stroke-width="2.4998"/>
<path d="M112.664 11.6788C114.139 12.4927 115.327 13.9755 115.975 14.8873C116.721 15.9364 116.605 17.2734 115.914 18.2168L106.382 31.2422C105.631 32.2692 104.313 32.7112 103.095 32.3444C102.324 32.1124 101.61 31.7221 100.998 31.1995L100.858 31.0797C99.9342 30.2906 99.5951 29.0122 100.007 27.8691L105.474 12.6916C105.796 11.7988 106.591 11.0678 107.643 10.9586C108.226 10.898 109.048 10.8504 109.922 10.9237C110.784 10.9961 111.782 11.1921 112.664 11.6788Z" fill="#FFBA4B" stroke="black" stroke-width="2.4998"/>
<path d="M151.249 67.3002C151.419 68.9758 150.876 70.7969 150.495 71.8486C150.057 73.0587 148.891 73.7241 147.723 73.6932L131.588 73.2673C130.316 73.2337 129.202 72.4018 128.81 71.191C128.563 70.4254 128.477 69.6162 128.559 68.8156L128.578 68.6321C128.701 67.4234 129.559 66.4171 130.733 66.105L146.325 61.9639C147.242 61.7203 148.296 61.9582 148.984 62.7613C149.366 63.2067 149.873 63.8551 150.31 64.6156C150.741 65.3654 151.148 66.2981 151.249 67.3002Z" fill="#FFBA4B" stroke="black" stroke-width="2.4998"/>
<path d="M1.28905 69.7128C1.49679 68.0415 2.43188 66.3871 3.03755 65.4467C3.73456 64.3647 5.01894 63.9756 6.15127 64.266L21.7859 68.2757C23.0186 68.5918 23.9185 69.6508 24.0308 70.9184C24.1017 71.72 24.0047 72.5279 23.7468 73.2902L23.6877 73.4649C23.2984 74.6158 22.2376 75.4057 21.0234 75.4483L4.90105 76.012C3.95262 76.0451 2.97859 75.5786 2.48613 74.6422C2.21304 74.1229 1.86363 73.3779 1.60695 72.5392C1.3539 71.7122 1.16484 70.7123 1.28905 69.7128Z" fill="#FFBA4B" stroke="black" stroke-width="2.4998"/>
<path d="M38.1481 12.6193C39.6071 11.7779 41.4908 11.5272 42.6063 11.4438C43.8898 11.3481 44.9743 12.1386 45.4249 13.2172L51.6466 28.1104C52.1372 29.2847 51.8344 30.641 50.8904 31.4945C50.2935 32.0342 49.5903 32.4436 48.8266 32.6972L48.6515 32.7553C47.4984 33.1381 46.2289 32.7676 45.4631 31.8242L35.2978 19.2978C34.6998 18.5609 34.4852 17.5024 34.9357 16.5451C35.1855 16.0143 35.5695 15.2865 36.0841 14.5762C36.5916 13.8759 37.2756 13.1225 38.1481 12.6193Z" fill="#FFBA4B" stroke="black" stroke-width="2.4998"/>
<circle cx="66.0691" cy="44.1218" r="3.12475" fill="black"/>
<circle cx="90.0671" cy="44.1218" r="3.12475" fill="black"/>
<path d="M72.0684 52.4956C72.0684 59.4951 84.3174 60.37 85.0673 52.4956" stroke="black" stroke-width="2.4998" stroke-linecap="round"/>
<circle cx="101.691" cy="55.496" r="7.24942" fill="#FFAAD3"/>
<circle cx="55.4447" cy="55.496" r="7.24942" fill="#FFAAD3"/>
<rect x="26.6973" y="80.9937" width="98.9921" height="10.7491" fill="#A7EF99"/>
</svg>
