<svg width="119" height="126" viewBox="0 0 119 126" fill="none" xmlns="http://www.w3.org/2000/svg">
<mask id="path-1-outside-1_67_719" maskUnits="userSpaceOnUse" x="-0.968262" y="9.02393" width="120" height="117" fill="black">
<rect fill="white" x="-0.968262" y="9.02393" width="120" height="117"/>
<path d="M75.0862 13.5298C74.8635 13.3153 75.0798 12.9433 75.3742 13.0377C98.5442 20.4637 115.264 41.637 115.264 66.5991C115.264 97.7474 89.2308 122.998 57.1167 122.999C32.5785 122.999 11.592 108.255 3.0551 87.404C2.9387 87.1197 3.28814 86.8762 3.52011 87.0776C12.7524 95.0944 24.946 99.9722 38.3169 99.9722C67.1311 99.9722 90.4897 77.3316 90.4897 49.4028C90.4897 35.379 84.5987 22.6901 75.0862 13.5298Z"/>
</mask>
<path d="M75.0862 13.5298C74.8635 13.3153 75.0798 12.9433 75.3742 13.0377C98.5442 20.4637 115.264 41.637 115.264 66.5991C115.264 97.7474 89.2308 122.998 57.1167 122.999C32.5785 122.999 11.592 108.255 3.0551 87.404C2.9387 87.1197 3.28814 86.8762 3.52011 87.0776C12.7524 95.0944 24.946 99.9722 38.3169 99.9722C67.1311 99.9722 90.4897 77.3316 90.4897 49.4028C90.4897 35.379 84.5987 22.6901 75.0862 13.5298Z" fill="#FFEB86"/>
<path d="M115.264 66.5991L118.264 66.5991L118.264 66.5991L115.264 66.5991ZM57.1167 122.999L57.1167 125.999L57.1167 125.999L57.1167 122.999ZM38.3169 99.9722L38.3169 102.972H38.3169V99.9722ZM90.4897 49.4028L93.4897 49.4028V49.4028H90.4897ZM3.0551 87.404L0.278776 88.5407L3.0551 87.404ZM3.52011 87.0776L1.55315 89.3428L3.52011 87.0776ZM75.3742 13.0377L74.4586 15.8946L75.3742 13.0377ZM75.0862 13.5298L77.1672 11.3689L75.0862 13.5298ZM75.3742 13.0377L74.4586 15.8946C96.4723 22.95 112.264 43.0289 112.264 66.5991L115.264 66.5991L118.264 66.5991C118.264 40.2451 100.616 17.9774 76.2899 10.1808L75.3742 13.0377ZM115.264 66.5991H112.264C112.264 96.0049 87.6609 119.998 57.1167 119.999L57.1167 122.999L57.1167 125.999C90.8007 125.998 118.264 99.4899 118.264 66.5991H115.264ZM57.1167 122.999V119.999C33.795 119.999 13.9063 105.99 5.83142 86.2674L3.0551 87.404L0.278776 88.5407C9.27759 110.52 31.362 125.999 57.1167 125.999V122.999ZM3.52011 87.0776L1.55315 89.3428C11.318 97.8221 24.206 102.972 38.3169 102.972L38.3169 99.9722L38.3169 96.9722C25.686 96.9722 14.1868 92.3668 5.48707 84.8125L3.52011 87.0776ZM38.3169 99.9722V102.972C68.699 102.972 93.4897 79.0761 93.4897 49.4028L90.4897 49.4028L87.4897 49.4028C87.4897 75.5872 65.5632 96.9722 38.3169 96.9722V99.9722ZM90.4897 49.4028H93.4897C93.4897 34.516 87.2316 21.0607 77.1672 11.3689L75.0862 13.5298L73.0053 15.6907C81.9658 24.3195 87.4897 36.242 87.4897 49.4028H90.4897ZM3.0551 87.404L5.83142 86.2674C6.98831 89.0931 3.5553 91.0814 1.55315 89.3428L3.52011 87.0776L5.48707 84.8125C3.02099 82.6711 -1.11092 85.1464 0.278776 88.5407L3.0551 87.404ZM75.3742 13.0377L76.2899 10.1808C72.7997 9.06223 70.6226 13.3962 73.0053 15.6907L75.0862 13.5298L77.1672 11.3689C79.1045 13.2344 77.36 16.8244 74.4586 15.8946L75.3742 13.0377Z" fill="black" mask="url(#path-1-outside-1_67_719)"/>
<path d="M91.354 76.3643C89.5404 81.3884 98.1061 85.1902 100.685 79.7323" stroke="black" stroke-width="2.91468" stroke-linecap="round"/>
<path d="M107.384 82.7764C105.571 87.8005 111.254 90.562 113.656 85.0404" stroke="black" stroke-width="2.91468" stroke-linecap="round"/>
<path d="M32.8784 51.1113C33.4679 49.2858 35.9886 49.229 36.6987 50.9404L36.7622 51.1113L38.5562 56.6719L44.2319 56.7256C46.1709 56.7437 46.9939 59.2023 45.4565 60.3838L40.8315 63.9355L42.5562 69.6133C43.1271 71.4937 40.9701 73.0152 39.3901 71.8467L34.8198 68.4658L30.2505 71.8467C28.6705 73.0152 26.5136 71.4937 27.0845 69.6133L28.8081 63.9355L24.1851 60.3838C22.6472 59.2024 23.4695 56.7437 25.4087 56.7256L31.0835 56.6729L32.8784 51.1113Z" fill="#93DAEE" stroke="black" stroke-width="2.91468"/>
<path d="M49.3147 5.29866C50.6274 3.89979 52.9309 4.92494 52.8421 6.77571L52.8265 6.95735L52.0738 12.7514L57.183 15.224C58.9285 16.0685 58.6227 18.6431 56.728 19.0548L51.0291 20.2911L50.1637 26.1616C49.8768 28.1057 47.2766 28.5603 46.3471 26.8289L43.6584 21.82L38.0829 22.9255C36.1552 23.3074 34.8547 21.0104 36.174 19.5539L40.1573 15.1561L37.494 9.97019C36.6079 8.24519 38.4016 6.37318 40.1628 7.18498L45.3165 9.56089L49.3147 5.29866Z" fill="#92DAEE" stroke="black" stroke-width="2.91468"/>
<circle cx="97.0485" cy="95.4562" r="3.06041" stroke="black" stroke-width="2.91468"/>
</svg>
