<svg width="136" height="147" viewBox="0 0 136 147" fill="none" xmlns="http://www.w3.org/2000/svg">
<circle cx="21.8781" cy="75.3811" r="20.8781" fill="#FF9D51" stroke="black" stroke-width="2"/>
<path d="M110.014 31.3304L118.527 39.6445L24.3216 133.851C23.3019 134.871 21.8432 135.32 20.4267 135.05C19.3631 134.847 18.5681 133.955 18.4889 132.875L18.4252 131.991C18.3641 131.156 18.6471 130.332 19.209 129.711L108.156 31.3875C108.647 30.845 109.49 30.8193 110.014 31.3304Z" fill="#A3CFFA" stroke="black" stroke-width="2"/>
<path d="M112.19 46.1251L103.668 37.2212L109.392 30.8613L118.932 39.7652L112.19 46.1251Z" fill="#85C78D" stroke="black" stroke-width="2"/>
<path d="M110.014 31.3304L118.527 39.6445L24.3216 133.851C23.3019 134.871 21.8432 135.32 20.4267 135.05C19.3631 134.847 18.5681 133.955 18.4889 132.875L18.4252 131.991C18.3641 131.156 18.6471 130.332 19.209 129.711L108.156 31.3875C108.647 30.845 109.49 30.8193 110.014 31.3304Z" stroke="black" stroke-width="2"/>
<rect x="48.412" y="13.1346" width="43.7483" height="28.8565" rx="1.2896" transform="rotate(-15.7842 48.412 13.1346)" fill="#E15F5F" stroke="black" stroke-width="2"/>
<path d="M92.8553 26.5361L59.7837 36.2032" stroke="black" stroke-width="2" stroke-linecap="round"/>
<path d="M20.0976 54.521C16.7904 55.4114 14.6781 60.7569 13.8649 63.8065C12.8473 67.6224 3.56179 77.7983 1.39941 76.6535" stroke="black" stroke-width="2" stroke-linecap="round"/>
<path d="M42.6118 73.7267C29.0014 69.5291 3.3071 72.2003 22.8961 95.9864M7.12305 89.7537C7.71664 81.3162 14.297 63.9579 34.3435 58.9717" stroke="black" stroke-width="2" stroke-linecap="round"/>
<path d="M4.8335 63.4238C10.4091 71.8189 25.8688 86.3537 38.4139 88.6091" stroke="black" stroke-width="2" stroke-linecap="round"/>
<path d="M64.4899 71.8183L22.6416 28.9525L28.6199 21.7021L71.3586 65.0768L64.4899 71.8183Z" fill="#8F6060"/>
<path d="M128.981 35.5674C125.801 39.3834 120.798 39.553 118.042 39.0018C115.286 36.585 109.774 31.6751 109.774 31.3699C109.774 30.9883 109.01 30.7339 109.774 25.3915C110.393 21.0587 114.943 17.8241 119.059 16.742C123.175 15.66 134.145 13.4858 134.45 14.1981C134.832 15.0885 132.292 31.5944 128.981 35.5674Z" fill="#FFFED6"/>
<path d="M124.401 31.6243C122.154 33.4474 117.202 36.9411 115.37 36.3306C113.081 35.5674 111.3 31.3699 115.625 24.8827M118.042 39.0018C120.798 39.553 125.801 39.3834 128.981 35.5674C132.292 31.5944 134.832 15.0885 134.45 14.1981C134.145 13.4858 123.175 15.66 119.059 16.742C114.943 17.8241 110.393 21.0587 109.774 25.3915C109.01 30.7339 109.774 30.9883 109.774 31.3699C109.774 31.6751 115.286 36.585 118.042 39.0018Z" stroke="black" stroke-width="2" stroke-linecap="round"/>
<path d="M127.582 24.5006C130.024 21.1425 131.991 23.3558 132.669 24.8822L133.942 21.8294V14.0703L123.002 16.4871C123.85 17.3351 124.91 19.4381 122.366 21.0662C119.186 23.1014 124.529 28.6981 127.582 24.5006Z" fill="#FFADAD"/>
<path d="M83.8244 55.5387C77.0065 52.893 69.3662 61.3051 66.3982 65.8418C50.4984 73.6009 55.1128 84.9158 57.4944 88.3559C59.7839 91.6631 64.7445 93.1894 68.5604 95.8606C72.3764 98.5318 72.1532 99.4982 73.1396 102.348C74.2844 105.655 75.4293 112.651 76.4469 117.103C77.4645 121.555 80.39 127.787 89.0395 132.494C95.9591 136.259 105.575 132.027 109.518 129.441C111.935 128.127 119.109 122.674 128.471 111.379C140.173 97.2598 131.142 84.7944 126.054 80.724C120.966 76.6537 114.988 76.0177 108.501 74.8729C102.014 73.7281 97.8162 71.6929 95.2722 68.6402C92.7283 65.5874 92.3467 58.8459 83.8244 55.5387Z" fill="#EAC07B" stroke="black" stroke-width="2" stroke-linecap="round"/>
<circle cx="82.2982" cy="81.867" r="9.30307" fill="#8F6060" stroke="black" stroke-width="2"/>
<path d="M15.8532 4.53555L13.4018 2.0506C12.6854 1.32444 11.5067 1.3472 10.8189 2.10048L2.58597 11.1175C1.92839 11.8377 1.97244 12.9529 2.68479 13.619L5.16281 15.9361L9.63211 20.1152L14.36 24.536L18.0884 28.0223C19.6709 29.5021 22.1665 29.369 23.5827 27.7293L28.3524 22.2064C29.6528 20.7007 29.5782 18.4486 28.181 17.0323L25.0281 13.8362L20.5976 9.34497L15.8532 4.53555Z" fill="#EAC07B"/>
<path d="M29.1287 22.0842L99.9782 93.4425M22.5143 29.2073L93.3639 100.566M26.8391 11.9083L22.8959 16.1058M17.172 3.13161L13.2289 7.32916M22.1328 7.71075L18.1896 11.9083M16.6632 22.0842L12.7201 26.2817M12.0841 17.505L8.14093 21.7026M7.63214 13.3075L3.68899 17.505M26.0759 25.6457L96.9254 97.004M2.68479 13.619L18.0884 28.0223C19.6709 29.5021 22.1665 29.369 23.5827 27.7293L28.3524 22.2064C29.6528 20.7007 29.5782 18.4486 28.181 17.0323L13.4018 2.0506C12.6854 1.32444 11.5067 1.3472 10.8189 2.10048L2.58597 11.1175C1.92839 11.8377 1.97244 12.9529 2.68479 13.619Z" stroke="black" stroke-width="2" stroke-linecap="round"/>
<mask id="path-18-inside-1_43_391" fill="white">
<rect x="107.739" y="86.5742" width="7.46378" height="29.379" rx="1.272" transform="rotate(44.8909 107.739 86.5742)"/>
</mask>
<rect x="107.739" y="86.5742" width="7.46378" height="29.379" rx="1.272" transform="rotate(44.8909 107.739 86.5742)" fill="#8F6060" stroke="black" stroke-width="4" mask="url(#path-18-inside-1_43_391)"/>
<path d="M103.286 37.3477L111.808 45.8699" stroke="black" stroke-width="2" stroke-linecap="round"/>
<path d="M81.9165 26.9174C79.169 27.8332 77.5918 30.7334 76.7014 32.8957C73.267 29.9702 69.1967 30.8606 67.2887 31.6237C65.8808 32.1869 61.4066 35.1021 58.8573 36.8156C58.5644 37.0124 58.1659 36.8593 58.0791 36.5173L52.2385 13.5124C52.1061 12.9908 52.2588 12.44 52.6744 12.0981C53.6847 11.267 55.6927 9.78945 58.8936 7.83765C63.0657 5.29368 67.9247 6.43846 69.8327 7.32885C69.4226 5.80246 75.3022 2.49531 78.4822 2.24091C80.8985 2.0476 85.2658 2.60405 87.4419 2.95103C87.641 2.98278 87.7998 3.13019 87.8497 3.32557L93.5934 25.8216C93.7272 26.3457 93.2898 26.8405 92.7522 26.7808C89.6024 26.4313 84.345 26.1079 81.9165 26.9174Z" fill="#FFFED6"/>
<path d="M69.8327 7.32885L76.7014 32.8957M69.8327 7.32885C69.4226 5.80246 75.3022 2.49531 78.4822 2.24091C80.8985 2.0476 85.2658 2.60405 87.4419 2.95103C87.641 2.98278 87.7998 3.13019 87.8497 3.32557L93.5934 25.8216C93.7272 26.3457 93.2898 26.8405 92.7522 26.7808C89.6024 26.4313 84.345 26.1079 81.9165 26.9174C79.169 27.8332 77.5918 30.7334 76.7014 32.8957M69.8327 7.32885C67.9247 6.43846 63.0657 5.29368 58.8936 7.83765C55.6927 9.78945 53.6847 11.2671 52.6744 12.0981C52.2588 12.44 52.1061 12.9908 52.2385 13.5124L58.0791 36.5173C58.1659 36.8593 58.5644 37.0124 58.8573 36.8156C61.4066 35.1021 65.8808 32.1869 67.2887 31.6237C69.1967 30.8606 73.267 29.9702 76.7014 32.8957" stroke="black" stroke-width="2" stroke-linecap="round"/>
<path d="M124.401 31.6243C122.154 33.4474 117.202 36.9411 115.37 36.3306C113.081 35.5674 111.3 31.3699 115.625 24.8827M118.042 39.0018C120.798 39.553 125.801 39.3834 128.981 35.5674C132.292 31.5944 134.832 15.0885 134.45 14.1981C134.145 13.4858 123.175 15.66 119.059 16.742C114.943 17.8241 110.393 21.0587 109.774 25.3915C109.01 30.7339 109.774 30.9883 109.774 31.3699C109.774 31.6751 115.286 36.585 118.042 39.0018Z" stroke="black" stroke-width="2" stroke-linecap="round"/>
</svg>
