<svg width="130" height="72" viewBox="0 0 130 72" fill="none" xmlns="http://www.w3.org/2000/svg">
<rect x="30.9086" y="17.6186" width="67.8096" height="21.6991" transform="rotate(8.53925 30.9086 17.6186)" fill="#ACB8D1" stroke="black" stroke-width="2.71239"/>
<rect x="30.2363" y="31.2319" width="65.0973" height="6.78096" transform="rotate(8.53925 30.2363 31.2319)" fill="#728BC0"/>
<rect x="26.7089" y="1.44526" width="14.24" height="56.282" rx="7.12001" transform="rotate(8.53925 26.7089 1.44526)" fill="#728BC0"/>
<rect x="26.7089" y="1.44526" width="14.24" height="56.282" rx="7.12001" transform="rotate(8.53925 26.7089 1.44526)" stroke="black" stroke-width="2.71239"/>
<rect x="26.7089" y="1.44526" width="14.24" height="56.282" rx="7.12001" transform="rotate(8.53925 26.7089 1.44526)" stroke="black" stroke-width="2.71239"/>
<rect x="26.7089" y="1.44526" width="14.24" height="56.282" rx="7.12001" transform="rotate(8.53925 26.7089 1.44526)" stroke="black" stroke-width="2.71239"/>
<rect x="4.73424" y="12.3168" width="14.014" height="28.9321" rx="7.007" transform="rotate(8.53925 4.73424 12.3168)" fill="#5675B5"/>
<rect x="4.73424" y="12.3168" width="14.014" height="28.9321" rx="7.007" transform="rotate(8.53925 4.73424 12.3168)" stroke="black" stroke-width="2.71239"/>
<rect x="4.73424" y="12.3168" width="14.014" height="28.9321" rx="7.007" transform="rotate(8.53925 4.73424 12.3168)" stroke="black" stroke-width="2.71239"/>
<rect x="4.73424" y="12.3168" width="14.014" height="28.9321" rx="7.007" transform="rotate(8.53925 4.73424 12.3168)" stroke="black" stroke-width="2.71239"/>
<rect x="11.5643" y="4.88569" width="14.24" height="46.1106" rx="7.12001" transform="rotate(8.53925 11.5643 4.88569)" fill="#ADB8D1"/>
<rect x="11.5643" y="4.88569" width="14.24" height="46.1106" rx="7.12001" transform="rotate(8.53925 11.5643 4.88569)" stroke="black" stroke-width="2.71239"/>
<rect x="11.5643" y="4.88569" width="14.24" height="46.1106" rx="7.12001" transform="rotate(8.53925 11.5643 4.88569)" stroke="black" stroke-width="2.71239"/>
<rect x="11.5643" y="4.88569" width="14.24" height="46.1106" rx="7.12001" transform="rotate(8.53925 11.5643 4.88569)" stroke="black" stroke-width="2.71239"/>
<rect x="1.54254" y="-1.13978" width="14.24" height="56.282" rx="7.12001" transform="matrix(-0.988914 -0.148487 -0.148487 0.988914 113.005 15.5553)" fill="#728BC0"/>
<rect x="1.54254" y="-1.13978" width="14.24" height="56.282" rx="7.12001" transform="matrix(-0.988914 -0.148487 -0.148487 0.988914 113.005 15.5553)" stroke="black" stroke-width="2.71239"/>
<rect x="1.54254" y="-1.13978" width="14.24" height="56.282" rx="7.12001" transform="matrix(-0.988914 -0.148487 -0.148487 0.988914 113.005 15.5553)" stroke="black" stroke-width="2.71239"/>
<rect x="1.54254" y="-1.13978" width="14.24" height="56.282" rx="7.12001" transform="matrix(-0.988914 -0.148487 -0.148487 0.988914 113.005 15.5553)" stroke="black" stroke-width="2.71239"/>
<rect x="1.54254" y="-1.13978" width="14.014" height="28.9321" rx="7.007" transform="matrix(-0.988914 -0.148487 -0.148487 0.988914 130.818 32.4)" fill="#5675B5"/>
<rect x="1.54254" y="-1.13978" width="14.014" height="28.9321" rx="7.007" transform="matrix(-0.988914 -0.148487 -0.148487 0.988914 130.818 32.4)" stroke="black" stroke-width="2.71239"/>
<rect x="1.54254" y="-1.13978" width="14.014" height="28.9321" rx="7.007" transform="matrix(-0.988914 -0.148487 -0.148487 0.988914 130.818 32.4)" stroke="black" stroke-width="2.71239"/>
<rect x="1.54254" y="-1.13978" width="14.014" height="28.9321" rx="7.007" transform="matrix(-0.988914 -0.148487 -0.148487 0.988914 130.818 32.4)" stroke="black" stroke-width="2.71239"/>
<rect x="1.54254" y="-1.13978" width="14.24" height="46.1106" rx="7.12001" transform="matrix(-0.988914 -0.148487 -0.148487 0.988914 126.471 23.2911)" fill="#ADB8D1"/>
<rect x="1.54254" y="-1.13978" width="14.24" height="46.1106" rx="7.12001" transform="matrix(-0.988914 -0.148487 -0.148487 0.988914 126.471 23.2911)" stroke="black" stroke-width="2.71239"/>
<rect x="1.54254" y="-1.13978" width="14.24" height="46.1106" rx="7.12001" transform="matrix(-0.988914 -0.148487 -0.148487 0.988914 126.471 23.2911)" stroke="black" stroke-width="2.71239"/>
<rect x="1.54254" y="-1.13978" width="14.24" height="46.1106" rx="7.12001" transform="matrix(-0.988914 -0.148487 -0.148487 0.988914 126.471 23.2911)" stroke="black" stroke-width="2.71239"/>
</svg>
