<svg width="139" height="149" viewBox="0 0 139 149" fill="none" xmlns="http://www.w3.org/2000/svg">
<path d="M83.8511 123.436L85.2699 114.072L52.6375 112.653V122.159L50.3674 134.077L46.2529 141.596L48.523 144.008L58.3127 147.13H80.446L90.0938 141.596L88.3912 138.475L85.2699 130.388L83.8511 123.436Z" fill="#FFEFC9" stroke="black" stroke-width="0.28376"/>
<path d="M111.092 66.3998H106.552L105.842 57.1776L87.9655 43.2734L64.4135 35.3282L27.8085 63.9879L25.9641 64.8392L23.8359 67.1092L21.1401 72.5007L23.8359 81.0135L28.376 87.9656L36.605 90.6613L40.2939 96.6202L43.9828 103.289L51.3605 111.518L60.4408 116.2H74.2032L86.5467 110.808L94.2082 101.019L100.167 91.5126L102.721 90.6613L105.842 88.675L109.531 85.9792L112.511 81.581L114.497 77.6083L114.923 72.3588L113.646 68.9537L111.092 66.3998Z" fill="#FFEFC9"/>
<path d="M49.6575 54.482L65.8318 42.5641L65.8318 39.8684L49.6575 29.0856L43.131 19.4377L41.0028 14.4719L39.0165 11.3506L34.4764 14.4719L26.8148 23.5522L24.6866 32.065L22.1328 43.9829L22.8422 60.5829L28.5174 65.6906L34.4764 63.7042L41.0028 60.5829L49.6575 54.482Z" fill="white" stroke="black" stroke-width="0.28376"/>
<path fill-rule="evenodd" clip-rule="evenodd" d="M108.252 63.9322C130.46 -14.7436 39.7708 -1.55607 40.0076 10.7273C40.0133 11.0216 40.0711 11.3153 40.184 11.6073C40.2397 11.7515 40.3076 11.987 40.399 12.3043C41.409 15.8094 45.2959 29.2983 67.5324 40.0823C68.7388 40.6673 69.9992 41.2445 71.3161 41.8116C97.9337 53.2744 103.254 58.7735 107.332 62.9883C107.643 63.3097 107.946 63.6237 108.252 63.9322Z" fill="white"/>
<path d="M40.0076 10.7273C39.7708 -1.55607 130.46 -14.7436 108.252 63.9322C107.946 63.6237 107.643 63.3097 107.332 62.9883C103.254 58.7735 97.9337 53.2744 71.3161 41.8116C69.9992 41.2445 68.7388 40.6673 67.5324 40.0823M40.0076 10.7273C40.0133 11.0216 40.0711 11.3153 40.184 11.6073C40.2397 11.7515 40.3076 11.987 40.399 12.3043C41.409 15.8094 45.2959 29.2983 67.5324 40.0823M40.0076 10.7273C20.0025 17.2538 18.4321 61.4028 27.2385 64.9254C27.5725 65.059 27.9522 65.1382 28.3735 65.1669M67.5324 40.0823C57.2688 49.6332 36.0044 65.6869 28.3735 65.1669M28.3735 65.1669C29.2815 55.9393 37.8322 45.0814 41.994 40.8058" stroke="black" stroke-width="2.8376" stroke-linecap="round"/>
<path d="M106.41 60.1574C105.842 48.6179 101.018 24.3753 86.2627 19.7217" stroke="black" stroke-width="2.8376" stroke-linecap="round"/>
<path d="M104.423 58.8807C104.045 50.4625 95.8537 32.9167 66.1157 30.0791" stroke="black" stroke-width="2.8376" stroke-linecap="round"/>
<path d="M94.7754 70.5142C92.1742 72.3113 85.2978 74.8273 78.6011 70.5142" stroke="black" stroke-width="2.8376" stroke-linecap="round"/>
<path d="M86.6885 73.3521L86.5466 77.1828" stroke="black" stroke-width="2.8376" stroke-linecap="round"/>
<path d="M91.5586 72.2896L94.208 75.7637" stroke="black" stroke-width="2.8376" stroke-linecap="round"/>
<path d="M81.668 73.2104L79.1689 76.3318" stroke="black" stroke-width="2.8376" stroke-linecap="round"/>
<path d="M58.4546 70.3726C55.8534 72.1697 48.977 74.6857 42.2803 70.3726" stroke="black" stroke-width="2.8376" stroke-linecap="round"/>
<path d="M50.3672 73.2104L50.2253 77.0412" stroke="black" stroke-width="2.8376" stroke-linecap="round"/>
<path d="M55.2373 72.1479L57.8867 75.6221" stroke="black" stroke-width="2.8376" stroke-linecap="round"/>
<path d="M45.3467 73.0688L42.8476 76.1902" stroke="black" stroke-width="2.8376" stroke-linecap="round"/>
<mask id="mask0_43_329" style="mask-type:alpha" maskUnits="userSpaceOnUse" x="21" y="35" width="94" height="82">
<path d="M111.092 66.3998H106.552L105.842 57.1776L87.9655 43.2734L64.4135 35.3282L27.8085 63.9879L25.9641 64.8392L23.8359 67.1092L21.1401 72.5007L23.8359 81.0135L28.376 87.9656L36.605 90.6613L40.2939 96.6202L43.9828 103.289L51.3605 111.518L60.4408 116.2H74.2032L86.5467 110.808L94.2082 101.019L100.167 91.5126L102.721 90.6613L105.842 88.675L109.531 85.9792L112.511 81.581L114.497 77.6083L114.923 72.3588L113.646 68.9537L111.092 66.3998Z" fill="#FFEFC9"/>
</mask>
<g mask="url(#mask0_43_329)">
<circle cx="91.229" cy="98.8901" r="13.1948" fill="#FFAAD3"/>
<circle cx="46.1108" cy="98.8901" r="13.1948" fill="#FFAAD3"/>
</g>
<path d="M52.0698 124.712V114.781L53.6305 113.22L62.8527 116.767L72.9262 116.342L84.5603 113.788L83.9928 124.996C83.9928 124.996 74.3 127.613 67.9604 127.55C61.6569 127.488 52.0698 124.712 52.0698 124.712Z" fill="#D9D9D9"/>
<path d="M52.0698 124.712V114.781L53.6305 113.22L62.8527 116.767L72.9262 116.342L84.5603 113.788L83.9928 124.996C83.9928 124.996 74.3 127.613 67.9604 127.55C61.6569 127.488 52.0698 124.712 52.0698 124.712Z" fill="#CB6900" fill-opacity="0.29"/>
<path d="M85.4119 111.659C83.4729 118.375 83.2438 132.78 88.8169 139.326C97.7554 149.825 39.5022 150.109 46.8205 140.177C50.7933 134.786 55.0496 116.199 49.942 110.382" stroke="black" stroke-width="2.8376" stroke-linecap="round"/>
<path d="M34.6187 82.5745C46.8203 131.097 93.6407 126.132 102.579 80.4463" stroke="black" stroke-width="2.8376" stroke-linecap="round"/>
<path d="M29.7946 65.1226C16.4581 62.7107 19.2956 87.5396 35.6118 91.3704" stroke="black" stroke-width="2.8376" stroke-linecap="round"/>
<path d="M106.268 65.4298C119.605 63.0178 116.767 87.8468 100.451 91.6775" stroke="black" stroke-width="2.8376" stroke-linecap="round"/>
<path d="M7.80339 58.4546L9.29359 65.3574C9.60852 66.8162 10.5457 68.0643 11.8588 68.7736L15.6068 70.7981L11.8588 72.8227C10.5457 73.532 9.60852 74.7801 9.29359 76.2388L7.80339 83.1417L6.31319 76.2388C5.99826 74.7801 5.06109 73.532 3.74803 72.8227L0 70.7981L3.74803 68.7736C5.06109 68.0643 5.99826 66.8162 6.31319 65.3574L7.80339 58.4546Z" fill="#FFE07B"/>
<path d="M21.2822 87.1138L22.2274 91.0019C22.5892 92.4905 23.6001 93.7381 24.9814 94.4006L27.2411 95.4847L24.9814 96.5687C23.6001 97.2313 22.5892 98.4789 22.2274 99.9674L21.2822 103.856L20.337 99.9674C19.9752 98.4789 18.9643 97.2313 17.583 96.5687L15.3232 95.4847L17.583 94.4006C18.9643 93.7381 19.9752 92.4905 20.337 91.0019L21.2822 87.1138Z" fill="#FFE07B"/>
<path d="M129.82 13.9043L131.589 21.9617C131.91 23.4255 132.858 24.6743 134.182 25.3773L138.759 27.8085L134.182 30.2397C132.858 30.9428 131.91 32.1916 131.589 33.6553L129.82 41.7127L128.051 33.6553C127.73 32.1916 126.782 30.9428 125.459 30.2397L120.882 27.8085L125.459 25.3773C126.782 24.6743 127.73 23.4255 128.051 21.9617L129.82 13.9043Z" fill="#FFE07B"/>
</svg>
